M48
; DRILL file KiCad 10.0.6-10.0.6~ubuntu24.04.1 date 2026-09-21T19:10:30
; FORMAT={-:-/ absolute / metric / decimal}
; #@! TF.CreationDate,2026-09-21T19:10:30-05:00
; #@! TF.GenerationSoftware,Kicad,Pcbnew,10.0.6-10.0.6~ubuntu24.04.1
; #@! TF.FileFunction,MixedPlating,1,4
FMAT,2
METRIC
; #@! TA.AperFunction,Plated,PTH,ViaDrill
T1C0.300
; #@! TA.AperFunction,Plated,PTH,ComponentDrill
T2C0.300
; #@! TA.AperFunction,Plated,PTH,ComponentDrill
T3C0.600
; #@! TA.AperFunction,Plated,PTH,ComponentDrill
T4C1.000
; #@! TA.AperFunction,Plated,PTH,ComponentDrill
T5C4.000
; #@! TA.AperFunction,NonPlated,NPTH,ComponentDrill
T6C0.650
%
G90
G05
T1
X-23.75Y-4.0
X-23.75Y-6.0
X-21.55Y7.9
X-21.3Y1.75
X-19.9Y-9.6
X-19.85Y4.9
X-18.6Y-2.5
X-16.15Y2.75
X-16.1Y4.85
X-15.25Y11.85
X-15.2Y20.2
X-15.175Y-8.525
X-14.65Y-7.35
X-14.55Y0.85
X-13.95Y-4.8
X-13.65Y6.55
X-12.55Y-21.85
X-12.2Y6.6
X-12.15Y-9.2
X-11.7Y14.8
X-11.7Y13.0
X-11.25Y-2.95
X-11.15Y1.05
X-11.15Y-1.45
X-10.8Y-0.3
X-10.6Y13.75
X-10.55Y-4.2
X-10.5Y11.45
X-10.25Y-13.85
X-9.6Y-6.5
X-9.3Y6.1
X-9.25Y-0.25
X-9.2Y4.7
X-8.711Y3.339
X-8.7Y4.0
X-8.4Y11.65
X-8.393Y9.343
X-8.25Y-11.65
X-8.2Y-6.2
X-7.922Y1.878
X-7.85Y-0.95
X-7.3Y16.6
X-6.75Y15.15
X-6.5Y5.0
X-6.45Y-2.075
X-6.45Y-5.9
X-6.0Y-6.9
X-5.85Y0.3
X-5.1Y-3.7
X-4.95Y-8.15
X-4.95Y-11.65
X-4.9Y15.95
X-4.375Y-6.225
X-4.05Y-9.65
X-3.95Y21.0
X-3.95Y-11.55
X-3.85Y11.95
X-3.75Y-13.85
X-3.35Y-5.05
X-3.3Y2.75
X-3.236Y-3.9
X-3.075Y-2.175
X-3.0Y-0.65
X-2.95Y9.05
X-2.95Y7.7
X-2.85Y-2.95
X-2.6Y-5.25
X-2.1Y-2.075
X-2.0Y17.25
X-2.0Y9.15
X-2.0Y8.4
X-2.0Y-4.45
X-1.799Y-6.847
X-1.7Y10.25
X-1.25Y7.2
X-1.15Y11.2
X-0.45Y-13.4
X-0.25Y11.5
X-0.136Y1.186
X-0.05Y-11.0
X0.0Y-5.2
X0.45Y18.2
X0.5Y15.95
X0.5Y-14.3
X0.6Y11.55
X0.6Y-4.25
X0.6Y-10.25
X0.7Y-6.85
X1.182Y-7.862
X1.4Y3.15
X1.4Y-5.15
X1.738Y-7.252
X1.85Y1.2
X1.85Y-21.8
X1.95Y11.5
X2.328Y-7.144
X2.7Y1.65
X2.75Y6.65
X2.95Y-15.6
X3.0Y11.5
X3.0Y-5.15
X3.2Y21.2
X3.4Y3.15
X3.4Y-1.45
X3.55Y13.3
X3.75Y-7.6
X3.95Y7.6
X4.05Y8.5
X4.2Y11.55
X4.45Y-0.325
X4.475Y-2.075
X4.617Y-2.867
X4.8Y9.1
X4.95Y0.8
X4.976Y-3.675
X4.992Y-1.77
X5.033Y0.134
X5.15Y10.85
X5.15Y9.85
X5.35Y3.95
X5.85Y-9.55
X6.05Y5.7
X6.15Y4.425
X6.45Y7.55
X6.9Y-0.1
X7.001Y6.199
X7.211Y3.889
X7.65Y-7.975
X7.7Y-6.15
X7.95Y-1.2
X7.986Y2.814
X8.15Y-9.6
X8.4Y-4.55
X8.495Y7.3
X8.65Y-6.1
X8.7Y-1.1
X9.1Y-2.5
X9.3Y-5.7
X9.4Y3.95
X9.5Y6.625
X9.735Y1.933
X9.75Y9.2
X9.8Y-3.525
X9.8Y-6.3
X9.866Y-5.066
X9.95Y5.65
X10.05Y-0.95
X10.25Y7.15
X10.4Y-3.725
X10.5Y4.575
X10.55Y0.1
X11.15Y0.4
X11.725Y3.125
X12.25Y7.055
X12.9Y8.3
X13.1Y-0.3
X13.1Y-1.4
X13.386Y6.664
X13.85Y-3.1
X14.064Y-1.825
X14.4Y-7.7
X14.5Y3.5
X14.7Y-5.25
X15.15Y9.1
X15.225Y6.7
X15.25Y-2.9
X15.309Y14.031
X15.407Y-0.507
X15.85Y5.675
X15.95Y1.6
X16.1Y-1.4
X16.7Y8.35
T2
X-24.05Y15.25
X-24.05Y-15.25
X-23.259Y17.159
X-23.259Y13.341
X-23.259Y-13.341
X-23.259Y-17.159
X-21.35Y17.95
X-21.35Y12.55
X-21.35Y-12.55
X-21.35Y-17.95
X-19.441Y17.159
X-19.441Y13.341
X-19.441Y-13.341
X-19.441Y-17.159
X-18.65Y15.25
X-18.65Y-15.25
X6.45Y15.25
X6.45Y-15.25
X7.241Y17.159
X7.241Y13.341
X7.241Y-13.341
X7.241Y-17.159
X9.15Y17.95
X9.15Y12.55
X9.15Y-12.55
X9.15Y-17.95
X11.059Y17.159
X11.059Y13.341
X11.059Y-13.341
X11.059Y-17.159
X11.85Y15.25
X11.85Y-15.25
T4
X18.77Y16.51
X18.77Y13.97
X18.77Y11.43
X18.77Y8.89
X18.77Y6.35
X18.77Y3.81
X18.77Y1.27
X18.77Y-1.27
X18.77Y-3.81
X18.77Y-6.35
X18.77Y-8.89
X18.77Y-11.43
X18.77Y-13.97
X18.77Y-16.51
X21.31Y16.51
X21.31Y13.97
X21.31Y11.43
X21.31Y8.89
X21.31Y6.35
X21.31Y3.81
X21.31Y1.27
X21.31Y-1.27
X21.31Y-3.81
X21.31Y-6.35
X21.31Y-8.89
X21.31Y-11.43
X21.31Y-13.97
X21.31Y-16.51
X23.85Y16.51
X23.85Y13.97
X23.85Y11.43
X23.85Y8.89
X23.85Y6.35
X23.85Y3.81
X23.85Y1.27
X23.85Y-1.27
X23.85Y-3.81
X23.85Y-6.35
X23.85Y-8.89
X23.85Y-11.43
X23.85Y-13.97
X23.85Y-16.51
T5
X-21.35Y15.25
X-21.35Y-15.25
X9.15Y15.25
X9.15Y-15.25
T6
X-9.89Y-16.5
X-4.11Y-16.5
T3
G00X-11.32Y-15.42
M15
G01X-11.32Y-16.52
M16
G05
G00X-11.32Y-19.85
M15
G01X-11.32Y-20.45
M16
G05
G00X-2.68Y-15.42
M15
G01X-2.68Y-16.52
M16
G05
G00X-2.68Y-19.85
M15
G01X-2.68Y-20.45
M16
G05
M30
