ISO-10303-21;
HEADER;
FILE_DESCRIPTION(('FreeCAD Model'),'2;1');
FILE_NAME('Open CASCADE Shape Model','2026-09-15T13:40:55',('FreeCAD'),(
    'FreeCAD'),'Open CASCADE STEP processor 7.8','FreeCAD','Unknown');
FILE_SCHEMA(('AUTOMOTIVE_DESIGN { 1 0 10303 214 1 1 1 1 }'));
ENDSEC;
DATA;
#1 = APPLICATION_PROTOCOL_DEFINITION('international standard',
  'automotive_design',2000,#2);
#2 = APPLICATION_CONTEXT(
  'core data for automotive mechanical design processes');
#3 = SHAPE_DEFINITION_REPRESENTATION(#4,#10);
#4 = PRODUCT_DEFINITION_SHAPE('','',#5);
#5 = PRODUCT_DEFINITION('design','',#6,#9);
#6 = PRODUCT_DEFINITION_FORMATION('','',#7);
#7 = PRODUCT('Open CASCADE STEP translator 7.8 1',
  'Open CASCADE STEP translator 7.8 1','',(#8));
#8 = PRODUCT_CONTEXT('',#2,'mechanical');
#9 = PRODUCT_DEFINITION_CONTEXT('part definition',#2,'design');
#10 = SHAPE_REPRESENTATION('',(#11,#15,#252,#305),#358);
#11 = AXIS2_PLACEMENT_3D('',#12,#13,#14);
#12 = CARTESIAN_POINT('',(0.,0.,0.));
#13 = DIRECTION('',(0.,0.,1.));
#14 = DIRECTION('',(1.,0.,-0.));
#15 = MANIFOLD_SOLID_BREP('',#16);
#16 = CLOSED_SHELL('',(#17,#57,#88,#138,#163,#180,#192,#224,#242));
#17 = ADVANCED_FACE('',(#18),#52,.F.);
#18 = FACE_BOUND('',#19,.T.);
#19 = EDGE_LOOP('',(#20,#30,#38,#46));
#20 = ORIENTED_EDGE('',*,*,#21,.F.);
#21 = EDGE_CURVE('',#22,#24,#26,.T.);
#22 = VERTEX_POINT('',#23);
#23 = CARTESIAN_POINT('',(-9.15,13.1,0.));
#24 = VERTEX_POINT('',#25);
#25 = CARTESIAN_POINT('',(-9.15,13.1,7.));
#26 = LINE('',#27,#28);
#27 = CARTESIAN_POINT('',(-9.15,13.1,0.));
#28 = VECTOR('',#29,1.);
#29 = DIRECTION('',(-0.,-0.,1.));
#30 = ORIENTED_EDGE('',*,*,#31,.T.);
#31 = EDGE_CURVE('',#22,#32,#34,.T.);
#32 = VERTEX_POINT('',#33);
#33 = CARTESIAN_POINT('',(-9.15,4.1,0.));
#34 = LINE('',#35,#36);
#35 = CARTESIAN_POINT('',(-9.15,13.1,0.));
#36 = VECTOR('',#37,1.);
#37 = DIRECTION('',(-0.,-1.,-0.));
#38 = ORIENTED_EDGE('',*,*,#39,.T.);
#39 = EDGE_CURVE('',#32,#40,#42,.T.);
#40 = VERTEX_POINT('',#41);
#41 = CARTESIAN_POINT('',(-9.15,4.1,7.));
#42 = LINE('',#43,#44);
#43 = CARTESIAN_POINT('',(-9.15,4.1,0.));
#44 = VECTOR('',#45,1.);
#45 = DIRECTION('',(-0.,-0.,1.));
#46 = ORIENTED_EDGE('',*,*,#47,.F.);
#47 = EDGE_CURVE('',#24,#40,#48,.T.);
#48 = LINE('',#49,#50);
#49 = CARTESIAN_POINT('',(-9.15,13.1,7.));
#50 = VECTOR('',#51,1.);
#51 = DIRECTION('',(-0.,-1.,-0.));
#52 = PLANE('',#53);
#53 = AXIS2_PLACEMENT_3D('',#54,#55,#56);
#54 = CARTESIAN_POINT('',(-9.15,13.1,0.));
#55 = DIRECTION('',(1.,-0.,-0.));
#56 = DIRECTION('',(0.,0.,-1.));
#57 = ADVANCED_FACE('',(#58),#83,.F.);
#58 = FACE_BOUND('',#59,.T.);
#59 = EDGE_LOOP('',(#60,#68,#69,#77));
#60 = ORIENTED_EDGE('',*,*,#61,.F.);
#61 = EDGE_CURVE('',#22,#62,#64,.T.);
#62 = VERTEX_POINT('',#63);
#63 = CARTESIAN_POINT('',(4.15,13.1,0.));
#64 = LINE('',#65,#66);
#65 = CARTESIAN_POINT('',(-9.15,13.1,0.));
#66 = VECTOR('',#67,1.);
#67 = DIRECTION('',(1.,-0.,-0.));
#68 = ORIENTED_EDGE('',*,*,#21,.T.);
#69 = ORIENTED_EDGE('',*,*,#70,.T.);
#70 = EDGE_CURVE('',#24,#71,#73,.T.);
#71 = VERTEX_POINT('',#72);
#72 = CARTESIAN_POINT('',(4.15,13.1,7.));
#73 = LINE('',#74,#75);
#74 = CARTESIAN_POINT('',(-9.15,13.1,7.));
#75 = VECTOR('',#76,1.);
#76 = DIRECTION('',(1.,-0.,-0.));
#77 = ORIENTED_EDGE('',*,*,#78,.F.);
#78 = EDGE_CURVE('',#62,#71,#79,.T.);
#79 = LINE('',#80,#81);
#80 = CARTESIAN_POINT('',(4.15,13.1,0.));
#81 = VECTOR('',#82,1.);
#82 = DIRECTION('',(-0.,-0.,1.));
#83 = PLANE('',#84);
#84 = AXIS2_PLACEMENT_3D('',#85,#86,#87);
#85 = CARTESIAN_POINT('',(-9.15,13.1,0.));
#86 = DIRECTION('',(-0.,-1.,-0.));
#87 = DIRECTION('',(0.,0.,-1.));
#88 = ADVANCED_FACE('',(#89,#115),#133,.T.);
#89 = FACE_BOUND('',#90,.F.);
#90 = EDGE_LOOP('',(#91,#99,#100,#101,#109));
#91 = ORIENTED_EDGE('',*,*,#92,.F.);
#92 = EDGE_CURVE('',#40,#93,#95,.T.);
#93 = VERTEX_POINT('',#94);
#94 = CARTESIAN_POINT('',(0.,4.1,7.));
#95 = LINE('',#96,#97);
#96 = CARTESIAN_POINT('',(-9.15,4.1,7.));
#97 = VECTOR('',#98,1.);
#98 = DIRECTION('',(1.,-0.,-0.));
#99 = ORIENTED_EDGE('',*,*,#47,.F.);
#100 = ORIENTED_EDGE('',*,*,#70,.T.);
#101 = ORIENTED_EDGE('',*,*,#102,.T.);
#102 = EDGE_CURVE('',#71,#103,#105,.T.);
#103 = VERTEX_POINT('',#104);
#104 = CARTESIAN_POINT('',(4.15,4.1,7.));
#105 = LINE('',#106,#107);
#106 = CARTESIAN_POINT('',(4.15,13.1,7.));
#107 = VECTOR('',#108,1.);
#108 = DIRECTION('',(-0.,-1.,-0.));
#109 = ORIENTED_EDGE('',*,*,#110,.F.);
#110 = EDGE_CURVE('',#93,#103,#111,.T.);
#111 = LINE('',#112,#113);
#112 = CARTESIAN_POINT('',(-9.15,4.1,7.));
#113 = VECTOR('',#114,1.);
#114 = DIRECTION('',(1.,-0.,-0.));
#115 = FACE_BOUND('',#116,.F.);
#116 = EDGE_LOOP('',(#117,#126));
#117 = ORIENTED_EDGE('',*,*,#118,.F.);
#118 = EDGE_CURVE('',#93,#119,#121,.T.);
#119 = VERTEX_POINT('',#120);
#120 = CARTESIAN_POINT('',(0.5,4.6,7.));
#121 = CIRCLE('',#122,0.5);
#122 = AXIS2_PLACEMENT_3D('',#123,#124,#125);
#123 = CARTESIAN_POINT('',(0.,4.6,7.));
#124 = DIRECTION('',(0.,0.,-1.));
#125 = DIRECTION('',(1.,-0.,-0.));
#126 = ORIENTED_EDGE('',*,*,#127,.F.);
#127 = EDGE_CURVE('',#119,#93,#128,.T.);
#128 = CIRCLE('',#129,0.5);
#129 = AXIS2_PLACEMENT_3D('',#130,#131,#132);
#130 = CARTESIAN_POINT('',(0.,4.6,7.));
#131 = DIRECTION('',(0.,0.,-1.));
#132 = DIRECTION('',(1.,-0.,-0.));
#133 = PLANE('',#134);
#134 = AXIS2_PLACEMENT_3D('',#135,#136,#137);
#135 = CARTESIAN_POINT('',(-9.15,13.1,7.));
#136 = DIRECTION('',(-0.,-0.,1.));
#137 = DIRECTION('',(-1.,0.,0.));
#138 = ADVANCED_FACE('',(#139),#158,.T.);
#139 = FACE_BOUND('',#140,.F.);
#140 = EDGE_LOOP('',(#141,#149,#150,#151,#152));
#141 = ORIENTED_EDGE('',*,*,#142,.F.);
#142 = EDGE_CURVE('',#32,#143,#145,.T.);
#143 = VERTEX_POINT('',#144);
#144 = CARTESIAN_POINT('',(4.15,4.1,0.));
#145 = LINE('',#146,#147);
#146 = CARTESIAN_POINT('',(-9.15,4.1,0.));
#147 = VECTOR('',#148,1.);
#148 = DIRECTION('',(1.,-0.,-0.));
#149 = ORIENTED_EDGE('',*,*,#39,.T.);
#150 = ORIENTED_EDGE('',*,*,#92,.T.);
#151 = ORIENTED_EDGE('',*,*,#110,.T.);
#152 = ORIENTED_EDGE('',*,*,#153,.F.);
#153 = EDGE_CURVE('',#143,#103,#154,.T.);
#154 = LINE('',#155,#156);
#155 = CARTESIAN_POINT('',(4.15,4.1,0.));
#156 = VECTOR('',#157,1.);
#157 = DIRECTION('',(-0.,-0.,1.));
#158 = PLANE('',#159);
#159 = AXIS2_PLACEMENT_3D('',#160,#161,#162);
#160 = CARTESIAN_POINT('',(-9.15,4.1,0.));
#161 = DIRECTION('',(-0.,-1.,-0.));
#162 = DIRECTION('',(0.,0.,-1.));
#163 = ADVANCED_FACE('',(#164),#175,.F.);
#164 = FACE_BOUND('',#165,.T.);
#165 = EDGE_LOOP('',(#166,#167,#168,#174));
#166 = ORIENTED_EDGE('',*,*,#31,.F.);
#167 = ORIENTED_EDGE('',*,*,#61,.T.);
#168 = ORIENTED_EDGE('',*,*,#169,.T.);
#169 = EDGE_CURVE('',#62,#143,#170,.T.);
#170 = LINE('',#171,#172);
#171 = CARTESIAN_POINT('',(4.15,13.1,0.));
#172 = VECTOR('',#173,1.);
#173 = DIRECTION('',(-0.,-1.,-0.));
#174 = ORIENTED_EDGE('',*,*,#142,.F.);
#175 = PLANE('',#176);
#176 = AXIS2_PLACEMENT_3D('',#177,#178,#179);
#177 = CARTESIAN_POINT('',(-9.15,13.1,0.));
#178 = DIRECTION('',(-0.,-0.,1.));
#179 = DIRECTION('',(-1.,0.,0.));
#180 = ADVANCED_FACE('',(#181),#187,.T.);
#181 = FACE_BOUND('',#182,.F.);
#182 = EDGE_LOOP('',(#183,#184,#185,#186));
#183 = ORIENTED_EDGE('',*,*,#78,.F.);
#184 = ORIENTED_EDGE('',*,*,#169,.T.);
#185 = ORIENTED_EDGE('',*,*,#153,.T.);
#186 = ORIENTED_EDGE('',*,*,#102,.F.);
#187 = PLANE('',#188);
#188 = AXIS2_PLACEMENT_3D('',#189,#190,#191);
#189 = CARTESIAN_POINT('',(4.15,13.1,0.));
#190 = DIRECTION('',(1.,-0.,-0.));
#191 = DIRECTION('',(0.,0.,-1.));
#192 = ADVANCED_FACE('',(#193),#219,.F.);
#193 = FACE_BOUND('',#194,.T.);
#194 = EDGE_LOOP('',(#195,#203,#204,#212));
#195 = ORIENTED_EDGE('',*,*,#196,.T.);
#196 = EDGE_CURVE('',#197,#119,#199,.T.);
#197 = VERTEX_POINT('',#198);
#198 = CARTESIAN_POINT('',(0.5,4.6,6.7));
#199 = LINE('',#200,#201);
#200 = CARTESIAN_POINT('',(0.5,4.6,6.7));
#201 = VECTOR('',#202,1.);
#202 = DIRECTION('',(-0.,-0.,1.));
#203 = ORIENTED_EDGE('',*,*,#118,.F.);
#204 = ORIENTED_EDGE('',*,*,#205,.F.);
#205 = EDGE_CURVE('',#206,#93,#208,.T.);
#206 = VERTEX_POINT('',#207);
#207 = CARTESIAN_POINT('',(3.061616997868E-17,4.1,6.7));
#208 = LINE('',#209,#210);
#209 = CARTESIAN_POINT('',(0.,4.1,6.7));
#210 = VECTOR('',#211,1.);
#211 = DIRECTION('',(-0.,-0.,1.));
#212 = ORIENTED_EDGE('',*,*,#213,.T.);
#213 = EDGE_CURVE('',#206,#197,#214,.T.);
#214 = CIRCLE('',#215,0.5);
#215 = AXIS2_PLACEMENT_3D('',#216,#217,#218);
#216 = CARTESIAN_POINT('',(0.,4.6,6.7));
#217 = DIRECTION('',(0.,0.,-1.));
#218 = DIRECTION('',(1.,-0.,-0.));
#219 = CYLINDRICAL_SURFACE('',#220,0.5);
#220 = AXIS2_PLACEMENT_3D('',#221,#222,#223);
#221 = CARTESIAN_POINT('',(0.,4.6,6.7));
#222 = DIRECTION('',(-0.,-0.,1.));
#223 = DIRECTION('',(1.,-0.,-0.));
#224 = ADVANCED_FACE('',(#225),#237,.F.);
#225 = FACE_BOUND('',#226,.T.);
#226 = EDGE_LOOP('',(#227,#228,#229,#236));
#227 = ORIENTED_EDGE('',*,*,#127,.F.);
#228 = ORIENTED_EDGE('',*,*,#196,.F.);
#229 = ORIENTED_EDGE('',*,*,#230,.T.);
#230 = EDGE_CURVE('',#197,#206,#231,.T.);
#231 = CIRCLE('',#232,0.5);
#232 = AXIS2_PLACEMENT_3D('',#233,#234,#235);
#233 = CARTESIAN_POINT('',(0.,4.6,6.7));
#234 = DIRECTION('',(0.,0.,-1.));
#235 = DIRECTION('',(1.,-0.,-0.));
#236 = ORIENTED_EDGE('',*,*,#205,.T.);
#237 = CYLINDRICAL_SURFACE('',#238,0.5);
#238 = AXIS2_PLACEMENT_3D('',#239,#240,#241);
#239 = CARTESIAN_POINT('',(0.,4.6,6.7));
#240 = DIRECTION('',(-0.,-0.,1.));
#241 = DIRECTION('',(1.,-0.,-0.));
#242 = ADVANCED_FACE('',(#243),#247,.T.);
#243 = FACE_BOUND('',#244,.T.);
#244 = EDGE_LOOP('',(#245,#246));
#245 = ORIENTED_EDGE('',*,*,#230,.F.);
#246 = ORIENTED_EDGE('',*,*,#213,.F.);
#247 = PLANE('',#248);
#248 = AXIS2_PLACEMENT_3D('',#249,#250,#251);
#249 = CARTESIAN_POINT('',(0.,4.6,6.7));
#250 = DIRECTION('',(-0.,-0.,1.));
#251 = DIRECTION('',(-1.,0.,0.));
#252 = MANIFOLD_SOLID_BREP('',#253);
#253 = CLOSED_SHELL('',(#254,#287,#296));
#254 = ADVANCED_FACE('',(#255),#282,.T.);
#255 = FACE_BOUND('',#256,.F.);
#256 = EDGE_LOOP('',(#257,#266,#274,#281));
#257 = ORIENTED_EDGE('',*,*,#258,.F.);
#258 = EDGE_CURVE('',#259,#259,#261,.T.);
#259 = VERTEX_POINT('',#260);
#260 = CARTESIAN_POINT('',(0.75,1.836970198721E-16,3.));
#261 = CIRCLE('',#262,0.75);
#262 = AXIS2_PLACEMENT_3D('',#263,#264,#265);
#263 = CARTESIAN_POINT('',(0.,0.,3.));
#264 = DIRECTION('',(0.,0.,-1.));
#265 = DIRECTION('',(1.,-0.,-0.));
#266 = ORIENTED_EDGE('',*,*,#267,.F.);
#267 = EDGE_CURVE('',#268,#259,#270,.T.);
#268 = VERTEX_POINT('',#269);
#269 = CARTESIAN_POINT('',(0.75,1.836970198721E-16,-3.));
#270 = LINE('',#271,#272);
#271 = CARTESIAN_POINT('',(0.75,1.836970198721E-16,-3.));
#272 = VECTOR('',#273,1.);
#273 = DIRECTION('',(-0.,-0.,1.));
#274 = ORIENTED_EDGE('',*,*,#275,.T.);
#275 = EDGE_CURVE('',#268,#268,#276,.T.);
#276 = CIRCLE('',#277,0.75);
#277 = AXIS2_PLACEMENT_3D('',#278,#279,#280);
#278 = CARTESIAN_POINT('',(0.,0.,-3.));
#279 = DIRECTION('',(0.,0.,-1.));
#280 = DIRECTION('',(1.,-0.,-0.));
#281 = ORIENTED_EDGE('',*,*,#267,.T.);
#282 = CYLINDRICAL_SURFACE('',#283,0.75);
#283 = AXIS2_PLACEMENT_3D('',#284,#285,#286);
#284 = CARTESIAN_POINT('',(0.,0.,-3.));
#285 = DIRECTION('',(-0.,-0.,1.));
#286 = DIRECTION('',(1.,-0.,-0.));
#287 = ADVANCED_FACE('',(#288),#291,.T.);
#288 = FACE_BOUND('',#289,.F.);
#289 = EDGE_LOOP('',(#290));
#290 = ORIENTED_EDGE('',*,*,#258,.T.);
#291 = PLANE('',#292);
#292 = AXIS2_PLACEMENT_3D('',#293,#294,#295);
#293 = CARTESIAN_POINT('',(0.,0.,3.));
#294 = DIRECTION('',(-0.,-0.,1.));
#295 = DIRECTION('',(-1.,0.,0.));
#296 = ADVANCED_FACE('',(#297),#300,.F.);
#297 = FACE_BOUND('',#298,.F.);
#298 = EDGE_LOOP('',(#299));
#299 = ORIENTED_EDGE('',*,*,#275,.F.);
#300 = PLANE('',#301);
#301 = AXIS2_PLACEMENT_3D('',#302,#303,#304);
#302 = CARTESIAN_POINT('',(0.,0.,-3.));
#303 = DIRECTION('',(-0.,-0.,1.));
#304 = DIRECTION('',(-1.,0.,0.));
#305 = MANIFOLD_SOLID_BREP('',#306);
#306 = CLOSED_SHELL('',(#307,#340,#349));
#307 = ADVANCED_FACE('',(#308),#335,.T.);
#308 = FACE_BOUND('',#309,.F.);
#309 = EDGE_LOOP('',(#310,#319,#327,#334));
#310 = ORIENTED_EDGE('',*,*,#311,.F.);
#311 = EDGE_CURVE('',#312,#312,#314,.T.);
#312 = VERTEX_POINT('',#313);
#313 = CARTESIAN_POINT('',(-4.25,1.836970198721E-16,3.));
#314 = CIRCLE('',#315,0.75);
#315 = AXIS2_PLACEMENT_3D('',#316,#317,#318);
#316 = CARTESIAN_POINT('',(-5.,0.,3.));
#317 = DIRECTION('',(0.,0.,-1.));
#318 = DIRECTION('',(1.,-0.,-0.));
#319 = ORIENTED_EDGE('',*,*,#320,.F.);
#320 = EDGE_CURVE('',#321,#312,#323,.T.);
#321 = VERTEX_POINT('',#322);
#322 = CARTESIAN_POINT('',(-4.25,1.836970198721E-16,-3.));
#323 = LINE('',#324,#325);
#324 = CARTESIAN_POINT('',(-4.25,1.836970198721E-16,-3.));
#325 = VECTOR('',#326,1.);
#326 = DIRECTION('',(-0.,-0.,1.));
#327 = ORIENTED_EDGE('',*,*,#328,.T.);
#328 = EDGE_CURVE('',#321,#321,#329,.T.);
#329 = CIRCLE('',#330,0.75);
#330 = AXIS2_PLACEMENT_3D('',#331,#332,#333);
#331 = CARTESIAN_POINT('',(-5.,0.,-3.));
#332 = DIRECTION('',(0.,0.,-1.));
#333 = DIRECTION('',(1.,-0.,-0.));
#334 = ORIENTED_EDGE('',*,*,#320,.T.);
#335 = CYLINDRICAL_SURFACE('',#336,0.75);
#336 = AXIS2_PLACEMENT_3D('',#337,#338,#339);
#337 = CARTESIAN_POINT('',(-5.,0.,-3.));
#338 = DIRECTION('',(-0.,-0.,1.));
#339 = DIRECTION('',(1.,-0.,-0.));
#340 = ADVANCED_FACE('',(#341),#344,.T.);
#341 = FACE_BOUND('',#342,.F.);
#342 = EDGE_LOOP('',(#343));
#343 = ORIENTED_EDGE('',*,*,#311,.T.);
#344 = PLANE('',#345);
#345 = AXIS2_PLACEMENT_3D('',#346,#347,#348);
#346 = CARTESIAN_POINT('',(-5.,0.,3.));
#347 = DIRECTION('',(-0.,-0.,1.));
#348 = DIRECTION('',(-1.,0.,0.));
#349 = ADVANCED_FACE('',(#350),#353,.F.);
#350 = FACE_BOUND('',#351,.F.);
#351 = EDGE_LOOP('',(#352));
#352 = ORIENTED_EDGE('',*,*,#328,.F.);
#353 = PLANE('',#354);
#354 = AXIS2_PLACEMENT_3D('',#355,#356,#357);
#355 = CARTESIAN_POINT('',(-5.,0.,-3.));
#356 = DIRECTION('',(-0.,-0.,1.));
#357 = DIRECTION('',(-1.,0.,0.));
#358 = ( GEOMETRIC_REPRESENTATION_CONTEXT(3) 
GLOBAL_UNCERTAINTY_ASSIGNED_CONTEXT((#362)) GLOBAL_UNIT_ASSIGNED_CONTEXT
((#359,#360,#361)) REPRESENTATION_CONTEXT('Context #1',
  '3D Context with UNIT and UNCERTAINTY') );
#359 = ( LENGTH_UNIT() NAMED_UNIT(*) SI_UNIT(.MILLI.,.METRE.) );
#360 = ( NAMED_UNIT(*) PLANE_ANGLE_UNIT() SI_UNIT($,.RADIAN.) );
#361 = ( NAMED_UNIT(*) SI_UNIT($,.STERADIAN.) SOLID_ANGLE_UNIT() );
#362 = UNCERTAINTY_MEASURE_WITH_UNIT(LENGTH_MEASURE(1.E-07),#359,
  'distance_accuracy_value','confusion accuracy');
#363 = PRODUCT_RELATED_PRODUCT_CATEGORY('part',$,(#7));
ENDSEC;
END-ISO-10303-21;
