ISO-10303-21;
HEADER;
FILE_DESCRIPTION(('FreeCAD Model'),'2;1');
FILE_NAME('Open CASCADE Shape Model','2026-09-15T17:20:23',('FreeCAD'),(
    'FreeCAD'),'Open CASCADE STEP processor 7.8','FreeCAD','Unknown');
FILE_SCHEMA(('AUTOMOTIVE_DESIGN { 1 0 10303 214 1 1 1 1 }'));
ENDSEC;
DATA;
#1 = APPLICATION_PROTOCOL_DEFINITION('international standard',
  'automotive_design',2000,#2);
#2 = APPLICATION_CONTEXT(
  'core data for automotive mechanical design processes');
#3 = SHAPE_DEFINITION_REPRESENTATION(#4,#10);
#4 = PRODUCT_DEFINITION_SHAPE('','',#5);
#5 = PRODUCT_DEFINITION('design','',#6,#9);
#6 = PRODUCT_DEFINITION_FORMATION('','',#7);
#7 = PRODUCT('Open CASCADE STEP translator 7.8 1',
  'Open CASCADE STEP translator 7.8 1','',(#8));
#8 = PRODUCT_CONTEXT('',#2,'mechanical');
#9 = PRODUCT_DEFINITION_CONTEXT('part definition',#2,'design');
#10 = SHAPE_REPRESENTATION('',(#11,#15,#165,#360,#510,#660,#810),#960);
#11 = AXIS2_PLACEMENT_3D('',#12,#13,#14);
#12 = CARTESIAN_POINT('',(0.,0.,0.));
#13 = DIRECTION('',(0.,0.,1.));
#14 = DIRECTION('',(1.,0.,-0.));
#15 = MANIFOLD_SOLID_BREP('',#16);
#16 = CLOSED_SHELL('',(#17,#57,#97,#119,#141,#153));
#17 = ADVANCED_FACE('',(#18),#52,.F.);
#18 = FACE_BOUND('',#19,.T.);
#19 = EDGE_LOOP('',(#20,#30,#38,#46));
#20 = ORIENTED_EDGE('',*,*,#21,.F.);
#21 = EDGE_CURVE('',#22,#24,#26,.T.);
#22 = VERTEX_POINT('',#23);
#23 = CARTESIAN_POINT('',(-1.1,1.,0.));
#24 = VERTEX_POINT('',#25);
#25 = CARTESIAN_POINT('',(-1.1,1.,0.28));
#26 = LINE('',#27,#28);
#27 = CARTESIAN_POINT('',(-1.1,1.,0.));
#28 = VECTOR('',#29,1.);
#29 = DIRECTION('',(-0.,-0.,1.));
#30 = ORIENTED_EDGE('',*,*,#31,.T.);
#31 = EDGE_CURVE('',#22,#32,#34,.T.);
#32 = VERTEX_POINT('',#33);
#33 = CARTESIAN_POINT('',(-1.1,-1.,0.));
#34 = LINE('',#35,#36);
#35 = CARTESIAN_POINT('',(-1.1,1.,0.));
#36 = VECTOR('',#37,1.);
#37 = DIRECTION('',(-0.,-1.,-0.));
#38 = ORIENTED_EDGE('',*,*,#39,.T.);
#39 = EDGE_CURVE('',#32,#40,#42,.T.);
#40 = VERTEX_POINT('',#41);
#41 = CARTESIAN_POINT('',(-1.1,-1.,0.28));
#42 = LINE('',#43,#44);
#43 = CARTESIAN_POINT('',(-1.1,-1.,0.));
#44 = VECTOR('',#45,1.);
#45 = DIRECTION('',(-0.,-0.,1.));
#46 = ORIENTED_EDGE('',*,*,#47,.F.);
#47 = EDGE_CURVE('',#24,#40,#48,.T.);
#48 = LINE('',#49,#50);
#49 = CARTESIAN_POINT('',(-1.1,1.,0.28));
#50 = VECTOR('',#51,1.);
#51 = DIRECTION('',(-0.,-1.,-0.));
#52 = PLANE('',#53);
#53 = AXIS2_PLACEMENT_3D('',#54,#55,#56);
#54 = CARTESIAN_POINT('',(-1.1,1.,0.));
#55 = DIRECTION('',(1.,-0.,-0.));
#56 = DIRECTION('',(0.,0.,-1.));
#57 = ADVANCED_FACE('',(#58),#92,.T.);
#58 = FACE_BOUND('',#59,.F.);
#59 = EDGE_LOOP('',(#60,#70,#78,#86));
#60 = ORIENTED_EDGE('',*,*,#61,.F.);
#61 = EDGE_CURVE('',#62,#64,#66,.T.);
#62 = VERTEX_POINT('',#63);
#63 = CARTESIAN_POINT('',(1.1,1.,0.));
#64 = VERTEX_POINT('',#65);
#65 = CARTESIAN_POINT('',(1.1,1.,0.28));
#66 = LINE('',#67,#68);
#67 = CARTESIAN_POINT('',(1.1,1.,0.));
#68 = VECTOR('',#69,1.);
#69 = DIRECTION('',(-0.,-0.,1.));
#70 = ORIENTED_EDGE('',*,*,#71,.T.);
#71 = EDGE_CURVE('',#62,#72,#74,.T.);
#72 = VERTEX_POINT('',#73);
#73 = CARTESIAN_POINT('',(1.1,-1.,0.));
#74 = LINE('',#75,#76);
#75 = CARTESIAN_POINT('',(1.1,1.,0.));
#76 = VECTOR('',#77,1.);
#77 = DIRECTION('',(-0.,-1.,-0.));
#78 = ORIENTED_EDGE('',*,*,#79,.T.);
#79 = EDGE_CURVE('',#72,#80,#82,.T.);
#80 = VERTEX_POINT('',#81);
#81 = CARTESIAN_POINT('',(1.1,-1.,0.28));
#82 = LINE('',#83,#84);
#83 = CARTESIAN_POINT('',(1.1,-1.,0.));
#84 = VECTOR('',#85,1.);
#85 = DIRECTION('',(-0.,-0.,1.));
#86 = ORIENTED_EDGE('',*,*,#87,.F.);
#87 = EDGE_CURVE('',#64,#80,#88,.T.);
#88 = LINE('',#89,#90);
#89 = CARTESIAN_POINT('',(1.1,1.,0.28));
#90 = VECTOR('',#91,1.);
#91 = DIRECTION('',(-0.,-1.,-0.));
#92 = PLANE('',#93);
#93 = AXIS2_PLACEMENT_3D('',#94,#95,#96);
#94 = CARTESIAN_POINT('',(1.1,1.,0.));
#95 = DIRECTION('',(1.,-0.,-0.));
#96 = DIRECTION('',(0.,0.,-1.));
#97 = ADVANCED_FACE('',(#98),#114,.F.);
#98 = FACE_BOUND('',#99,.T.);
#99 = EDGE_LOOP('',(#100,#106,#107,#113));
#100 = ORIENTED_EDGE('',*,*,#101,.F.);
#101 = EDGE_CURVE('',#22,#62,#102,.T.);
#102 = LINE('',#103,#104);
#103 = CARTESIAN_POINT('',(-1.1,1.,0.));
#104 = VECTOR('',#105,1.);
#105 = DIRECTION('',(1.,-0.,-0.));
#106 = ORIENTED_EDGE('',*,*,#21,.T.);
#107 = ORIENTED_EDGE('',*,*,#108,.T.);
#108 = EDGE_CURVE('',#24,#64,#109,.T.);
#109 = LINE('',#110,#111);
#110 = CARTESIAN_POINT('',(-1.1,1.,0.28));
#111 = VECTOR('',#112,1.);
#112 = DIRECTION('',(1.,-0.,-0.));
#113 = ORIENTED_EDGE('',*,*,#61,.F.);
#114 = PLANE('',#115);
#115 = AXIS2_PLACEMENT_3D('',#116,#117,#118);
#116 = CARTESIAN_POINT('',(-1.1,1.,0.));
#117 = DIRECTION('',(-0.,-1.,-0.));
#118 = DIRECTION('',(0.,0.,-1.));
#119 = ADVANCED_FACE('',(#120),#136,.T.);
#120 = FACE_BOUND('',#121,.F.);
#121 = EDGE_LOOP('',(#122,#128,#129,#135));
#122 = ORIENTED_EDGE('',*,*,#123,.F.);
#123 = EDGE_CURVE('',#32,#72,#124,.T.);
#124 = LINE('',#125,#126);
#125 = CARTESIAN_POINT('',(-1.1,-1.,0.));
#126 = VECTOR('',#127,1.);
#127 = DIRECTION('',(1.,-0.,-0.));
#128 = ORIENTED_EDGE('',*,*,#39,.T.);
#129 = ORIENTED_EDGE('',*,*,#130,.T.);
#130 = EDGE_CURVE('',#40,#80,#131,.T.);
#131 = LINE('',#132,#133);
#132 = CARTESIAN_POINT('',(-1.1,-1.,0.28));
#133 = VECTOR('',#134,1.);
#134 = DIRECTION('',(1.,-0.,-0.));
#135 = ORIENTED_EDGE('',*,*,#79,.F.);
#136 = PLANE('',#137);
#137 = AXIS2_PLACEMENT_3D('',#138,#139,#140);
#138 = CARTESIAN_POINT('',(-1.1,-1.,0.));
#139 = DIRECTION('',(-0.,-1.,-0.));
#140 = DIRECTION('',(0.,0.,-1.));
#141 = ADVANCED_FACE('',(#142),#148,.F.);
#142 = FACE_BOUND('',#143,.T.);
#143 = EDGE_LOOP('',(#144,#145,#146,#147));
#144 = ORIENTED_EDGE('',*,*,#31,.F.);
#145 = ORIENTED_EDGE('',*,*,#101,.T.);
#146 = ORIENTED_EDGE('',*,*,#71,.T.);
#147 = ORIENTED_EDGE('',*,*,#123,.F.);
#148 = PLANE('',#149);
#149 = AXIS2_PLACEMENT_3D('',#150,#151,#152);
#150 = CARTESIAN_POINT('',(-1.1,1.,0.));
#151 = DIRECTION('',(-0.,-0.,1.));
#152 = DIRECTION('',(-1.,0.,0.));
#153 = ADVANCED_FACE('',(#154),#160,.T.);
#154 = FACE_BOUND('',#155,.F.);
#155 = EDGE_LOOP('',(#156,#157,#158,#159));
#156 = ORIENTED_EDGE('',*,*,#47,.F.);
#157 = ORIENTED_EDGE('',*,*,#108,.T.);
#158 = ORIENTED_EDGE('',*,*,#87,.T.);
#159 = ORIENTED_EDGE('',*,*,#130,.F.);
#160 = PLANE('',#161);
#161 = AXIS2_PLACEMENT_3D('',#162,#163,#164);
#162 = CARTESIAN_POINT('',(-1.1,1.,0.28));
#163 = DIRECTION('',(-0.,-0.,1.));
#164 = DIRECTION('',(-1.,0.,0.));
#165 = MANIFOLD_SOLID_BREP('',#166);
#166 = CLOSED_SHELL('',(#167,#207,#238,#273,#297,#314,#326,#351));
#167 = ADVANCED_FACE('',(#168),#202,.F.);
#168 = FACE_BOUND('',#169,.T.);
#169 = EDGE_LOOP('',(#170,#180,#188,#196));
#170 = ORIENTED_EDGE('',*,*,#171,.F.);
#171 = EDGE_CURVE('',#172,#174,#176,.T.);
#172 = VERTEX_POINT('',#173);
#173 = CARTESIAN_POINT('',(-0.725,0.65,0.28));
#174 = VERTEX_POINT('',#175);
#175 = CARTESIAN_POINT('',(-0.725,0.65,0.84));
#176 = LINE('',#177,#178);
#177 = CARTESIAN_POINT('',(-0.725,0.65,0.28));
#178 = VECTOR('',#179,1.);
#179 = DIRECTION('',(-0.,-0.,1.));
#180 = ORIENTED_EDGE('',*,*,#181,.T.);
#181 = EDGE_CURVE('',#172,#182,#184,.T.);
#182 = VERTEX_POINT('',#183);
#183 = CARTESIAN_POINT('',(-0.725,-0.65,0.28));
#184 = LINE('',#185,#186);
#185 = CARTESIAN_POINT('',(-0.725,0.65,0.28));
#186 = VECTOR('',#187,1.);
#187 = DIRECTION('',(-0.,-1.,-0.));
#188 = ORIENTED_EDGE('',*,*,#189,.T.);
#189 = EDGE_CURVE('',#182,#190,#192,.T.);
#190 = VERTEX_POINT('',#191);
#191 = CARTESIAN_POINT('',(-0.725,-0.65,0.84));
#192 = LINE('',#193,#194);
#193 = CARTESIAN_POINT('',(-0.725,-0.65,0.28));
#194 = VECTOR('',#195,1.);
#195 = DIRECTION('',(-0.,-0.,1.));
#196 = ORIENTED_EDGE('',*,*,#197,.F.);
#197 = EDGE_CURVE('',#174,#190,#198,.T.);
#198 = LINE('',#199,#200);
#199 = CARTESIAN_POINT('',(-0.725,0.65,0.84));
#200 = VECTOR('',#201,1.);
#201 = DIRECTION('',(-0.,-1.,-0.));
#202 = PLANE('',#203);
#203 = AXIS2_PLACEMENT_3D('',#204,#205,#206);
#204 = CARTESIAN_POINT('',(-0.725,0.65,0.28));
#205 = DIRECTION('',(1.,-0.,-0.));
#206 = DIRECTION('',(0.,0.,-1.));
#207 = ADVANCED_FACE('',(#208),#233,.F.);
#208 = FACE_BOUND('',#209,.T.);
#209 = EDGE_LOOP('',(#210,#218,#219,#227));
#210 = ORIENTED_EDGE('',*,*,#211,.F.);
#211 = EDGE_CURVE('',#172,#212,#214,.T.);
#212 = VERTEX_POINT('',#213);
#213 = CARTESIAN_POINT('',(0.725,0.65,0.28));
#214 = LINE('',#215,#216);
#215 = CARTESIAN_POINT('',(-0.725,0.65,0.28));
#216 = VECTOR('',#217,1.);
#217 = DIRECTION('',(1.,-0.,-0.));
#218 = ORIENTED_EDGE('',*,*,#171,.T.);
#219 = ORIENTED_EDGE('',*,*,#220,.T.);
#220 = EDGE_CURVE('',#174,#221,#223,.T.);
#221 = VERTEX_POINT('',#222);
#222 = CARTESIAN_POINT('',(0.725,0.65,0.84));
#223 = LINE('',#224,#225);
#224 = CARTESIAN_POINT('',(-0.725,0.65,0.84));
#225 = VECTOR('',#226,1.);
#226 = DIRECTION('',(1.,-0.,-0.));
#227 = ORIENTED_EDGE('',*,*,#228,.F.);
#228 = EDGE_CURVE('',#212,#221,#229,.T.);
#229 = LINE('',#230,#231);
#230 = CARTESIAN_POINT('',(0.725,0.65,0.28));
#231 = VECTOR('',#232,1.);
#232 = DIRECTION('',(-0.,-0.,1.));
#233 = PLANE('',#234);
#234 = AXIS2_PLACEMENT_3D('',#235,#236,#237);
#235 = CARTESIAN_POINT('',(-0.725,0.65,0.28));
#236 = DIRECTION('',(-0.,-1.,-0.));
#237 = DIRECTION('',(0.,0.,-1.));
#238 = ADVANCED_FACE('',(#239,#257),#268,.T.);
#239 = FACE_BOUND('',#240,.F.);
#240 = EDGE_LOOP('',(#241,#242,#243,#251));
#241 = ORIENTED_EDGE('',*,*,#197,.F.);
#242 = ORIENTED_EDGE('',*,*,#220,.T.);
#243 = ORIENTED_EDGE('',*,*,#244,.T.);
#244 = EDGE_CURVE('',#221,#245,#247,.T.);
#245 = VERTEX_POINT('',#246);
#246 = CARTESIAN_POINT('',(0.725,-0.65,0.84));
#247 = LINE('',#248,#249);
#248 = CARTESIAN_POINT('',(0.725,0.65,0.84));
#249 = VECTOR('',#250,1.);
#250 = DIRECTION('',(-0.,-1.,-0.));
#251 = ORIENTED_EDGE('',*,*,#252,.F.);
#252 = EDGE_CURVE('',#190,#245,#253,.T.);
#253 = LINE('',#254,#255);
#254 = CARTESIAN_POINT('',(-0.725,-0.65,0.84));
#255 = VECTOR('',#256,1.);
#256 = DIRECTION('',(1.,-0.,-0.));
#257 = FACE_BOUND('',#258,.F.);
#258 = EDGE_LOOP('',(#259));
#259 = ORIENTED_EDGE('',*,*,#260,.F.);
#260 = EDGE_CURVE('',#261,#261,#263,.T.);
#261 = VERTEX_POINT('',#262);
#262 = CARTESIAN_POINT('',(-0.295,0.35,0.84));
#263 = CIRCLE('',#264,0.13);
#264 = AXIS2_PLACEMENT_3D('',#265,#266,#267);
#265 = CARTESIAN_POINT('',(-0.425,0.35,0.84));
#266 = DIRECTION('',(0.,0.,-1.));
#267 = DIRECTION('',(1.,-0.,-0.));
#268 = PLANE('',#269);
#269 = AXIS2_PLACEMENT_3D('',#270,#271,#272);
#270 = CARTESIAN_POINT('',(-0.725,0.65,0.84));
#271 = DIRECTION('',(-0.,-0.,1.));
#272 = DIRECTION('',(-1.,0.,0.));
#273 = ADVANCED_FACE('',(#274),#292,.T.);
#274 = FACE_BOUND('',#275,.F.);
#275 = EDGE_LOOP('',(#276,#284,#285,#286));
#276 = ORIENTED_EDGE('',*,*,#277,.F.);
#277 = EDGE_CURVE('',#182,#278,#280,.T.);
#278 = VERTEX_POINT('',#279);
#279 = CARTESIAN_POINT('',(0.725,-0.65,0.28));
#280 = LINE('',#281,#282);
#281 = CARTESIAN_POINT('',(-0.725,-0.65,0.28));
#282 = VECTOR('',#283,1.);
#283 = DIRECTION('',(1.,-0.,-0.));
#284 = ORIENTED_EDGE('',*,*,#189,.T.);
#285 = ORIENTED_EDGE('',*,*,#252,.T.);
#286 = ORIENTED_EDGE('',*,*,#287,.F.);
#287 = EDGE_CURVE('',#278,#245,#288,.T.);
#288 = LINE('',#289,#290);
#289 = CARTESIAN_POINT('',(0.725,-0.65,0.28));
#290 = VECTOR('',#291,1.);
#291 = DIRECTION('',(-0.,-0.,1.));
#292 = PLANE('',#293);
#293 = AXIS2_PLACEMENT_3D('',#294,#295,#296);
#294 = CARTESIAN_POINT('',(-0.725,-0.65,0.28));
#295 = DIRECTION('',(-0.,-1.,-0.));
#296 = DIRECTION('',(0.,0.,-1.));
#297 = ADVANCED_FACE('',(#298),#309,.F.);
#298 = FACE_BOUND('',#299,.T.);
#299 = EDGE_LOOP('',(#300,#301,#302,#308));
#300 = ORIENTED_EDGE('',*,*,#181,.F.);
#301 = ORIENTED_EDGE('',*,*,#211,.T.);
#302 = ORIENTED_EDGE('',*,*,#303,.T.);
#303 = EDGE_CURVE('',#212,#278,#304,.T.);
#304 = LINE('',#305,#306);
#305 = CARTESIAN_POINT('',(0.725,0.65,0.28));
#306 = VECTOR('',#307,1.);
#307 = DIRECTION('',(-0.,-1.,-0.));
#308 = ORIENTED_EDGE('',*,*,#277,.F.);
#309 = PLANE('',#310);
#310 = AXIS2_PLACEMENT_3D('',#311,#312,#313);
#311 = CARTESIAN_POINT('',(-0.725,0.65,0.28));
#312 = DIRECTION('',(-0.,-0.,1.));
#313 = DIRECTION('',(-1.,0.,0.));
#314 = ADVANCED_FACE('',(#315),#321,.T.);
#315 = FACE_BOUND('',#316,.F.);
#316 = EDGE_LOOP('',(#317,#318,#319,#320));
#317 = ORIENTED_EDGE('',*,*,#228,.F.);
#318 = ORIENTED_EDGE('',*,*,#303,.T.);
#319 = ORIENTED_EDGE('',*,*,#287,.T.);
#320 = ORIENTED_EDGE('',*,*,#244,.F.);
#321 = PLANE('',#322);
#322 = AXIS2_PLACEMENT_3D('',#323,#324,#325);
#323 = CARTESIAN_POINT('',(0.725,0.65,0.28));
#324 = DIRECTION('',(1.,-0.,-0.));
#325 = DIRECTION('',(0.,0.,-1.));
#326 = ADVANCED_FACE('',(#327),#346,.F.);
#327 = FACE_BOUND('',#328,.T.);
#328 = EDGE_LOOP('',(#329,#330,#338,#345));
#329 = ORIENTED_EDGE('',*,*,#260,.F.);
#330 = ORIENTED_EDGE('',*,*,#331,.F.);
#331 = EDGE_CURVE('',#332,#261,#334,.T.);
#332 = VERTEX_POINT('',#333);
#333 = CARTESIAN_POINT('',(-0.295,0.35,0.79));
#334 = LINE('',#335,#336);
#335 = CARTESIAN_POINT('',(-0.295,0.35,0.79));
#336 = VECTOR('',#337,1.);
#337 = DIRECTION('',(-0.,-0.,1.));
#338 = ORIENTED_EDGE('',*,*,#339,.T.);
#339 = EDGE_CURVE('',#332,#332,#340,.T.);
#340 = CIRCLE('',#341,0.13);
#341 = AXIS2_PLACEMENT_3D('',#342,#343,#344);
#342 = CARTESIAN_POINT('',(-0.425,0.35,0.79));
#343 = DIRECTION('',(0.,0.,-1.));
#344 = DIRECTION('',(1.,-0.,-0.));
#345 = ORIENTED_EDGE('',*,*,#331,.T.);
#346 = CYLINDRICAL_SURFACE('',#347,0.13);
#347 = AXIS2_PLACEMENT_3D('',#348,#349,#350);
#348 = CARTESIAN_POINT('',(-0.425,0.35,0.79));
#349 = DIRECTION('',(-0.,-0.,1.));
#350 = DIRECTION('',(1.,-0.,-0.));
#351 = ADVANCED_FACE('',(#352),#355,.T.);
#352 = FACE_BOUND('',#353,.T.);
#353 = EDGE_LOOP('',(#354));
#354 = ORIENTED_EDGE('',*,*,#339,.F.);
#355 = PLANE('',#356);
#356 = AXIS2_PLACEMENT_3D('',#357,#358,#359);
#357 = CARTESIAN_POINT('',(-0.425,0.35,0.79));
#358 = DIRECTION('',(-0.,-0.,1.));
#359 = DIRECTION('',(-1.,0.,0.));
#360 = MANIFOLD_SOLID_BREP('',#361);
#361 = CLOSED_SHELL('',(#362,#402,#442,#464,#486,#498));
#362 = ADVANCED_FACE('',(#363),#397,.F.);
#363 = FACE_BOUND('',#364,.T.);
#364 = EDGE_LOOP('',(#365,#375,#383,#391));
#365 = ORIENTED_EDGE('',*,*,#366,.F.);
#366 = EDGE_CURVE('',#367,#369,#371,.T.);
#367 = VERTEX_POINT('',#368);
#368 = CARTESIAN_POINT('',(-1.265,0.9,0.));
#369 = VERTEX_POINT('',#370);
#370 = CARTESIAN_POINT('',(-1.265,0.9,5.E-02));
#371 = LINE('',#372,#373);
#372 = CARTESIAN_POINT('',(-1.265,0.9,0.));
#373 = VECTOR('',#374,1.);
#374 = DIRECTION('',(-0.,-0.,1.));
#375 = ORIENTED_EDGE('',*,*,#376,.T.);
#376 = EDGE_CURVE('',#367,#377,#379,.T.);
#377 = VERTEX_POINT('',#378);
#378 = CARTESIAN_POINT('',(-1.265,0.2,0.));
#379 = LINE('',#380,#381);
#380 = CARTESIAN_POINT('',(-1.265,0.9,0.));
#381 = VECTOR('',#382,1.);
#382 = DIRECTION('',(-0.,-1.,-0.));
#383 = ORIENTED_EDGE('',*,*,#384,.T.);
#384 = EDGE_CURVE('',#377,#385,#387,.T.);
#385 = VERTEX_POINT('',#386);
#386 = CARTESIAN_POINT('',(-1.265,0.2,5.E-02));
#387 = LINE('',#388,#389);
#388 = CARTESIAN_POINT('',(-1.265,0.2,0.));
#389 = VECTOR('',#390,1.);
#390 = DIRECTION('',(-0.,-0.,1.));
#391 = ORIENTED_EDGE('',*,*,#392,.F.);
#392 = EDGE_CURVE('',#369,#385,#393,.T.);
#393 = LINE('',#394,#395);
#394 = CARTESIAN_POINT('',(-1.265,0.9,5.E-02));
#395 = VECTOR('',#396,1.);
#396 = DIRECTION('',(-0.,-1.,-0.));
#397 = PLANE('',#398);
#398 = AXIS2_PLACEMENT_3D('',#399,#400,#401);
#399 = CARTESIAN_POINT('',(-1.265,0.9,0.));
#400 = DIRECTION('',(1.,-0.,-0.));
#401 = DIRECTION('',(0.,0.,-1.));
#402 = ADVANCED_FACE('',(#403),#437,.T.);
#403 = FACE_BOUND('',#404,.F.);
#404 = EDGE_LOOP('',(#405,#415,#423,#431));
#405 = ORIENTED_EDGE('',*,*,#406,.F.);
#406 = EDGE_CURVE('',#407,#409,#411,.T.);
#407 = VERTEX_POINT('',#408);
#408 = CARTESIAN_POINT('',(-0.565,0.9,0.));
#409 = VERTEX_POINT('',#410);
#410 = CARTESIAN_POINT('',(-0.565,0.9,5.E-02));
#411 = LINE('',#412,#413);
#412 = CARTESIAN_POINT('',(-0.565,0.9,0.));
#413 = VECTOR('',#414,1.);
#414 = DIRECTION('',(-0.,-0.,1.));
#415 = ORIENTED_EDGE('',*,*,#416,.T.);
#416 = EDGE_CURVE('',#407,#417,#419,.T.);
#417 = VERTEX_POINT('',#418);
#418 = CARTESIAN_POINT('',(-0.565,0.2,0.));
#419 = LINE('',#420,#421);
#420 = CARTESIAN_POINT('',(-0.565,0.9,0.));
#421 = VECTOR('',#422,1.);
#422 = DIRECTION('',(-0.,-1.,-0.));
#423 = ORIENTED_EDGE('',*,*,#424,.T.);
#424 = EDGE_CURVE('',#417,#425,#427,.T.);
#425 = VERTEX_POINT('',#426);
#426 = CARTESIAN_POINT('',(-0.565,0.2,5.E-02));
#427 = LINE('',#428,#429);
#428 = CARTESIAN_POINT('',(-0.565,0.2,0.));
#429 = VECTOR('',#430,1.);
#430 = DIRECTION('',(-0.,-0.,1.));
#431 = ORIENTED_EDGE('',*,*,#432,.F.);
#432 = EDGE_CURVE('',#409,#425,#433,.T.);
#433 = LINE('',#434,#435);
#434 = CARTESIAN_POINT('',(-0.565,0.9,5.E-02));
#435 = VECTOR('',#436,1.);
#436 = DIRECTION('',(-0.,-1.,-0.));
#437 = PLANE('',#438);
#438 = AXIS2_PLACEMENT_3D('',#439,#440,#441);
#439 = CARTESIAN_POINT('',(-0.565,0.9,0.));
#440 = DIRECTION('',(1.,-0.,-0.));
#441 = DIRECTION('',(0.,0.,-1.));
#442 = ADVANCED_FACE('',(#443),#459,.F.);
#443 = FACE_BOUND('',#444,.T.);
#444 = EDGE_LOOP('',(#445,#451,#452,#458));
#445 = ORIENTED_EDGE('',*,*,#446,.F.);
#446 = EDGE_CURVE('',#367,#407,#447,.T.);
#447 = LINE('',#448,#449);
#448 = CARTESIAN_POINT('',(-1.265,0.9,0.));
#449 = VECTOR('',#450,1.);
#450 = DIRECTION('',(1.,-0.,-0.));
#451 = ORIENTED_EDGE('',*,*,#366,.T.);
#452 = ORIENTED_EDGE('',*,*,#453,.T.);
#453 = EDGE_CURVE('',#369,#409,#454,.T.);
#454 = LINE('',#455,#456);
#455 = CARTESIAN_POINT('',(-1.265,0.9,5.E-02));
#456 = VECTOR('',#457,1.);
#457 = DIRECTION('',(1.,-0.,-0.));
#458 = ORIENTED_EDGE('',*,*,#406,.F.);
#459 = PLANE('',#460);
#460 = AXIS2_PLACEMENT_3D('',#461,#462,#463);
#461 = CARTESIAN_POINT('',(-1.265,0.9,0.));
#462 = DIRECTION('',(-0.,-1.,-0.));
#463 = DIRECTION('',(0.,0.,-1.));
#464 = ADVANCED_FACE('',(#465),#481,.T.);
#465 = FACE_BOUND('',#466,.F.);
#466 = EDGE_LOOP('',(#467,#473,#474,#480));
#467 = ORIENTED_EDGE('',*,*,#468,.F.);
#468 = EDGE_CURVE('',#377,#417,#469,.T.);
#469 = LINE('',#470,#471);
#470 = CARTESIAN_POINT('',(-1.265,0.2,0.));
#471 = VECTOR('',#472,1.);
#472 = DIRECTION('',(1.,-0.,-0.));
#473 = ORIENTED_EDGE('',*,*,#384,.T.);
#474 = ORIENTED_EDGE('',*,*,#475,.T.);
#475 = EDGE_CURVE('',#385,#425,#476,.T.);
#476 = LINE('',#477,#478);
#477 = CARTESIAN_POINT('',(-1.265,0.2,5.E-02));
#478 = VECTOR('',#479,1.);
#479 = DIRECTION('',(1.,-0.,-0.));
#480 = ORIENTED_EDGE('',*,*,#424,.F.);
#481 = PLANE('',#482);
#482 = AXIS2_PLACEMENT_3D('',#483,#484,#485);
#483 = CARTESIAN_POINT('',(-1.265,0.2,0.));
#484 = DIRECTION('',(-0.,-1.,-0.));
#485 = DIRECTION('',(0.,0.,-1.));
#486 = ADVANCED_FACE('',(#487),#493,.F.);
#487 = FACE_BOUND('',#488,.T.);
#488 = EDGE_LOOP('',(#489,#490,#491,#492));
#489 = ORIENTED_EDGE('',*,*,#376,.F.);
#490 = ORIENTED_EDGE('',*,*,#446,.T.);
#491 = ORIENTED_EDGE('',*,*,#416,.T.);
#492 = ORIENTED_EDGE('',*,*,#468,.F.);
#493 = PLANE('',#494);
#494 = AXIS2_PLACEMENT_3D('',#495,#496,#497);
#495 = CARTESIAN_POINT('',(-1.265,0.9,0.));
#496 = DIRECTION('',(-0.,-0.,1.));
#497 = DIRECTION('',(-1.,0.,0.));
#498 = ADVANCED_FACE('',(#499),#505,.T.);
#499 = FACE_BOUND('',#500,.F.);
#500 = EDGE_LOOP('',(#501,#502,#503,#504));
#501 = ORIENTED_EDGE('',*,*,#392,.F.);
#502 = ORIENTED_EDGE('',*,*,#453,.T.);
#503 = ORIENTED_EDGE('',*,*,#432,.T.);
#504 = ORIENTED_EDGE('',*,*,#475,.F.);
#505 = PLANE('',#506);
#506 = AXIS2_PLACEMENT_3D('',#507,#508,#509);
#507 = CARTESIAN_POINT('',(-1.265,0.9,5.E-02));
#508 = DIRECTION('',(-0.,-0.,1.));
#509 = DIRECTION('',(-1.,0.,0.));
#510 = MANIFOLD_SOLID_BREP('',#511);
#511 = CLOSED_SHELL('',(#512,#552,#592,#614,#636,#648));
#512 = ADVANCED_FACE('',(#513),#547,.F.);
#513 = FACE_BOUND('',#514,.T.);
#514 = EDGE_LOOP('',(#515,#525,#533,#541));
#515 = ORIENTED_EDGE('',*,*,#516,.F.);
#516 = EDGE_CURVE('',#517,#519,#521,.T.);
#517 = VERTEX_POINT('',#518);
#518 = CARTESIAN_POINT('',(-1.265,-0.2,0.));
#519 = VERTEX_POINT('',#520);
#520 = CARTESIAN_POINT('',(-1.265,-0.2,5.E-02));
#521 = LINE('',#522,#523);
#522 = CARTESIAN_POINT('',(-1.265,-0.2,0.));
#523 = VECTOR('',#524,1.);
#524 = DIRECTION('',(-0.,-0.,1.));
#525 = ORIENTED_EDGE('',*,*,#526,.T.);
#526 = EDGE_CURVE('',#517,#527,#529,.T.);
#527 = VERTEX_POINT('',#528);
#528 = CARTESIAN_POINT('',(-1.265,-0.9,0.));
#529 = LINE('',#530,#531);
#530 = CARTESIAN_POINT('',(-1.265,-0.2,0.));
#531 = VECTOR('',#532,1.);
#532 = DIRECTION('',(-0.,-1.,-0.));
#533 = ORIENTED_EDGE('',*,*,#534,.T.);
#534 = EDGE_CURVE('',#527,#535,#537,.T.);
#535 = VERTEX_POINT('',#536);
#536 = CARTESIAN_POINT('',(-1.265,-0.9,5.E-02));
#537 = LINE('',#538,#539);
#538 = CARTESIAN_POINT('',(-1.265,-0.9,0.));
#539 = VECTOR('',#540,1.);
#540 = DIRECTION('',(-0.,-0.,1.));
#541 = ORIENTED_EDGE('',*,*,#542,.F.);
#542 = EDGE_CURVE('',#519,#535,#543,.T.);
#543 = LINE('',#544,#545);
#544 = CARTESIAN_POINT('',(-1.265,-0.2,5.E-02));
#545 = VECTOR('',#546,1.);
#546 = DIRECTION('',(-0.,-1.,-0.));
#547 = PLANE('',#548);
#548 = AXIS2_PLACEMENT_3D('',#549,#550,#551);
#549 = CARTESIAN_POINT('',(-1.265,-0.2,0.));
#550 = DIRECTION('',(1.,-0.,-0.));
#551 = DIRECTION('',(0.,0.,-1.));
#552 = ADVANCED_FACE('',(#553),#587,.T.);
#553 = FACE_BOUND('',#554,.F.);
#554 = EDGE_LOOP('',(#555,#565,#573,#581));
#555 = ORIENTED_EDGE('',*,*,#556,.F.);
#556 = EDGE_CURVE('',#557,#559,#561,.T.);
#557 = VERTEX_POINT('',#558);
#558 = CARTESIAN_POINT('',(-0.565,-0.2,0.));
#559 = VERTEX_POINT('',#560);
#560 = CARTESIAN_POINT('',(-0.565,-0.2,5.E-02));
#561 = LINE('',#562,#563);
#562 = CARTESIAN_POINT('',(-0.565,-0.2,0.));
#563 = VECTOR('',#564,1.);
#564 = DIRECTION('',(-0.,-0.,1.));
#565 = ORIENTED_EDGE('',*,*,#566,.T.);
#566 = EDGE_CURVE('',#557,#567,#569,.T.);
#567 = VERTEX_POINT('',#568);
#568 = CARTESIAN_POINT('',(-0.565,-0.9,0.));
#569 = LINE('',#570,#571);
#570 = CARTESIAN_POINT('',(-0.565,-0.2,0.));
#571 = VECTOR('',#572,1.);
#572 = DIRECTION('',(-0.,-1.,-0.));
#573 = ORIENTED_EDGE('',*,*,#574,.T.);
#574 = EDGE_CURVE('',#567,#575,#577,.T.);
#575 = VERTEX_POINT('',#576);
#576 = CARTESIAN_POINT('',(-0.565,-0.9,5.E-02));
#577 = LINE('',#578,#579);
#578 = CARTESIAN_POINT('',(-0.565,-0.9,0.));
#579 = VECTOR('',#580,1.);
#580 = DIRECTION('',(-0.,-0.,1.));
#581 = ORIENTED_EDGE('',*,*,#582,.F.);
#582 = EDGE_CURVE('',#559,#575,#583,.T.);
#583 = LINE('',#584,#585);
#584 = CARTESIAN_POINT('',(-0.565,-0.2,5.E-02));
#585 = VECTOR('',#586,1.);
#586 = DIRECTION('',(-0.,-1.,-0.));
#587 = PLANE('',#588);
#588 = AXIS2_PLACEMENT_3D('',#589,#590,#591);
#589 = CARTESIAN_POINT('',(-0.565,-0.2,0.));
#590 = DIRECTION('',(1.,-0.,-0.));
#591 = DIRECTION('',(0.,0.,-1.));
#592 = ADVANCED_FACE('',(#593),#609,.F.);
#593 = FACE_BOUND('',#594,.T.);
#594 = EDGE_LOOP('',(#595,#601,#602,#608));
#595 = ORIENTED_EDGE('',*,*,#596,.F.);
#596 = EDGE_CURVE('',#517,#557,#597,.T.);
#597 = LINE('',#598,#599);
#598 = CARTESIAN_POINT('',(-1.265,-0.2,0.));
#599 = VECTOR('',#600,1.);
#600 = DIRECTION('',(1.,-0.,-0.));
#601 = ORIENTED_EDGE('',*,*,#516,.T.);
#602 = ORIENTED_EDGE('',*,*,#603,.T.);
#603 = EDGE_CURVE('',#519,#559,#604,.T.);
#604 = LINE('',#605,#606);
#605 = CARTESIAN_POINT('',(-1.265,-0.2,5.E-02));
#606 = VECTOR('',#607,1.);
#607 = DIRECTION('',(1.,-0.,-0.));
#608 = ORIENTED_EDGE('',*,*,#556,.F.);
#609 = PLANE('',#610);
#610 = AXIS2_PLACEMENT_3D('',#611,#612,#613);
#611 = CARTESIAN_POINT('',(-1.265,-0.2,0.));
#612 = DIRECTION('',(-0.,-1.,-0.));
#613 = DIRECTION('',(0.,0.,-1.));
#614 = ADVANCED_FACE('',(#615),#631,.T.);
#615 = FACE_BOUND('',#616,.F.);
#616 = EDGE_LOOP('',(#617,#623,#624,#630));
#617 = ORIENTED_EDGE('',*,*,#618,.F.);
#618 = EDGE_CURVE('',#527,#567,#619,.T.);
#619 = LINE('',#620,#621);
#620 = CARTESIAN_POINT('',(-1.265,-0.9,0.));
#621 = VECTOR('',#622,1.);
#622 = DIRECTION('',(1.,-0.,-0.));
#623 = ORIENTED_EDGE('',*,*,#534,.T.);
#624 = ORIENTED_EDGE('',*,*,#625,.T.);
#625 = EDGE_CURVE('',#535,#575,#626,.T.);
#626 = LINE('',#627,#628);
#627 = CARTESIAN_POINT('',(-1.265,-0.9,5.E-02));
#628 = VECTOR('',#629,1.);
#629 = DIRECTION('',(1.,-0.,-0.));
#630 = ORIENTED_EDGE('',*,*,#574,.F.);
#631 = PLANE('',#632);
#632 = AXIS2_PLACEMENT_3D('',#633,#634,#635);
#633 = CARTESIAN_POINT('',(-1.265,-0.9,0.));
#634 = DIRECTION('',(-0.,-1.,-0.));
#635 = DIRECTION('',(0.,0.,-1.));
#636 = ADVANCED_FACE('',(#637),#643,.F.);
#637 = FACE_BOUND('',#638,.T.);
#638 = EDGE_LOOP('',(#639,#640,#641,#642));
#639 = ORIENTED_EDGE('',*,*,#526,.F.);
#640 = ORIENTED_EDGE('',*,*,#596,.T.);
#641 = ORIENTED_EDGE('',*,*,#566,.T.);
#642 = ORIENTED_EDGE('',*,*,#618,.F.);
#643 = PLANE('',#644);
#644 = AXIS2_PLACEMENT_3D('',#645,#646,#647);
#645 = CARTESIAN_POINT('',(-1.265,-0.2,0.));
#646 = DIRECTION('',(-0.,-0.,1.));
#647 = DIRECTION('',(-1.,0.,0.));
#648 = ADVANCED_FACE('',(#649),#655,.T.);
#649 = FACE_BOUND('',#650,.F.);
#650 = EDGE_LOOP('',(#651,#652,#653,#654));
#651 = ORIENTED_EDGE('',*,*,#542,.F.);
#652 = ORIENTED_EDGE('',*,*,#603,.T.);
#653 = ORIENTED_EDGE('',*,*,#582,.T.);
#654 = ORIENTED_EDGE('',*,*,#625,.F.);
#655 = PLANE('',#656);
#656 = AXIS2_PLACEMENT_3D('',#657,#658,#659);
#657 = CARTESIAN_POINT('',(-1.265,-0.2,5.E-02));
#658 = DIRECTION('',(-0.,-0.,1.));
#659 = DIRECTION('',(-1.,0.,0.));
#660 = MANIFOLD_SOLID_BREP('',#661);
#661 = CLOSED_SHELL('',(#662,#702,#742,#764,#786,#798));
#662 = ADVANCED_FACE('',(#663),#697,.F.);
#663 = FACE_BOUND('',#664,.T.);
#664 = EDGE_LOOP('',(#665,#675,#683,#691));
#665 = ORIENTED_EDGE('',*,*,#666,.F.);
#666 = EDGE_CURVE('',#667,#669,#671,.T.);
#667 = VERTEX_POINT('',#668);
#668 = CARTESIAN_POINT('',(0.565,-0.2,0.));
#669 = VERTEX_POINT('',#670);
#670 = CARTESIAN_POINT('',(0.565,-0.2,5.E-02));
#671 = LINE('',#672,#673);
#672 = CARTESIAN_POINT('',(0.565,-0.2,0.));
#673 = VECTOR('',#674,1.);
#674 = DIRECTION('',(-0.,-0.,1.));
#675 = ORIENTED_EDGE('',*,*,#676,.T.);
#676 = EDGE_CURVE('',#667,#677,#679,.T.);
#677 = VERTEX_POINT('',#678);
#678 = CARTESIAN_POINT('',(0.565,-0.9,0.));
#679 = LINE('',#680,#681);
#680 = CARTESIAN_POINT('',(0.565,-0.2,0.));
#681 = VECTOR('',#682,1.);
#682 = DIRECTION('',(-0.,-1.,-0.));
#683 = ORIENTED_EDGE('',*,*,#684,.T.);
#684 = EDGE_CURVE('',#677,#685,#687,.T.);
#685 = VERTEX_POINT('',#686);
#686 = CARTESIAN_POINT('',(0.565,-0.9,5.E-02));
#687 = LINE('',#688,#689);
#688 = CARTESIAN_POINT('',(0.565,-0.9,0.));
#689 = VECTOR('',#690,1.);
#690 = DIRECTION('',(-0.,-0.,1.));
#691 = ORIENTED_EDGE('',*,*,#692,.F.);
#692 = EDGE_CURVE('',#669,#685,#693,.T.);
#693 = LINE('',#694,#695);
#694 = CARTESIAN_POINT('',(0.565,-0.2,5.E-02));
#695 = VECTOR('',#696,1.);
#696 = DIRECTION('',(-0.,-1.,-0.));
#697 = PLANE('',#698);
#698 = AXIS2_PLACEMENT_3D('',#699,#700,#701);
#699 = CARTESIAN_POINT('',(0.565,-0.2,0.));
#700 = DIRECTION('',(1.,-0.,-0.));
#701 = DIRECTION('',(0.,0.,-1.));
#702 = ADVANCED_FACE('',(#703),#737,.T.);
#703 = FACE_BOUND('',#704,.F.);
#704 = EDGE_LOOP('',(#705,#715,#723,#731));
#705 = ORIENTED_EDGE('',*,*,#706,.F.);
#706 = EDGE_CURVE('',#707,#709,#711,.T.);
#707 = VERTEX_POINT('',#708);
#708 = CARTESIAN_POINT('',(1.265,-0.2,0.));
#709 = VERTEX_POINT('',#710);
#710 = CARTESIAN_POINT('',(1.265,-0.2,5.E-02));
#711 = LINE('',#712,#713);
#712 = CARTESIAN_POINT('',(1.265,-0.2,0.));
#713 = VECTOR('',#714,1.);
#714 = DIRECTION('',(-0.,-0.,1.));
#715 = ORIENTED_EDGE('',*,*,#716,.T.);
#716 = EDGE_CURVE('',#707,#717,#719,.T.);
#717 = VERTEX_POINT('',#718);
#718 = CARTESIAN_POINT('',(1.265,-0.9,0.));
#719 = LINE('',#720,#721);
#720 = CARTESIAN_POINT('',(1.265,-0.2,0.));
#721 = VECTOR('',#722,1.);
#722 = DIRECTION('',(-0.,-1.,-0.));
#723 = ORIENTED_EDGE('',*,*,#724,.T.);
#724 = EDGE_CURVE('',#717,#725,#727,.T.);
#725 = VERTEX_POINT('',#726);
#726 = CARTESIAN_POINT('',(1.265,-0.9,5.E-02));
#727 = LINE('',#728,#729);
#728 = CARTESIAN_POINT('',(1.265,-0.9,0.));
#729 = VECTOR('',#730,1.);
#730 = DIRECTION('',(-0.,-0.,1.));
#731 = ORIENTED_EDGE('',*,*,#732,.F.);
#732 = EDGE_CURVE('',#709,#725,#733,.T.);
#733 = LINE('',#734,#735);
#734 = CARTESIAN_POINT('',(1.265,-0.2,5.E-02));
#735 = VECTOR('',#736,1.);
#736 = DIRECTION('',(-0.,-1.,-0.));
#737 = PLANE('',#738);
#738 = AXIS2_PLACEMENT_3D('',#739,#740,#741);
#739 = CARTESIAN_POINT('',(1.265,-0.2,0.));
#740 = DIRECTION('',(1.,-0.,-0.));
#741 = DIRECTION('',(0.,0.,-1.));
#742 = ADVANCED_FACE('',(#743),#759,.F.);
#743 = FACE_BOUND('',#744,.T.);
#744 = EDGE_LOOP('',(#745,#751,#752,#758));
#745 = ORIENTED_EDGE('',*,*,#746,.F.);
#746 = EDGE_CURVE('',#667,#707,#747,.T.);
#747 = LINE('',#748,#749);
#748 = CARTESIAN_POINT('',(0.565,-0.2,0.));
#749 = VECTOR('',#750,1.);
#750 = DIRECTION('',(1.,-0.,-0.));
#751 = ORIENTED_EDGE('',*,*,#666,.T.);
#752 = ORIENTED_EDGE('',*,*,#753,.T.);
#753 = EDGE_CURVE('',#669,#709,#754,.T.);
#754 = LINE('',#755,#756);
#755 = CARTESIAN_POINT('',(0.565,-0.2,5.E-02));
#756 = VECTOR('',#757,1.);
#757 = DIRECTION('',(1.,-0.,-0.));
#758 = ORIENTED_EDGE('',*,*,#706,.F.);
#759 = PLANE('',#760);
#760 = AXIS2_PLACEMENT_3D('',#761,#762,#763);
#761 = CARTESIAN_POINT('',(0.565,-0.2,0.));
#762 = DIRECTION('',(-0.,-1.,-0.));
#763 = DIRECTION('',(0.,0.,-1.));
#764 = ADVANCED_FACE('',(#765),#781,.T.);
#765 = FACE_BOUND('',#766,.F.);
#766 = EDGE_LOOP('',(#767,#773,#774,#780));
#767 = ORIENTED_EDGE('',*,*,#768,.F.);
#768 = EDGE_CURVE('',#677,#717,#769,.T.);
#769 = LINE('',#770,#771);
#770 = CARTESIAN_POINT('',(0.565,-0.9,0.));
#771 = VECTOR('',#772,1.);
#772 = DIRECTION('',(1.,-0.,-0.));
#773 = ORIENTED_EDGE('',*,*,#684,.T.);
#774 = ORIENTED_EDGE('',*,*,#775,.T.);
#775 = EDGE_CURVE('',#685,#725,#776,.T.);
#776 = LINE('',#777,#778);
#777 = CARTESIAN_POINT('',(0.565,-0.9,5.E-02));
#778 = VECTOR('',#779,1.);
#779 = DIRECTION('',(1.,-0.,-0.));
#780 = ORIENTED_EDGE('',*,*,#724,.F.);
#781 = PLANE('',#782);
#782 = AXIS2_PLACEMENT_3D('',#783,#784,#785);
#783 = CARTESIAN_POINT('',(0.565,-0.9,0.));
#784 = DIRECTION('',(-0.,-1.,-0.));
#785 = DIRECTION('',(0.,0.,-1.));
#786 = ADVANCED_FACE('',(#787),#793,.F.);
#787 = FACE_BOUND('',#788,.T.);
#788 = EDGE_LOOP('',(#789,#790,#791,#792));
#789 = ORIENTED_EDGE('',*,*,#676,.F.);
#790 = ORIENTED_EDGE('',*,*,#746,.T.);
#791 = ORIENTED_EDGE('',*,*,#716,.T.);
#792 = ORIENTED_EDGE('',*,*,#768,.F.);
#793 = PLANE('',#794);
#794 = AXIS2_PLACEMENT_3D('',#795,#796,#797);
#795 = CARTESIAN_POINT('',(0.565,-0.2,0.));
#796 = DIRECTION('',(-0.,-0.,1.));
#797 = DIRECTION('',(-1.,0.,0.));
#798 = ADVANCED_FACE('',(#799),#805,.T.);
#799 = FACE_BOUND('',#800,.F.);
#800 = EDGE_LOOP('',(#801,#802,#803,#804));
#801 = ORIENTED_EDGE('',*,*,#692,.F.);
#802 = ORIENTED_EDGE('',*,*,#753,.T.);
#803 = ORIENTED_EDGE('',*,*,#732,.T.);
#804 = ORIENTED_EDGE('',*,*,#775,.F.);
#805 = PLANE('',#806);
#806 = AXIS2_PLACEMENT_3D('',#807,#808,#809);
#807 = CARTESIAN_POINT('',(0.565,-0.2,5.E-02));
#808 = DIRECTION('',(-0.,-0.,1.));
#809 = DIRECTION('',(-1.,0.,0.));
#810 = MANIFOLD_SOLID_BREP('',#811);
#811 = CLOSED_SHELL('',(#812,#852,#892,#914,#936,#948));
#812 = ADVANCED_FACE('',(#813),#847,.F.);
#813 = FACE_BOUND('',#814,.T.);
#814 = EDGE_LOOP('',(#815,#825,#833,#841));
#815 = ORIENTED_EDGE('',*,*,#816,.F.);
#816 = EDGE_CURVE('',#817,#819,#821,.T.);
#817 = VERTEX_POINT('',#818);
#818 = CARTESIAN_POINT('',(0.565,0.9,0.));
#819 = VERTEX_POINT('',#820);
#820 = CARTESIAN_POINT('',(0.565,0.9,5.E-02));
#821 = LINE('',#822,#823);
#822 = CARTESIAN_POINT('',(0.565,0.9,0.));
#823 = VECTOR('',#824,1.);
#824 = DIRECTION('',(-0.,-0.,1.));
#825 = ORIENTED_EDGE('',*,*,#826,.T.);
#826 = EDGE_CURVE('',#817,#827,#829,.T.);
#827 = VERTEX_POINT('',#828);
#828 = CARTESIAN_POINT('',(0.565,0.2,0.));
#829 = LINE('',#830,#831);
#830 = CARTESIAN_POINT('',(0.565,0.9,0.));
#831 = VECTOR('',#832,1.);
#832 = DIRECTION('',(-0.,-1.,-0.));
#833 = ORIENTED_EDGE('',*,*,#834,.T.);
#834 = EDGE_CURVE('',#827,#835,#837,.T.);
#835 = VERTEX_POINT('',#836);
#836 = CARTESIAN_POINT('',(0.565,0.2,5.E-02));
#837 = LINE('',#838,#839);
#838 = CARTESIAN_POINT('',(0.565,0.2,0.));
#839 = VECTOR('',#840,1.);
#840 = DIRECTION('',(-0.,-0.,1.));
#841 = ORIENTED_EDGE('',*,*,#842,.F.);
#842 = EDGE_CURVE('',#819,#835,#843,.T.);
#843 = LINE('',#844,#845);
#844 = CARTESIAN_POINT('',(0.565,0.9,5.E-02));
#845 = VECTOR('',#846,1.);
#846 = DIRECTION('',(-0.,-1.,-0.));
#847 = PLANE('',#848);
#848 = AXIS2_PLACEMENT_3D('',#849,#850,#851);
#849 = CARTESIAN_POINT('',(0.565,0.9,0.));
#850 = DIRECTION('',(1.,-0.,-0.));
#851 = DIRECTION('',(0.,0.,-1.));
#852 = ADVANCED_FACE('',(#853),#887,.T.);
#853 = FACE_BOUND('',#854,.F.);
#854 = EDGE_LOOP('',(#855,#865,#873,#881));
#855 = ORIENTED_EDGE('',*,*,#856,.F.);
#856 = EDGE_CURVE('',#857,#859,#861,.T.);
#857 = VERTEX_POINT('',#858);
#858 = CARTESIAN_POINT('',(1.265,0.9,0.));
#859 = VERTEX_POINT('',#860);
#860 = CARTESIAN_POINT('',(1.265,0.9,5.E-02));
#861 = LINE('',#862,#863);
#862 = CARTESIAN_POINT('',(1.265,0.9,0.));
#863 = VECTOR('',#864,1.);
#864 = DIRECTION('',(-0.,-0.,1.));
#865 = ORIENTED_EDGE('',*,*,#866,.T.);
#866 = EDGE_CURVE('',#857,#867,#869,.T.);
#867 = VERTEX_POINT('',#868);
#868 = CARTESIAN_POINT('',(1.265,0.2,0.));
#869 = LINE('',#870,#871);
#870 = CARTESIAN_POINT('',(1.265,0.9,0.));
#871 = VECTOR('',#872,1.);
#872 = DIRECTION('',(-0.,-1.,-0.));
#873 = ORIENTED_EDGE('',*,*,#874,.T.);
#874 = EDGE_CURVE('',#867,#875,#877,.T.);
#875 = VERTEX_POINT('',#876);
#876 = CARTESIAN_POINT('',(1.265,0.2,5.E-02));
#877 = LINE('',#878,#879);
#878 = CARTESIAN_POINT('',(1.265,0.2,0.));
#879 = VECTOR('',#880,1.);
#880 = DIRECTION('',(-0.,-0.,1.));
#881 = ORIENTED_EDGE('',*,*,#882,.F.);
#882 = EDGE_CURVE('',#859,#875,#883,.T.);
#883 = LINE('',#884,#885);
#884 = CARTESIAN_POINT('',(1.265,0.9,5.E-02));
#885 = VECTOR('',#886,1.);
#886 = DIRECTION('',(-0.,-1.,-0.));
#887 = PLANE('',#888);
#888 = AXIS2_PLACEMENT_3D('',#889,#890,#891);
#889 = CARTESIAN_POINT('',(1.265,0.9,0.));
#890 = DIRECTION('',(1.,-0.,-0.));
#891 = DIRECTION('',(0.,0.,-1.));
#892 = ADVANCED_FACE('',(#893),#909,.F.);
#893 = FACE_BOUND('',#894,.T.);
#894 = EDGE_LOOP('',(#895,#901,#902,#908));
#895 = ORIENTED_EDGE('',*,*,#896,.F.);
#896 = EDGE_CURVE('',#817,#857,#897,.T.);
#897 = LINE('',#898,#899);
#898 = CARTESIAN_POINT('',(0.565,0.9,0.));
#899 = VECTOR('',#900,1.);
#900 = DIRECTION('',(1.,-0.,-0.));
#901 = ORIENTED_EDGE('',*,*,#816,.T.);
#902 = ORIENTED_EDGE('',*,*,#903,.T.);
#903 = EDGE_CURVE('',#819,#859,#904,.T.);
#904 = LINE('',#905,#906);
#905 = CARTESIAN_POINT('',(0.565,0.9,5.E-02));
#906 = VECTOR('',#907,1.);
#907 = DIRECTION('',(1.,-0.,-0.));
#908 = ORIENTED_EDGE('',*,*,#856,.F.);
#909 = PLANE('',#910);
#910 = AXIS2_PLACEMENT_3D('',#911,#912,#913);
#911 = CARTESIAN_POINT('',(0.565,0.9,0.));
#912 = DIRECTION('',(-0.,-1.,-0.));
#913 = DIRECTION('',(0.,0.,-1.));
#914 = ADVANCED_FACE('',(#915),#931,.T.);
#915 = FACE_BOUND('',#916,.F.);
#916 = EDGE_LOOP('',(#917,#923,#924,#930));
#917 = ORIENTED_EDGE('',*,*,#918,.F.);
#918 = EDGE_CURVE('',#827,#867,#919,.T.);
#919 = LINE('',#920,#921);
#920 = CARTESIAN_POINT('',(0.565,0.2,0.));
#921 = VECTOR('',#922,1.);
#922 = DIRECTION('',(1.,-0.,-0.));
#923 = ORIENTED_EDGE('',*,*,#834,.T.);
#924 = ORIENTED_EDGE('',*,*,#925,.T.);
#925 = EDGE_CURVE('',#835,#875,#926,.T.);
#926 = LINE('',#927,#928);
#927 = CARTESIAN_POINT('',(0.565,0.2,5.E-02));
#928 = VECTOR('',#929,1.);
#929 = DIRECTION('',(1.,-0.,-0.));
#930 = ORIENTED_EDGE('',*,*,#874,.F.);
#931 = PLANE('',#932);
#932 = AXIS2_PLACEMENT_3D('',#933,#934,#935);
#933 = CARTESIAN_POINT('',(0.565,0.2,0.));
#934 = DIRECTION('',(-0.,-1.,-0.));
#935 = DIRECTION('',(0.,0.,-1.));
#936 = ADVANCED_FACE('',(#937),#943,.F.);
#937 = FACE_BOUND('',#938,.T.);
#938 = EDGE_LOOP('',(#939,#940,#941,#942));
#939 = ORIENTED_EDGE('',*,*,#826,.F.);
#940 = ORIENTED_EDGE('',*,*,#896,.T.);
#941 = ORIENTED_EDGE('',*,*,#866,.T.);
#942 = ORIENTED_EDGE('',*,*,#918,.F.);
#943 = PLANE('',#944);
#944 = AXIS2_PLACEMENT_3D('',#945,#946,#947);
#945 = CARTESIAN_POINT('',(0.565,0.9,0.));
#946 = DIRECTION('',(-0.,-0.,1.));
#947 = DIRECTION('',(-1.,0.,0.));
#948 = ADVANCED_FACE('',(#949),#955,.T.);
#949 = FACE_BOUND('',#950,.F.);
#950 = EDGE_LOOP('',(#951,#952,#953,#954));
#951 = ORIENTED_EDGE('',*,*,#842,.F.);
#952 = ORIENTED_EDGE('',*,*,#903,.T.);
#953 = ORIENTED_EDGE('',*,*,#882,.T.);
#954 = ORIENTED_EDGE('',*,*,#925,.F.);
#955 = PLANE('',#956);
#956 = AXIS2_PLACEMENT_3D('',#957,#958,#959);
#957 = CARTESIAN_POINT('',(0.565,0.9,5.E-02));
#958 = DIRECTION('',(-0.,-0.,1.));
#959 = DIRECTION('',(-1.,0.,0.));
#960 = ( GEOMETRIC_REPRESENTATION_CONTEXT(3) 
GLOBAL_UNCERTAINTY_ASSIGNED_CONTEXT((#964)) GLOBAL_UNIT_ASSIGNED_CONTEXT
((#961,#962,#963)) REPRESENTATION_CONTEXT('Context #1',
  '3D Context with UNIT and UNCERTAINTY') );
#961 = ( LENGTH_UNIT() NAMED_UNIT(*) SI_UNIT(.MILLI.,.METRE.) );
#962 = ( NAMED_UNIT(*) PLANE_ANGLE_UNIT() SI_UNIT($,.RADIAN.) );
#963 = ( NAMED_UNIT(*) SI_UNIT($,.STERADIAN.) SOLID_ANGLE_UNIT() );
#964 = UNCERTAINTY_MEASURE_WITH_UNIT(LENGTH_MEASURE(1.E-07),#961,
  'distance_accuracy_value','confusion accuracy');
#965 = PRODUCT_RELATED_PRODUCT_CATEGORY('part',$,(#7));
ENDSEC;
END-ISO-10303-21;
