ISO-10303-21;
HEADER;
FILE_DESCRIPTION(('FreeCAD Model'),'2;1');
FILE_NAME('Open CASCADE Shape Model','2026-09-15T13:40:50',('FreeCAD'),(
    'FreeCAD'),'Open CASCADE STEP processor 7.8','FreeCAD','Unknown');
FILE_SCHEMA(('AUTOMOTIVE_DESIGN { 1 0 10303 214 1 1 1 1 }'));
ENDSEC;
DATA;
#1 = APPLICATION_PROTOCOL_DEFINITION('international standard',
  'automotive_design',2000,#2);
#2 = APPLICATION_CONTEXT(
  'core data for automotive mechanical design processes');
#3 = SHAPE_DEFINITION_REPRESENTATION(#4,#10);
#4 = PRODUCT_DEFINITION_SHAPE('','',#5);
#5 = PRODUCT_DEFINITION('design','',#6,#9);
#6 = PRODUCT_DEFINITION_FORMATION('','',#7);
#7 = PRODUCT('Open CASCADE STEP translator 7.8 1',
  'Open CASCADE STEP translator 7.8 1','',(#8));
#8 = PRODUCT_CONTEXT('',#2,'mechanical');
#9 = PRODUCT_DEFINITION_CONTEXT('part definition',#2,'design');
#10 = SHAPE_REPRESENTATION('',(#11,#15,#243,#393,#543,#693,#843,#993,
    #1143,#1293,#1443,#1593,#1743,#1893),#2043);
#11 = AXIS2_PLACEMENT_3D('',#12,#13,#14);
#12 = CARTESIAN_POINT('',(0.,0.,0.));
#13 = DIRECTION('',(0.,0.,1.));
#14 = DIRECTION('',(1.,0.,-0.));
#15 = MANIFOLD_SOLID_BREP('',#16);
#16 = CLOSED_SHELL('',(#17,#57,#88,#131,#155,#180,#197,#209,#234));
#17 = ADVANCED_FACE('',(#18),#52,.F.);
#18 = FACE_BOUND('',#19,.T.);
#19 = EDGE_LOOP('',(#20,#30,#38,#46));
#20 = ORIENTED_EDGE('',*,*,#21,.T.);
#21 = EDGE_CURVE('',#22,#24,#26,.T.);
#22 = VERTEX_POINT('',#23);
#23 = CARTESIAN_POINT('',(-1.,0.75,0.9));
#24 = VERTEX_POINT('',#25);
#25 = CARTESIAN_POINT('',(-1.,0.75,0.));
#26 = LINE('',#27,#28);
#27 = CARTESIAN_POINT('',(-1.,0.75,0.9));
#28 = VECTOR('',#29,1.);
#29 = DIRECTION('',(-0.,-0.,-1.));
#30 = ORIENTED_EDGE('',*,*,#31,.T.);
#31 = EDGE_CURVE('',#24,#32,#34,.T.);
#32 = VERTEX_POINT('',#33);
#33 = CARTESIAN_POINT('',(-1.,-1.25,0.));
#34 = LINE('',#35,#36);
#35 = CARTESIAN_POINT('',(-1.,1.25,0.));
#36 = VECTOR('',#37,1.);
#37 = DIRECTION('',(-0.,-1.,-0.));
#38 = ORIENTED_EDGE('',*,*,#39,.T.);
#39 = EDGE_CURVE('',#32,#40,#42,.T.);
#40 = VERTEX_POINT('',#41);
#41 = CARTESIAN_POINT('',(-1.,-1.25,0.9));
#42 = LINE('',#43,#44);
#43 = CARTESIAN_POINT('',(-1.,-1.25,0.));
#44 = VECTOR('',#45,1.);
#45 = DIRECTION('',(-0.,-0.,1.));
#46 = ORIENTED_EDGE('',*,*,#47,.F.);
#47 = EDGE_CURVE('',#22,#40,#48,.T.);
#48 = LINE('',#49,#50);
#49 = CARTESIAN_POINT('',(-1.,1.25,0.9));
#50 = VECTOR('',#51,1.);
#51 = DIRECTION('',(-0.,-1.,-0.));
#52 = PLANE('',#53);
#53 = AXIS2_PLACEMENT_3D('',#54,#55,#56);
#54 = CARTESIAN_POINT('',(-1.,1.25,0.));
#55 = DIRECTION('',(1.,-0.,-0.));
#56 = DIRECTION('',(0.,0.,-1.));
#57 = ADVANCED_FACE('',(#58),#83,.F.);
#58 = FACE_BOUND('',#59,.T.);
#59 = EDGE_LOOP('',(#60,#68,#76,#82));
#60 = ORIENTED_EDGE('',*,*,#61,.F.);
#61 = EDGE_CURVE('',#62,#22,#64,.T.);
#62 = VERTEX_POINT('',#63);
#63 = CARTESIAN_POINT('',(-0.5,1.25,0.9));
#64 = LINE('',#65,#66);
#65 = CARTESIAN_POINT('',(-0.5,1.25,0.9));
#66 = VECTOR('',#67,1.);
#67 = DIRECTION('',(-0.707106781187,-0.707106781187,-0.));
#68 = ORIENTED_EDGE('',*,*,#69,.T.);
#69 = EDGE_CURVE('',#62,#70,#72,.T.);
#70 = VERTEX_POINT('',#71);
#71 = CARTESIAN_POINT('',(-0.5,1.25,0.));
#72 = LINE('',#73,#74);
#73 = CARTESIAN_POINT('',(-0.5,1.25,0.9));
#74 = VECTOR('',#75,1.);
#75 = DIRECTION('',(-0.,-0.,-1.));
#76 = ORIENTED_EDGE('',*,*,#77,.T.);
#77 = EDGE_CURVE('',#70,#24,#78,.T.);
#78 = LINE('',#79,#80);
#79 = CARTESIAN_POINT('',(-0.625,1.125,-1.110223024625E-16));
#80 = VECTOR('',#81,1.);
#81 = DIRECTION('',(-0.707106781187,-0.707106781187,-0.));
#82 = ORIENTED_EDGE('',*,*,#21,.F.);
#83 = PLANE('',#84);
#84 = AXIS2_PLACEMENT_3D('',#85,#86,#87);
#85 = CARTESIAN_POINT('',(-0.5,1.25,0.9));
#86 = DIRECTION('',(0.707106781187,-0.707106781187,-0.));
#87 = DIRECTION('',(0.707106781187,0.707106781187,0.));
#88 = ADVANCED_FACE('',(#89,#115),#126,.T.);
#89 = FACE_BOUND('',#90,.F.);
#90 = EDGE_LOOP('',(#91,#92,#93,#101,#109));
#91 = ORIENTED_EDGE('',*,*,#47,.F.);
#92 = ORIENTED_EDGE('',*,*,#61,.F.);
#93 = ORIENTED_EDGE('',*,*,#94,.T.);
#94 = EDGE_CURVE('',#62,#95,#97,.T.);
#95 = VERTEX_POINT('',#96);
#96 = CARTESIAN_POINT('',(1.,1.25,0.9));
#97 = LINE('',#98,#99);
#98 = CARTESIAN_POINT('',(-1.,1.25,0.9));
#99 = VECTOR('',#100,1.);
#100 = DIRECTION('',(1.,-0.,-0.));
#101 = ORIENTED_EDGE('',*,*,#102,.T.);
#102 = EDGE_CURVE('',#95,#103,#105,.T.);
#103 = VERTEX_POINT('',#104);
#104 = CARTESIAN_POINT('',(1.,-1.25,0.9));
#105 = LINE('',#106,#107);
#106 = CARTESIAN_POINT('',(1.,1.25,0.9));
#107 = VECTOR('',#108,1.);
#108 = DIRECTION('',(-0.,-1.,-0.));
#109 = ORIENTED_EDGE('',*,*,#110,.F.);
#110 = EDGE_CURVE('',#40,#103,#111,.T.);
#111 = LINE('',#112,#113);
#112 = CARTESIAN_POINT('',(-1.,-1.25,0.9));
#113 = VECTOR('',#114,1.);
#114 = DIRECTION('',(1.,-0.,-0.));
#115 = FACE_BOUND('',#116,.F.);
#116 = EDGE_LOOP('',(#117));
#117 = ORIENTED_EDGE('',*,*,#118,.F.);
#118 = EDGE_CURVE('',#119,#119,#121,.T.);
#119 = VERTEX_POINT('',#120);
#120 = CARTESIAN_POINT('',(-0.48,0.85,0.9));
#121 = CIRCLE('',#122,0.12);
#122 = AXIS2_PLACEMENT_3D('',#123,#124,#125);
#123 = CARTESIAN_POINT('',(-0.6,0.85,0.9));
#124 = DIRECTION('',(0.,0.,-1.));
#125 = DIRECTION('',(1.,-0.,-0.));
#126 = PLANE('',#127);
#127 = AXIS2_PLACEMENT_3D('',#128,#129,#130);
#128 = CARTESIAN_POINT('',(-1.,1.25,0.9));
#129 = DIRECTION('',(-0.,-0.,1.));
#130 = DIRECTION('',(-1.,0.,0.));
#131 = ADVANCED_FACE('',(#132),#150,.T.);
#132 = FACE_BOUND('',#133,.F.);
#133 = EDGE_LOOP('',(#134,#142,#143,#144));
#134 = ORIENTED_EDGE('',*,*,#135,.F.);
#135 = EDGE_CURVE('',#32,#136,#138,.T.);
#136 = VERTEX_POINT('',#137);
#137 = CARTESIAN_POINT('',(1.,-1.25,0.));
#138 = LINE('',#139,#140);
#139 = CARTESIAN_POINT('',(-1.,-1.25,0.));
#140 = VECTOR('',#141,1.);
#141 = DIRECTION('',(1.,-0.,-0.));
#142 = ORIENTED_EDGE('',*,*,#39,.T.);
#143 = ORIENTED_EDGE('',*,*,#110,.T.);
#144 = ORIENTED_EDGE('',*,*,#145,.F.);
#145 = EDGE_CURVE('',#136,#103,#146,.T.);
#146 = LINE('',#147,#148);
#147 = CARTESIAN_POINT('',(1.,-1.25,0.));
#148 = VECTOR('',#149,1.);
#149 = DIRECTION('',(-0.,-0.,1.));
#150 = PLANE('',#151);
#151 = AXIS2_PLACEMENT_3D('',#152,#153,#154);
#152 = CARTESIAN_POINT('',(-1.,-1.25,0.));
#153 = DIRECTION('',(-0.,-1.,-0.));
#154 = DIRECTION('',(0.,0.,-1.));
#155 = ADVANCED_FACE('',(#156),#175,.F.);
#156 = FACE_BOUND('',#157,.T.);
#157 = EDGE_LOOP('',(#158,#159,#160,#168,#174));
#158 = ORIENTED_EDGE('',*,*,#31,.F.);
#159 = ORIENTED_EDGE('',*,*,#77,.F.);
#160 = ORIENTED_EDGE('',*,*,#161,.T.);
#161 = EDGE_CURVE('',#70,#162,#164,.T.);
#162 = VERTEX_POINT('',#163);
#163 = CARTESIAN_POINT('',(1.,1.25,0.));
#164 = LINE('',#165,#166);
#165 = CARTESIAN_POINT('',(-1.,1.25,0.));
#166 = VECTOR('',#167,1.);
#167 = DIRECTION('',(1.,-0.,-0.));
#168 = ORIENTED_EDGE('',*,*,#169,.T.);
#169 = EDGE_CURVE('',#162,#136,#170,.T.);
#170 = LINE('',#171,#172);
#171 = CARTESIAN_POINT('',(1.,1.25,0.));
#172 = VECTOR('',#173,1.);
#173 = DIRECTION('',(-0.,-1.,-0.));
#174 = ORIENTED_EDGE('',*,*,#135,.F.);
#175 = PLANE('',#176);
#176 = AXIS2_PLACEMENT_3D('',#177,#178,#179);
#177 = CARTESIAN_POINT('',(-1.,1.25,0.));
#178 = DIRECTION('',(-0.,-0.,1.));
#179 = DIRECTION('',(-1.,0.,0.));
#180 = ADVANCED_FACE('',(#181),#192,.F.);
#181 = FACE_BOUND('',#182,.T.);
#182 = EDGE_LOOP('',(#183,#184,#185,#186));
#183 = ORIENTED_EDGE('',*,*,#161,.F.);
#184 = ORIENTED_EDGE('',*,*,#69,.F.);
#185 = ORIENTED_EDGE('',*,*,#94,.T.);
#186 = ORIENTED_EDGE('',*,*,#187,.F.);
#187 = EDGE_CURVE('',#162,#95,#188,.T.);
#188 = LINE('',#189,#190);
#189 = CARTESIAN_POINT('',(1.,1.25,0.));
#190 = VECTOR('',#191,1.);
#191 = DIRECTION('',(-0.,-0.,1.));
#192 = PLANE('',#193);
#193 = AXIS2_PLACEMENT_3D('',#194,#195,#196);
#194 = CARTESIAN_POINT('',(-1.,1.25,0.));
#195 = DIRECTION('',(-0.,-1.,-0.));
#196 = DIRECTION('',(0.,0.,-1.));
#197 = ADVANCED_FACE('',(#198),#204,.T.);
#198 = FACE_BOUND('',#199,.F.);
#199 = EDGE_LOOP('',(#200,#201,#202,#203));
#200 = ORIENTED_EDGE('',*,*,#187,.F.);
#201 = ORIENTED_EDGE('',*,*,#169,.T.);
#202 = ORIENTED_EDGE('',*,*,#145,.T.);
#203 = ORIENTED_EDGE('',*,*,#102,.F.);
#204 = PLANE('',#205);
#205 = AXIS2_PLACEMENT_3D('',#206,#207,#208);
#206 = CARTESIAN_POINT('',(1.,1.25,0.));
#207 = DIRECTION('',(1.,-0.,-0.));
#208 = DIRECTION('',(0.,0.,-1.));
#209 = ADVANCED_FACE('',(#210),#229,.F.);
#210 = FACE_BOUND('',#211,.T.);
#211 = EDGE_LOOP('',(#212,#213,#221,#228));
#212 = ORIENTED_EDGE('',*,*,#118,.F.);
#213 = ORIENTED_EDGE('',*,*,#214,.F.);
#214 = EDGE_CURVE('',#215,#119,#217,.T.);
#215 = VERTEX_POINT('',#216);
#216 = CARTESIAN_POINT('',(-0.48,0.85,0.84));
#217 = LINE('',#218,#219);
#218 = CARTESIAN_POINT('',(-0.48,0.85,0.84));
#219 = VECTOR('',#220,1.);
#220 = DIRECTION('',(-0.,-0.,1.));
#221 = ORIENTED_EDGE('',*,*,#222,.T.);
#222 = EDGE_CURVE('',#215,#215,#223,.T.);
#223 = CIRCLE('',#224,0.12);
#224 = AXIS2_PLACEMENT_3D('',#225,#226,#227);
#225 = CARTESIAN_POINT('',(-0.6,0.85,0.84));
#226 = DIRECTION('',(0.,0.,-1.));
#227 = DIRECTION('',(1.,-0.,-0.));
#228 = ORIENTED_EDGE('',*,*,#214,.T.);
#229 = CYLINDRICAL_SURFACE('',#230,0.12);
#230 = AXIS2_PLACEMENT_3D('',#231,#232,#233);
#231 = CARTESIAN_POINT('',(-0.6,0.85,0.84));
#232 = DIRECTION('',(-0.,-0.,1.));
#233 = DIRECTION('',(1.,-0.,-0.));
#234 = ADVANCED_FACE('',(#235),#238,.T.);
#235 = FACE_BOUND('',#236,.T.);
#236 = EDGE_LOOP('',(#237));
#237 = ORIENTED_EDGE('',*,*,#222,.F.);
#238 = PLANE('',#239);
#239 = AXIS2_PLACEMENT_3D('',#240,#241,#242);
#240 = CARTESIAN_POINT('',(-0.6,0.85,0.84));
#241 = DIRECTION('',(-0.,-0.,1.));
#242 = DIRECTION('',(-1.,0.,0.));
#243 = MANIFOLD_SOLID_BREP('',#244);
#244 = CLOSED_SHELL('',(#245,#285,#325,#347,#369,#381));
#245 = ADVANCED_FACE('',(#246),#280,.F.);
#246 = FACE_BOUND('',#247,.T.);
#247 = EDGE_LOOP('',(#248,#258,#266,#274));
#248 = ORIENTED_EDGE('',*,*,#249,.F.);
#249 = EDGE_CURVE('',#250,#252,#254,.T.);
#250 = VERTEX_POINT('',#251);
#251 = CARTESIAN_POINT('',(-1.2,0.55,0.));
#252 = VERTEX_POINT('',#253);
#253 = CARTESIAN_POINT('',(-1.2,0.55,0.15));
#254 = LINE('',#255,#256);
#255 = CARTESIAN_POINT('',(-1.2,0.55,0.));
#256 = VECTOR('',#257,1.);
#257 = DIRECTION('',(-0.,-0.,1.));
#258 = ORIENTED_EDGE('',*,*,#259,.T.);
#259 = EDGE_CURVE('',#250,#260,#262,.T.);
#260 = VERTEX_POINT('',#261);
#261 = CARTESIAN_POINT('',(-1.2,0.15,0.));
#262 = LINE('',#263,#264);
#263 = CARTESIAN_POINT('',(-1.2,0.55,0.));
#264 = VECTOR('',#265,1.);
#265 = DIRECTION('',(-0.,-1.,-0.));
#266 = ORIENTED_EDGE('',*,*,#267,.T.);
#267 = EDGE_CURVE('',#260,#268,#270,.T.);
#268 = VERTEX_POINT('',#269);
#269 = CARTESIAN_POINT('',(-1.2,0.15,0.15));
#270 = LINE('',#271,#272);
#271 = CARTESIAN_POINT('',(-1.2,0.15,0.));
#272 = VECTOR('',#273,1.);
#273 = DIRECTION('',(-0.,-0.,1.));
#274 = ORIENTED_EDGE('',*,*,#275,.F.);
#275 = EDGE_CURVE('',#252,#268,#276,.T.);
#276 = LINE('',#277,#278);
#277 = CARTESIAN_POINT('',(-1.2,0.55,0.15));
#278 = VECTOR('',#279,1.);
#279 = DIRECTION('',(-0.,-1.,-0.));
#280 = PLANE('',#281);
#281 = AXIS2_PLACEMENT_3D('',#282,#283,#284);
#282 = CARTESIAN_POINT('',(-1.2,0.55,0.));
#283 = DIRECTION('',(1.,-0.,-0.));
#284 = DIRECTION('',(0.,0.,-1.));
#285 = ADVANCED_FACE('',(#286),#320,.T.);
#286 = FACE_BOUND('',#287,.F.);
#287 = EDGE_LOOP('',(#288,#298,#306,#314));
#288 = ORIENTED_EDGE('',*,*,#289,.F.);
#289 = EDGE_CURVE('',#290,#292,#294,.T.);
#290 = VERTEX_POINT('',#291);
#291 = CARTESIAN_POINT('',(-0.15,0.55,0.));
#292 = VERTEX_POINT('',#293);
#293 = CARTESIAN_POINT('',(-0.15,0.55,0.15));
#294 = LINE('',#295,#296);
#295 = CARTESIAN_POINT('',(-0.15,0.55,0.));
#296 = VECTOR('',#297,1.);
#297 = DIRECTION('',(-0.,-0.,1.));
#298 = ORIENTED_EDGE('',*,*,#299,.T.);
#299 = EDGE_CURVE('',#290,#300,#302,.T.);
#300 = VERTEX_POINT('',#301);
#301 = CARTESIAN_POINT('',(-0.15,0.15,0.));
#302 = LINE('',#303,#304);
#303 = CARTESIAN_POINT('',(-0.15,0.55,0.));
#304 = VECTOR('',#305,1.);
#305 = DIRECTION('',(-0.,-1.,-0.));
#306 = ORIENTED_EDGE('',*,*,#307,.T.);
#307 = EDGE_CURVE('',#300,#308,#310,.T.);
#308 = VERTEX_POINT('',#309);
#309 = CARTESIAN_POINT('',(-0.15,0.15,0.15));
#310 = LINE('',#311,#312);
#311 = CARTESIAN_POINT('',(-0.15,0.15,0.));
#312 = VECTOR('',#313,1.);
#313 = DIRECTION('',(-0.,-0.,1.));
#314 = ORIENTED_EDGE('',*,*,#315,.F.);
#315 = EDGE_CURVE('',#292,#308,#316,.T.);
#316 = LINE('',#317,#318);
#317 = CARTESIAN_POINT('',(-0.15,0.55,0.15));
#318 = VECTOR('',#319,1.);
#319 = DIRECTION('',(-0.,-1.,-0.));
#320 = PLANE('',#321);
#321 = AXIS2_PLACEMENT_3D('',#322,#323,#324);
#322 = CARTESIAN_POINT('',(-0.15,0.55,0.));
#323 = DIRECTION('',(1.,-0.,-0.));
#324 = DIRECTION('',(0.,0.,-1.));
#325 = ADVANCED_FACE('',(#326),#342,.F.);
#326 = FACE_BOUND('',#327,.T.);
#327 = EDGE_LOOP('',(#328,#334,#335,#341));
#328 = ORIENTED_EDGE('',*,*,#329,.F.);
#329 = EDGE_CURVE('',#250,#290,#330,.T.);
#330 = LINE('',#331,#332);
#331 = CARTESIAN_POINT('',(-1.2,0.55,0.));
#332 = VECTOR('',#333,1.);
#333 = DIRECTION('',(1.,-0.,-0.));
#334 = ORIENTED_EDGE('',*,*,#249,.T.);
#335 = ORIENTED_EDGE('',*,*,#336,.T.);
#336 = EDGE_CURVE('',#252,#292,#337,.T.);
#337 = LINE('',#338,#339);
#338 = CARTESIAN_POINT('',(-1.2,0.55,0.15));
#339 = VECTOR('',#340,1.);
#340 = DIRECTION('',(1.,-0.,-0.));
#341 = ORIENTED_EDGE('',*,*,#289,.F.);
#342 = PLANE('',#343);
#343 = AXIS2_PLACEMENT_3D('',#344,#345,#346);
#344 = CARTESIAN_POINT('',(-1.2,0.55,0.));
#345 = DIRECTION('',(-0.,-1.,-0.));
#346 = DIRECTION('',(0.,0.,-1.));
#347 = ADVANCED_FACE('',(#348),#364,.T.);
#348 = FACE_BOUND('',#349,.F.);
#349 = EDGE_LOOP('',(#350,#356,#357,#363));
#350 = ORIENTED_EDGE('',*,*,#351,.F.);
#351 = EDGE_CURVE('',#260,#300,#352,.T.);
#352 = LINE('',#353,#354);
#353 = CARTESIAN_POINT('',(-1.2,0.15,0.));
#354 = VECTOR('',#355,1.);
#355 = DIRECTION('',(1.,-0.,-0.));
#356 = ORIENTED_EDGE('',*,*,#267,.T.);
#357 = ORIENTED_EDGE('',*,*,#358,.T.);
#358 = EDGE_CURVE('',#268,#308,#359,.T.);
#359 = LINE('',#360,#361);
#360 = CARTESIAN_POINT('',(-1.2,0.15,0.15));
#361 = VECTOR('',#362,1.);
#362 = DIRECTION('',(1.,-0.,-0.));
#363 = ORIENTED_EDGE('',*,*,#307,.F.);
#364 = PLANE('',#365);
#365 = AXIS2_PLACEMENT_3D('',#366,#367,#368);
#366 = CARTESIAN_POINT('',(-1.2,0.15,0.));
#367 = DIRECTION('',(-0.,-1.,-0.));
#368 = DIRECTION('',(0.,0.,-1.));
#369 = ADVANCED_FACE('',(#370),#376,.F.);
#370 = FACE_BOUND('',#371,.T.);
#371 = EDGE_LOOP('',(#372,#373,#374,#375));
#372 = ORIENTED_EDGE('',*,*,#259,.F.);
#373 = ORIENTED_EDGE('',*,*,#329,.T.);
#374 = ORIENTED_EDGE('',*,*,#299,.T.);
#375 = ORIENTED_EDGE('',*,*,#351,.F.);
#376 = PLANE('',#377);
#377 = AXIS2_PLACEMENT_3D('',#378,#379,#380);
#378 = CARTESIAN_POINT('',(-1.2,0.55,0.));
#379 = DIRECTION('',(-0.,-0.,1.));
#380 = DIRECTION('',(-1.,0.,0.));
#381 = ADVANCED_FACE('',(#382),#388,.T.);
#382 = FACE_BOUND('',#383,.F.);
#383 = EDGE_LOOP('',(#384,#385,#386,#387));
#384 = ORIENTED_EDGE('',*,*,#275,.F.);
#385 = ORIENTED_EDGE('',*,*,#336,.T.);
#386 = ORIENTED_EDGE('',*,*,#315,.T.);
#387 = ORIENTED_EDGE('',*,*,#358,.F.);
#388 = PLANE('',#389);
#389 = AXIS2_PLACEMENT_3D('',#390,#391,#392);
#390 = CARTESIAN_POINT('',(-1.2,0.55,0.15));
#391 = DIRECTION('',(-0.,-0.,1.));
#392 = DIRECTION('',(-1.,0.,0.));
#393 = MANIFOLD_SOLID_BREP('',#394);
#394 = CLOSED_SHELL('',(#395,#435,#475,#497,#519,#531));
#395 = ADVANCED_FACE('',(#396),#430,.F.);
#396 = FACE_BOUND('',#397,.T.);
#397 = EDGE_LOOP('',(#398,#408,#416,#424));
#398 = ORIENTED_EDGE('',*,*,#399,.F.);
#399 = EDGE_CURVE('',#400,#402,#404,.T.);
#400 = VERTEX_POINT('',#401);
#401 = CARTESIAN_POINT('',(-1.2,-0.15,0.));
#402 = VERTEX_POINT('',#403);
#403 = CARTESIAN_POINT('',(-1.2,-0.15,0.15));
#404 = LINE('',#405,#406);
#405 = CARTESIAN_POINT('',(-1.2,-0.15,0.));
#406 = VECTOR('',#407,1.);
#407 = DIRECTION('',(-0.,-0.,1.));
#408 = ORIENTED_EDGE('',*,*,#409,.T.);
#409 = EDGE_CURVE('',#400,#410,#412,.T.);
#410 = VERTEX_POINT('',#411);
#411 = CARTESIAN_POINT('',(-1.2,-0.55,0.));
#412 = LINE('',#413,#414);
#413 = CARTESIAN_POINT('',(-1.2,-0.15,0.));
#414 = VECTOR('',#415,1.);
#415 = DIRECTION('',(-0.,-1.,-0.));
#416 = ORIENTED_EDGE('',*,*,#417,.T.);
#417 = EDGE_CURVE('',#410,#418,#420,.T.);
#418 = VERTEX_POINT('',#419);
#419 = CARTESIAN_POINT('',(-1.2,-0.55,0.15));
#420 = LINE('',#421,#422);
#421 = CARTESIAN_POINT('',(-1.2,-0.55,0.));
#422 = VECTOR('',#423,1.);
#423 = DIRECTION('',(-0.,-0.,1.));
#424 = ORIENTED_EDGE('',*,*,#425,.F.);
#425 = EDGE_CURVE('',#402,#418,#426,.T.);
#426 = LINE('',#427,#428);
#427 = CARTESIAN_POINT('',(-1.2,-0.15,0.15));
#428 = VECTOR('',#429,1.);
#429 = DIRECTION('',(-0.,-1.,-0.));
#430 = PLANE('',#431);
#431 = AXIS2_PLACEMENT_3D('',#432,#433,#434);
#432 = CARTESIAN_POINT('',(-1.2,-0.15,0.));
#433 = DIRECTION('',(1.,-0.,-0.));
#434 = DIRECTION('',(0.,0.,-1.));
#435 = ADVANCED_FACE('',(#436),#470,.T.);
#436 = FACE_BOUND('',#437,.F.);
#437 = EDGE_LOOP('',(#438,#448,#456,#464));
#438 = ORIENTED_EDGE('',*,*,#439,.F.);
#439 = EDGE_CURVE('',#440,#442,#444,.T.);
#440 = VERTEX_POINT('',#441);
#441 = CARTESIAN_POINT('',(-0.15,-0.15,0.));
#442 = VERTEX_POINT('',#443);
#443 = CARTESIAN_POINT('',(-0.15,-0.15,0.15));
#444 = LINE('',#445,#446);
#445 = CARTESIAN_POINT('',(-0.15,-0.15,0.));
#446 = VECTOR('',#447,1.);
#447 = DIRECTION('',(-0.,-0.,1.));
#448 = ORIENTED_EDGE('',*,*,#449,.T.);
#449 = EDGE_CURVE('',#440,#450,#452,.T.);
#450 = VERTEX_POINT('',#451);
#451 = CARTESIAN_POINT('',(-0.15,-0.55,0.));
#452 = LINE('',#453,#454);
#453 = CARTESIAN_POINT('',(-0.15,-0.15,0.));
#454 = VECTOR('',#455,1.);
#455 = DIRECTION('',(-0.,-1.,-0.));
#456 = ORIENTED_EDGE('',*,*,#457,.T.);
#457 = EDGE_CURVE('',#450,#458,#460,.T.);
#458 = VERTEX_POINT('',#459);
#459 = CARTESIAN_POINT('',(-0.15,-0.55,0.15));
#460 = LINE('',#461,#462);
#461 = CARTESIAN_POINT('',(-0.15,-0.55,0.));
#462 = VECTOR('',#463,1.);
#463 = DIRECTION('',(-0.,-0.,1.));
#464 = ORIENTED_EDGE('',*,*,#465,.F.);
#465 = EDGE_CURVE('',#442,#458,#466,.T.);
#466 = LINE('',#467,#468);
#467 = CARTESIAN_POINT('',(-0.15,-0.15,0.15));
#468 = VECTOR('',#469,1.);
#469 = DIRECTION('',(-0.,-1.,-0.));
#470 = PLANE('',#471);
#471 = AXIS2_PLACEMENT_3D('',#472,#473,#474);
#472 = CARTESIAN_POINT('',(-0.15,-0.15,0.));
#473 = DIRECTION('',(1.,-0.,-0.));
#474 = DIRECTION('',(0.,0.,-1.));
#475 = ADVANCED_FACE('',(#476),#492,.F.);
#476 = FACE_BOUND('',#477,.T.);
#477 = EDGE_LOOP('',(#478,#484,#485,#491));
#478 = ORIENTED_EDGE('',*,*,#479,.F.);
#479 = EDGE_CURVE('',#400,#440,#480,.T.);
#480 = LINE('',#481,#482);
#481 = CARTESIAN_POINT('',(-1.2,-0.15,0.));
#482 = VECTOR('',#483,1.);
#483 = DIRECTION('',(1.,-0.,-0.));
#484 = ORIENTED_EDGE('',*,*,#399,.T.);
#485 = ORIENTED_EDGE('',*,*,#486,.T.);
#486 = EDGE_CURVE('',#402,#442,#487,.T.);
#487 = LINE('',#488,#489);
#488 = CARTESIAN_POINT('',(-1.2,-0.15,0.15));
#489 = VECTOR('',#490,1.);
#490 = DIRECTION('',(1.,-0.,-0.));
#491 = ORIENTED_EDGE('',*,*,#439,.F.);
#492 = PLANE('',#493);
#493 = AXIS2_PLACEMENT_3D('',#494,#495,#496);
#494 = CARTESIAN_POINT('',(-1.2,-0.15,0.));
#495 = DIRECTION('',(-0.,-1.,-0.));
#496 = DIRECTION('',(0.,0.,-1.));
#497 = ADVANCED_FACE('',(#498),#514,.T.);
#498 = FACE_BOUND('',#499,.F.);
#499 = EDGE_LOOP('',(#500,#506,#507,#513));
#500 = ORIENTED_EDGE('',*,*,#501,.F.);
#501 = EDGE_CURVE('',#410,#450,#502,.T.);
#502 = LINE('',#503,#504);
#503 = CARTESIAN_POINT('',(-1.2,-0.55,0.));
#504 = VECTOR('',#505,1.);
#505 = DIRECTION('',(1.,-0.,-0.));
#506 = ORIENTED_EDGE('',*,*,#417,.T.);
#507 = ORIENTED_EDGE('',*,*,#508,.T.);
#508 = EDGE_CURVE('',#418,#458,#509,.T.);
#509 = LINE('',#510,#511);
#510 = CARTESIAN_POINT('',(-1.2,-0.55,0.15));
#511 = VECTOR('',#512,1.);
#512 = DIRECTION('',(1.,-0.,-0.));
#513 = ORIENTED_EDGE('',*,*,#457,.F.);
#514 = PLANE('',#515);
#515 = AXIS2_PLACEMENT_3D('',#516,#517,#518);
#516 = CARTESIAN_POINT('',(-1.2,-0.55,0.));
#517 = DIRECTION('',(-0.,-1.,-0.));
#518 = DIRECTION('',(0.,0.,-1.));
#519 = ADVANCED_FACE('',(#520),#526,.F.);
#520 = FACE_BOUND('',#521,.T.);
#521 = EDGE_LOOP('',(#522,#523,#524,#525));
#522 = ORIENTED_EDGE('',*,*,#409,.F.);
#523 = ORIENTED_EDGE('',*,*,#479,.T.);
#524 = ORIENTED_EDGE('',*,*,#449,.T.);
#525 = ORIENTED_EDGE('',*,*,#501,.F.);
#526 = PLANE('',#527);
#527 = AXIS2_PLACEMENT_3D('',#528,#529,#530);
#528 = CARTESIAN_POINT('',(-1.2,-0.15,0.));
#529 = DIRECTION('',(-0.,-0.,1.));
#530 = DIRECTION('',(-1.,0.,0.));
#531 = ADVANCED_FACE('',(#532),#538,.T.);
#532 = FACE_BOUND('',#533,.F.);
#533 = EDGE_LOOP('',(#534,#535,#536,#537));
#534 = ORIENTED_EDGE('',*,*,#425,.F.);
#535 = ORIENTED_EDGE('',*,*,#486,.T.);
#536 = ORIENTED_EDGE('',*,*,#465,.T.);
#537 = ORIENTED_EDGE('',*,*,#508,.F.);
#538 = PLANE('',#539);
#539 = AXIS2_PLACEMENT_3D('',#540,#541,#542);
#540 = CARTESIAN_POINT('',(-1.2,-0.15,0.15));
#541 = DIRECTION('',(-0.,-0.,1.));
#542 = DIRECTION('',(-1.,0.,0.));
#543 = MANIFOLD_SOLID_BREP('',#544);
#544 = CLOSED_SHELL('',(#545,#585,#625,#647,#669,#681));
#545 = ADVANCED_FACE('',(#546),#580,.F.);
#546 = FACE_BOUND('',#547,.T.);
#547 = EDGE_LOOP('',(#548,#558,#566,#574));
#548 = ORIENTED_EDGE('',*,*,#549,.F.);
#549 = EDGE_CURVE('',#550,#552,#554,.T.);
#550 = VERTEX_POINT('',#551);
#551 = CARTESIAN_POINT('',(-0.85,-0.85,0.));
#552 = VERTEX_POINT('',#553);
#553 = CARTESIAN_POINT('',(-0.85,-0.85,0.15));
#554 = LINE('',#555,#556);
#555 = CARTESIAN_POINT('',(-0.85,-0.85,0.));
#556 = VECTOR('',#557,1.);
#557 = DIRECTION('',(-0.,-0.,1.));
#558 = ORIENTED_EDGE('',*,*,#559,.T.);
#559 = EDGE_CURVE('',#550,#560,#562,.T.);
#560 = VERTEX_POINT('',#561);
#561 = CARTESIAN_POINT('',(-0.85,-1.45,0.));
#562 = LINE('',#563,#564);
#563 = CARTESIAN_POINT('',(-0.85,-0.85,0.));
#564 = VECTOR('',#565,1.);
#565 = DIRECTION('',(-0.,-1.,-0.));
#566 = ORIENTED_EDGE('',*,*,#567,.T.);
#567 = EDGE_CURVE('',#560,#568,#570,.T.);
#568 = VERTEX_POINT('',#569);
#569 = CARTESIAN_POINT('',(-0.85,-1.45,0.15));
#570 = LINE('',#571,#572);
#571 = CARTESIAN_POINT('',(-0.85,-1.45,0.));
#572 = VECTOR('',#573,1.);
#573 = DIRECTION('',(-0.,-0.,1.));
#574 = ORIENTED_EDGE('',*,*,#575,.F.);
#575 = EDGE_CURVE('',#552,#568,#576,.T.);
#576 = LINE('',#577,#578);
#577 = CARTESIAN_POINT('',(-0.85,-0.85,0.15));
#578 = VECTOR('',#579,1.);
#579 = DIRECTION('',(-0.,-1.,-0.));
#580 = PLANE('',#581);
#581 = AXIS2_PLACEMENT_3D('',#582,#583,#584);
#582 = CARTESIAN_POINT('',(-0.85,-0.85,0.));
#583 = DIRECTION('',(1.,-0.,-0.));
#584 = DIRECTION('',(0.,0.,-1.));
#585 = ADVANCED_FACE('',(#586),#620,.T.);
#586 = FACE_BOUND('',#587,.F.);
#587 = EDGE_LOOP('',(#588,#598,#606,#614));
#588 = ORIENTED_EDGE('',*,*,#589,.F.);
#589 = EDGE_CURVE('',#590,#592,#594,.T.);
#590 = VERTEX_POINT('',#591);
#591 = CARTESIAN_POINT('',(-0.65,-0.85,0.));
#592 = VERTEX_POINT('',#593);
#593 = CARTESIAN_POINT('',(-0.65,-0.85,0.15));
#594 = LINE('',#595,#596);
#595 = CARTESIAN_POINT('',(-0.65,-0.85,0.));
#596 = VECTOR('',#597,1.);
#597 = DIRECTION('',(-0.,-0.,1.));
#598 = ORIENTED_EDGE('',*,*,#599,.T.);
#599 = EDGE_CURVE('',#590,#600,#602,.T.);
#600 = VERTEX_POINT('',#601);
#601 = CARTESIAN_POINT('',(-0.65,-1.45,0.));
#602 = LINE('',#603,#604);
#603 = CARTESIAN_POINT('',(-0.65,-0.85,0.));
#604 = VECTOR('',#605,1.);
#605 = DIRECTION('',(-0.,-1.,-0.));
#606 = ORIENTED_EDGE('',*,*,#607,.T.);
#607 = EDGE_CURVE('',#600,#608,#610,.T.);
#608 = VERTEX_POINT('',#609);
#609 = CARTESIAN_POINT('',(-0.65,-1.45,0.15));
#610 = LINE('',#611,#612);
#611 = CARTESIAN_POINT('',(-0.65,-1.45,0.));
#612 = VECTOR('',#613,1.);
#613 = DIRECTION('',(-0.,-0.,1.));
#614 = ORIENTED_EDGE('',*,*,#615,.F.);
#615 = EDGE_CURVE('',#592,#608,#616,.T.);
#616 = LINE('',#617,#618);
#617 = CARTESIAN_POINT('',(-0.65,-0.85,0.15));
#618 = VECTOR('',#619,1.);
#619 = DIRECTION('',(-0.,-1.,-0.));
#620 = PLANE('',#621);
#621 = AXIS2_PLACEMENT_3D('',#622,#623,#624);
#622 = CARTESIAN_POINT('',(-0.65,-0.85,0.));
#623 = DIRECTION('',(1.,-0.,-0.));
#624 = DIRECTION('',(0.,0.,-1.));
#625 = ADVANCED_FACE('',(#626),#642,.F.);
#626 = FACE_BOUND('',#627,.T.);
#627 = EDGE_LOOP('',(#628,#634,#635,#641));
#628 = ORIENTED_EDGE('',*,*,#629,.F.);
#629 = EDGE_CURVE('',#550,#590,#630,.T.);
#630 = LINE('',#631,#632);
#631 = CARTESIAN_POINT('',(-0.85,-0.85,0.));
#632 = VECTOR('',#633,1.);
#633 = DIRECTION('',(1.,-0.,-0.));
#634 = ORIENTED_EDGE('',*,*,#549,.T.);
#635 = ORIENTED_EDGE('',*,*,#636,.T.);
#636 = EDGE_CURVE('',#552,#592,#637,.T.);
#637 = LINE('',#638,#639);
#638 = CARTESIAN_POINT('',(-0.85,-0.85,0.15));
#639 = VECTOR('',#640,1.);
#640 = DIRECTION('',(1.,-0.,-0.));
#641 = ORIENTED_EDGE('',*,*,#589,.F.);
#642 = PLANE('',#643);
#643 = AXIS2_PLACEMENT_3D('',#644,#645,#646);
#644 = CARTESIAN_POINT('',(-0.85,-0.85,0.));
#645 = DIRECTION('',(-0.,-1.,-0.));
#646 = DIRECTION('',(0.,0.,-1.));
#647 = ADVANCED_FACE('',(#648),#664,.T.);
#648 = FACE_BOUND('',#649,.F.);
#649 = EDGE_LOOP('',(#650,#656,#657,#663));
#650 = ORIENTED_EDGE('',*,*,#651,.F.);
#651 = EDGE_CURVE('',#560,#600,#652,.T.);
#652 = LINE('',#653,#654);
#653 = CARTESIAN_POINT('',(-0.85,-1.45,0.));
#654 = VECTOR('',#655,1.);
#655 = DIRECTION('',(1.,-0.,-0.));
#656 = ORIENTED_EDGE('',*,*,#567,.T.);
#657 = ORIENTED_EDGE('',*,*,#658,.T.);
#658 = EDGE_CURVE('',#568,#608,#659,.T.);
#659 = LINE('',#660,#661);
#660 = CARTESIAN_POINT('',(-0.85,-1.45,0.15));
#661 = VECTOR('',#662,1.);
#662 = DIRECTION('',(1.,-0.,-0.));
#663 = ORIENTED_EDGE('',*,*,#607,.F.);
#664 = PLANE('',#665);
#665 = AXIS2_PLACEMENT_3D('',#666,#667,#668);
#666 = CARTESIAN_POINT('',(-0.85,-1.45,0.));
#667 = DIRECTION('',(-0.,-1.,-0.));
#668 = DIRECTION('',(0.,0.,-1.));
#669 = ADVANCED_FACE('',(#670),#676,.F.);
#670 = FACE_BOUND('',#671,.T.);
#671 = EDGE_LOOP('',(#672,#673,#674,#675));
#672 = ORIENTED_EDGE('',*,*,#559,.F.);
#673 = ORIENTED_EDGE('',*,*,#629,.T.);
#674 = ORIENTED_EDGE('',*,*,#599,.T.);
#675 = ORIENTED_EDGE('',*,*,#651,.F.);
#676 = PLANE('',#677);
#677 = AXIS2_PLACEMENT_3D('',#678,#679,#680);
#678 = CARTESIAN_POINT('',(-0.85,-0.85,0.));
#679 = DIRECTION('',(-0.,-0.,1.));
#680 = DIRECTION('',(-1.,0.,0.));
#681 = ADVANCED_FACE('',(#682),#688,.T.);
#682 = FACE_BOUND('',#683,.F.);
#683 = EDGE_LOOP('',(#684,#685,#686,#687));
#684 = ORIENTED_EDGE('',*,*,#575,.F.);
#685 = ORIENTED_EDGE('',*,*,#636,.T.);
#686 = ORIENTED_EDGE('',*,*,#615,.T.);
#687 = ORIENTED_EDGE('',*,*,#658,.F.);
#688 = PLANE('',#689);
#689 = AXIS2_PLACEMENT_3D('',#690,#691,#692);
#690 = CARTESIAN_POINT('',(-0.85,-0.85,0.15));
#691 = DIRECTION('',(-0.,-0.,1.));
#692 = DIRECTION('',(-1.,0.,0.));
#693 = MANIFOLD_SOLID_BREP('',#694);
#694 = CLOSED_SHELL('',(#695,#735,#775,#797,#819,#831));
#695 = ADVANCED_FACE('',(#696),#730,.F.);
#696 = FACE_BOUND('',#697,.T.);
#697 = EDGE_LOOP('',(#698,#708,#716,#724));
#698 = ORIENTED_EDGE('',*,*,#699,.F.);
#699 = EDGE_CURVE('',#700,#702,#704,.T.);
#700 = VERTEX_POINT('',#701);
#701 = CARTESIAN_POINT('',(-0.35,-0.85,0.));
#702 = VERTEX_POINT('',#703);
#703 = CARTESIAN_POINT('',(-0.35,-0.85,0.15));
#704 = LINE('',#705,#706);
#705 = CARTESIAN_POINT('',(-0.35,-0.85,0.));
#706 = VECTOR('',#707,1.);
#707 = DIRECTION('',(-0.,-0.,1.));
#708 = ORIENTED_EDGE('',*,*,#709,.T.);
#709 = EDGE_CURVE('',#700,#710,#712,.T.);
#710 = VERTEX_POINT('',#711);
#711 = CARTESIAN_POINT('',(-0.35,-1.45,0.));
#712 = LINE('',#713,#714);
#713 = CARTESIAN_POINT('',(-0.35,-0.85,0.));
#714 = VECTOR('',#715,1.);
#715 = DIRECTION('',(-0.,-1.,-0.));
#716 = ORIENTED_EDGE('',*,*,#717,.T.);
#717 = EDGE_CURVE('',#710,#718,#720,.T.);
#718 = VERTEX_POINT('',#719);
#719 = CARTESIAN_POINT('',(-0.35,-1.45,0.15));
#720 = LINE('',#721,#722);
#721 = CARTESIAN_POINT('',(-0.35,-1.45,0.));
#722 = VECTOR('',#723,1.);
#723 = DIRECTION('',(-0.,-0.,1.));
#724 = ORIENTED_EDGE('',*,*,#725,.F.);
#725 = EDGE_CURVE('',#702,#718,#726,.T.);
#726 = LINE('',#727,#728);
#727 = CARTESIAN_POINT('',(-0.35,-0.85,0.15));
#728 = VECTOR('',#729,1.);
#729 = DIRECTION('',(-0.,-1.,-0.));
#730 = PLANE('',#731);
#731 = AXIS2_PLACEMENT_3D('',#732,#733,#734);
#732 = CARTESIAN_POINT('',(-0.35,-0.85,0.));
#733 = DIRECTION('',(1.,-0.,-0.));
#734 = DIRECTION('',(0.,0.,-1.));
#735 = ADVANCED_FACE('',(#736),#770,.T.);
#736 = FACE_BOUND('',#737,.F.);
#737 = EDGE_LOOP('',(#738,#748,#756,#764));
#738 = ORIENTED_EDGE('',*,*,#739,.F.);
#739 = EDGE_CURVE('',#740,#742,#744,.T.);
#740 = VERTEX_POINT('',#741);
#741 = CARTESIAN_POINT('',(-0.15,-0.85,0.));
#742 = VERTEX_POINT('',#743);
#743 = CARTESIAN_POINT('',(-0.15,-0.85,0.15));
#744 = LINE('',#745,#746);
#745 = CARTESIAN_POINT('',(-0.15,-0.85,0.));
#746 = VECTOR('',#747,1.);
#747 = DIRECTION('',(-0.,-0.,1.));
#748 = ORIENTED_EDGE('',*,*,#749,.T.);
#749 = EDGE_CURVE('',#740,#750,#752,.T.);
#750 = VERTEX_POINT('',#751);
#751 = CARTESIAN_POINT('',(-0.15,-1.45,0.));
#752 = LINE('',#753,#754);
#753 = CARTESIAN_POINT('',(-0.15,-0.85,0.));
#754 = VECTOR('',#755,1.);
#755 = DIRECTION('',(-0.,-1.,-0.));
#756 = ORIENTED_EDGE('',*,*,#757,.T.);
#757 = EDGE_CURVE('',#750,#758,#760,.T.);
#758 = VERTEX_POINT('',#759);
#759 = CARTESIAN_POINT('',(-0.15,-1.45,0.15));
#760 = LINE('',#761,#762);
#761 = CARTESIAN_POINT('',(-0.15,-1.45,0.));
#762 = VECTOR('',#763,1.);
#763 = DIRECTION('',(-0.,-0.,1.));
#764 = ORIENTED_EDGE('',*,*,#765,.F.);
#765 = EDGE_CURVE('',#742,#758,#766,.T.);
#766 = LINE('',#767,#768);
#767 = CARTESIAN_POINT('',(-0.15,-0.85,0.15));
#768 = VECTOR('',#769,1.);
#769 = DIRECTION('',(-0.,-1.,-0.));
#770 = PLANE('',#771);
#771 = AXIS2_PLACEMENT_3D('',#772,#773,#774);
#772 = CARTESIAN_POINT('',(-0.15,-0.85,0.));
#773 = DIRECTION('',(1.,-0.,-0.));
#774 = DIRECTION('',(0.,0.,-1.));
#775 = ADVANCED_FACE('',(#776),#792,.F.);
#776 = FACE_BOUND('',#777,.T.);
#777 = EDGE_LOOP('',(#778,#784,#785,#791));
#778 = ORIENTED_EDGE('',*,*,#779,.F.);
#779 = EDGE_CURVE('',#700,#740,#780,.T.);
#780 = LINE('',#781,#782);
#781 = CARTESIAN_POINT('',(-0.35,-0.85,0.));
#782 = VECTOR('',#783,1.);
#783 = DIRECTION('',(1.,-0.,-0.));
#784 = ORIENTED_EDGE('',*,*,#699,.T.);
#785 = ORIENTED_EDGE('',*,*,#786,.T.);
#786 = EDGE_CURVE('',#702,#742,#787,.T.);
#787 = LINE('',#788,#789);
#788 = CARTESIAN_POINT('',(-0.35,-0.85,0.15));
#789 = VECTOR('',#790,1.);
#790 = DIRECTION('',(1.,-0.,-0.));
#791 = ORIENTED_EDGE('',*,*,#739,.F.);
#792 = PLANE('',#793);
#793 = AXIS2_PLACEMENT_3D('',#794,#795,#796);
#794 = CARTESIAN_POINT('',(-0.35,-0.85,0.));
#795 = DIRECTION('',(-0.,-1.,-0.));
#796 = DIRECTION('',(0.,0.,-1.));
#797 = ADVANCED_FACE('',(#798),#814,.T.);
#798 = FACE_BOUND('',#799,.F.);
#799 = EDGE_LOOP('',(#800,#806,#807,#813));
#800 = ORIENTED_EDGE('',*,*,#801,.F.);
#801 = EDGE_CURVE('',#710,#750,#802,.T.);
#802 = LINE('',#803,#804);
#803 = CARTESIAN_POINT('',(-0.35,-1.45,0.));
#804 = VECTOR('',#805,1.);
#805 = DIRECTION('',(1.,-0.,-0.));
#806 = ORIENTED_EDGE('',*,*,#717,.T.);
#807 = ORIENTED_EDGE('',*,*,#808,.T.);
#808 = EDGE_CURVE('',#718,#758,#809,.T.);
#809 = LINE('',#810,#811);
#810 = CARTESIAN_POINT('',(-0.35,-1.45,0.15));
#811 = VECTOR('',#812,1.);
#812 = DIRECTION('',(1.,-0.,-0.));
#813 = ORIENTED_EDGE('',*,*,#757,.F.);
#814 = PLANE('',#815);
#815 = AXIS2_PLACEMENT_3D('',#816,#817,#818);
#816 = CARTESIAN_POINT('',(-0.35,-1.45,0.));
#817 = DIRECTION('',(-0.,-1.,-0.));
#818 = DIRECTION('',(0.,0.,-1.));
#819 = ADVANCED_FACE('',(#820),#826,.F.);
#820 = FACE_BOUND('',#821,.T.);
#821 = EDGE_LOOP('',(#822,#823,#824,#825));
#822 = ORIENTED_EDGE('',*,*,#709,.F.);
#823 = ORIENTED_EDGE('',*,*,#779,.T.);
#824 = ORIENTED_EDGE('',*,*,#749,.T.);
#825 = ORIENTED_EDGE('',*,*,#801,.F.);
#826 = PLANE('',#827);
#827 = AXIS2_PLACEMENT_3D('',#828,#829,#830);
#828 = CARTESIAN_POINT('',(-0.35,-0.85,0.));
#829 = DIRECTION('',(-0.,-0.,1.));
#830 = DIRECTION('',(-1.,0.,0.));
#831 = ADVANCED_FACE('',(#832),#838,.T.);
#832 = FACE_BOUND('',#833,.F.);
#833 = EDGE_LOOP('',(#834,#835,#836,#837));
#834 = ORIENTED_EDGE('',*,*,#725,.F.);
#835 = ORIENTED_EDGE('',*,*,#786,.T.);
#836 = ORIENTED_EDGE('',*,*,#765,.T.);
#837 = ORIENTED_EDGE('',*,*,#808,.F.);
#838 = PLANE('',#839);
#839 = AXIS2_PLACEMENT_3D('',#840,#841,#842);
#840 = CARTESIAN_POINT('',(-0.35,-0.85,0.15));
#841 = DIRECTION('',(-0.,-0.,1.));
#842 = DIRECTION('',(-1.,0.,0.));
#843 = MANIFOLD_SOLID_BREP('',#844);
#844 = CLOSED_SHELL('',(#845,#885,#925,#947,#969,#981));
#845 = ADVANCED_FACE('',(#846),#880,.F.);
#846 = FACE_BOUND('',#847,.T.);
#847 = EDGE_LOOP('',(#848,#858,#866,#874));
#848 = ORIENTED_EDGE('',*,*,#849,.F.);
#849 = EDGE_CURVE('',#850,#852,#854,.T.);
#850 = VERTEX_POINT('',#851);
#851 = CARTESIAN_POINT('',(0.15,-0.85,0.));
#852 = VERTEX_POINT('',#853);
#853 = CARTESIAN_POINT('',(0.15,-0.85,0.15));
#854 = LINE('',#855,#856);
#855 = CARTESIAN_POINT('',(0.15,-0.85,0.));
#856 = VECTOR('',#857,1.);
#857 = DIRECTION('',(-0.,-0.,1.));
#858 = ORIENTED_EDGE('',*,*,#859,.T.);
#859 = EDGE_CURVE('',#850,#860,#862,.T.);
#860 = VERTEX_POINT('',#861);
#861 = CARTESIAN_POINT('',(0.15,-1.45,0.));
#862 = LINE('',#863,#864);
#863 = CARTESIAN_POINT('',(0.15,-0.85,0.));
#864 = VECTOR('',#865,1.);
#865 = DIRECTION('',(-0.,-1.,-0.));
#866 = ORIENTED_EDGE('',*,*,#867,.T.);
#867 = EDGE_CURVE('',#860,#868,#870,.T.);
#868 = VERTEX_POINT('',#869);
#869 = CARTESIAN_POINT('',(0.15,-1.45,0.15));
#870 = LINE('',#871,#872);
#871 = CARTESIAN_POINT('',(0.15,-1.45,0.));
#872 = VECTOR('',#873,1.);
#873 = DIRECTION('',(-0.,-0.,1.));
#874 = ORIENTED_EDGE('',*,*,#875,.F.);
#875 = EDGE_CURVE('',#852,#868,#876,.T.);
#876 = LINE('',#877,#878);
#877 = CARTESIAN_POINT('',(0.15,-0.85,0.15));
#878 = VECTOR('',#879,1.);
#879 = DIRECTION('',(-0.,-1.,-0.));
#880 = PLANE('',#881);
#881 = AXIS2_PLACEMENT_3D('',#882,#883,#884);
#882 = CARTESIAN_POINT('',(0.15,-0.85,0.));
#883 = DIRECTION('',(1.,-0.,-0.));
#884 = DIRECTION('',(0.,0.,-1.));
#885 = ADVANCED_FACE('',(#886),#920,.T.);
#886 = FACE_BOUND('',#887,.F.);
#887 = EDGE_LOOP('',(#888,#898,#906,#914));
#888 = ORIENTED_EDGE('',*,*,#889,.F.);
#889 = EDGE_CURVE('',#890,#892,#894,.T.);
#890 = VERTEX_POINT('',#891);
#891 = CARTESIAN_POINT('',(0.35,-0.85,0.));
#892 = VERTEX_POINT('',#893);
#893 = CARTESIAN_POINT('',(0.35,-0.85,0.15));
#894 = LINE('',#895,#896);
#895 = CARTESIAN_POINT('',(0.35,-0.85,0.));
#896 = VECTOR('',#897,1.);
#897 = DIRECTION('',(-0.,-0.,1.));
#898 = ORIENTED_EDGE('',*,*,#899,.T.);
#899 = EDGE_CURVE('',#890,#900,#902,.T.);
#900 = VERTEX_POINT('',#901);
#901 = CARTESIAN_POINT('',(0.35,-1.45,0.));
#902 = LINE('',#903,#904);
#903 = CARTESIAN_POINT('',(0.35,-0.85,0.));
#904 = VECTOR('',#905,1.);
#905 = DIRECTION('',(-0.,-1.,-0.));
#906 = ORIENTED_EDGE('',*,*,#907,.T.);
#907 = EDGE_CURVE('',#900,#908,#910,.T.);
#908 = VERTEX_POINT('',#909);
#909 = CARTESIAN_POINT('',(0.35,-1.45,0.15));
#910 = LINE('',#911,#912);
#911 = CARTESIAN_POINT('',(0.35,-1.45,0.));
#912 = VECTOR('',#913,1.);
#913 = DIRECTION('',(-0.,-0.,1.));
#914 = ORIENTED_EDGE('',*,*,#915,.F.);
#915 = EDGE_CURVE('',#892,#908,#916,.T.);
#916 = LINE('',#917,#918);
#917 = CARTESIAN_POINT('',(0.35,-0.85,0.15));
#918 = VECTOR('',#919,1.);
#919 = DIRECTION('',(-0.,-1.,-0.));
#920 = PLANE('',#921);
#921 = AXIS2_PLACEMENT_3D('',#922,#923,#924);
#922 = CARTESIAN_POINT('',(0.35,-0.85,0.));
#923 = DIRECTION('',(1.,-0.,-0.));
#924 = DIRECTION('',(0.,0.,-1.));
#925 = ADVANCED_FACE('',(#926),#942,.F.);
#926 = FACE_BOUND('',#927,.T.);
#927 = EDGE_LOOP('',(#928,#934,#935,#941));
#928 = ORIENTED_EDGE('',*,*,#929,.F.);
#929 = EDGE_CURVE('',#850,#890,#930,.T.);
#930 = LINE('',#931,#932);
#931 = CARTESIAN_POINT('',(0.15,-0.85,0.));
#932 = VECTOR('',#933,1.);
#933 = DIRECTION('',(1.,-0.,-0.));
#934 = ORIENTED_EDGE('',*,*,#849,.T.);
#935 = ORIENTED_EDGE('',*,*,#936,.T.);
#936 = EDGE_CURVE('',#852,#892,#937,.T.);
#937 = LINE('',#938,#939);
#938 = CARTESIAN_POINT('',(0.15,-0.85,0.15));
#939 = VECTOR('',#940,1.);
#940 = DIRECTION('',(1.,-0.,-0.));
#941 = ORIENTED_EDGE('',*,*,#889,.F.);
#942 = PLANE('',#943);
#943 = AXIS2_PLACEMENT_3D('',#944,#945,#946);
#944 = CARTESIAN_POINT('',(0.15,-0.85,0.));
#945 = DIRECTION('',(-0.,-1.,-0.));
#946 = DIRECTION('',(0.,0.,-1.));
#947 = ADVANCED_FACE('',(#948),#964,.T.);
#948 = FACE_BOUND('',#949,.F.);
#949 = EDGE_LOOP('',(#950,#956,#957,#963));
#950 = ORIENTED_EDGE('',*,*,#951,.F.);
#951 = EDGE_CURVE('',#860,#900,#952,.T.);
#952 = LINE('',#953,#954);
#953 = CARTESIAN_POINT('',(0.15,-1.45,0.));
#954 = VECTOR('',#955,1.);
#955 = DIRECTION('',(1.,-0.,-0.));
#956 = ORIENTED_EDGE('',*,*,#867,.T.);
#957 = ORIENTED_EDGE('',*,*,#958,.T.);
#958 = EDGE_CURVE('',#868,#908,#959,.T.);
#959 = LINE('',#960,#961);
#960 = CARTESIAN_POINT('',(0.15,-1.45,0.15));
#961 = VECTOR('',#962,1.);
#962 = DIRECTION('',(1.,-0.,-0.));
#963 = ORIENTED_EDGE('',*,*,#907,.F.);
#964 = PLANE('',#965);
#965 = AXIS2_PLACEMENT_3D('',#966,#967,#968);
#966 = CARTESIAN_POINT('',(0.15,-1.45,0.));
#967 = DIRECTION('',(-0.,-1.,-0.));
#968 = DIRECTION('',(0.,0.,-1.));
#969 = ADVANCED_FACE('',(#970),#976,.F.);
#970 = FACE_BOUND('',#971,.T.);
#971 = EDGE_LOOP('',(#972,#973,#974,#975));
#972 = ORIENTED_EDGE('',*,*,#859,.F.);
#973 = ORIENTED_EDGE('',*,*,#929,.T.);
#974 = ORIENTED_EDGE('',*,*,#899,.T.);
#975 = ORIENTED_EDGE('',*,*,#951,.F.);
#976 = PLANE('',#977);
#977 = AXIS2_PLACEMENT_3D('',#978,#979,#980);
#978 = CARTESIAN_POINT('',(0.15,-0.85,0.));
#979 = DIRECTION('',(-0.,-0.,1.));
#980 = DIRECTION('',(-1.,0.,0.));
#981 = ADVANCED_FACE('',(#982),#988,.T.);
#982 = FACE_BOUND('',#983,.F.);
#983 = EDGE_LOOP('',(#984,#985,#986,#987));
#984 = ORIENTED_EDGE('',*,*,#875,.F.);
#985 = ORIENTED_EDGE('',*,*,#936,.T.);
#986 = ORIENTED_EDGE('',*,*,#915,.T.);
#987 = ORIENTED_EDGE('',*,*,#958,.F.);
#988 = PLANE('',#989);
#989 = AXIS2_PLACEMENT_3D('',#990,#991,#992);
#990 = CARTESIAN_POINT('',(0.15,-0.85,0.15));
#991 = DIRECTION('',(-0.,-0.,1.));
#992 = DIRECTION('',(-1.,0.,0.));
#993 = MANIFOLD_SOLID_BREP('',#994);
#994 = CLOSED_SHELL('',(#995,#1035,#1075,#1097,#1119,#1131));
#995 = ADVANCED_FACE('',(#996),#1030,.F.);
#996 = FACE_BOUND('',#997,.T.);
#997 = EDGE_LOOP('',(#998,#1008,#1016,#1024));
#998 = ORIENTED_EDGE('',*,*,#999,.F.);
#999 = EDGE_CURVE('',#1000,#1002,#1004,.T.);
#1000 = VERTEX_POINT('',#1001);
#1001 = CARTESIAN_POINT('',(0.65,-0.85,0.));
#1002 = VERTEX_POINT('',#1003);
#1003 = CARTESIAN_POINT('',(0.65,-0.85,0.15));
#1004 = LINE('',#1005,#1006);
#1005 = CARTESIAN_POINT('',(0.65,-0.85,0.));
#1006 = VECTOR('',#1007,1.);
#1007 = DIRECTION('',(-0.,-0.,1.));
#1008 = ORIENTED_EDGE('',*,*,#1009,.T.);
#1009 = EDGE_CURVE('',#1000,#1010,#1012,.T.);
#1010 = VERTEX_POINT('',#1011);
#1011 = CARTESIAN_POINT('',(0.65,-1.45,0.));
#1012 = LINE('',#1013,#1014);
#1013 = CARTESIAN_POINT('',(0.65,-0.85,0.));
#1014 = VECTOR('',#1015,1.);
#1015 = DIRECTION('',(-0.,-1.,-0.));
#1016 = ORIENTED_EDGE('',*,*,#1017,.T.);
#1017 = EDGE_CURVE('',#1010,#1018,#1020,.T.);
#1018 = VERTEX_POINT('',#1019);
#1019 = CARTESIAN_POINT('',(0.65,-1.45,0.15));
#1020 = LINE('',#1021,#1022);
#1021 = CARTESIAN_POINT('',(0.65,-1.45,0.));
#1022 = VECTOR('',#1023,1.);
#1023 = DIRECTION('',(-0.,-0.,1.));
#1024 = ORIENTED_EDGE('',*,*,#1025,.F.);
#1025 = EDGE_CURVE('',#1002,#1018,#1026,.T.);
#1026 = LINE('',#1027,#1028);
#1027 = CARTESIAN_POINT('',(0.65,-0.85,0.15));
#1028 = VECTOR('',#1029,1.);
#1029 = DIRECTION('',(-0.,-1.,-0.));
#1030 = PLANE('',#1031);
#1031 = AXIS2_PLACEMENT_3D('',#1032,#1033,#1034);
#1032 = CARTESIAN_POINT('',(0.65,-0.85,0.));
#1033 = DIRECTION('',(1.,-0.,-0.));
#1034 = DIRECTION('',(0.,0.,-1.));
#1035 = ADVANCED_FACE('',(#1036),#1070,.T.);
#1036 = FACE_BOUND('',#1037,.F.);
#1037 = EDGE_LOOP('',(#1038,#1048,#1056,#1064));
#1038 = ORIENTED_EDGE('',*,*,#1039,.F.);
#1039 = EDGE_CURVE('',#1040,#1042,#1044,.T.);
#1040 = VERTEX_POINT('',#1041);
#1041 = CARTESIAN_POINT('',(0.85,-0.85,0.));
#1042 = VERTEX_POINT('',#1043);
#1043 = CARTESIAN_POINT('',(0.85,-0.85,0.15));
#1044 = LINE('',#1045,#1046);
#1045 = CARTESIAN_POINT('',(0.85,-0.85,0.));
#1046 = VECTOR('',#1047,1.);
#1047 = DIRECTION('',(-0.,-0.,1.));
#1048 = ORIENTED_EDGE('',*,*,#1049,.T.);
#1049 = EDGE_CURVE('',#1040,#1050,#1052,.T.);
#1050 = VERTEX_POINT('',#1051);
#1051 = CARTESIAN_POINT('',(0.85,-1.45,0.));
#1052 = LINE('',#1053,#1054);
#1053 = CARTESIAN_POINT('',(0.85,-0.85,0.));
#1054 = VECTOR('',#1055,1.);
#1055 = DIRECTION('',(-0.,-1.,-0.));
#1056 = ORIENTED_EDGE('',*,*,#1057,.T.);
#1057 = EDGE_CURVE('',#1050,#1058,#1060,.T.);
#1058 = VERTEX_POINT('',#1059);
#1059 = CARTESIAN_POINT('',(0.85,-1.45,0.15));
#1060 = LINE('',#1061,#1062);
#1061 = CARTESIAN_POINT('',(0.85,-1.45,0.));
#1062 = VECTOR('',#1063,1.);
#1063 = DIRECTION('',(-0.,-0.,1.));
#1064 = ORIENTED_EDGE('',*,*,#1065,.F.);
#1065 = EDGE_CURVE('',#1042,#1058,#1066,.T.);
#1066 = LINE('',#1067,#1068);
#1067 = CARTESIAN_POINT('',(0.85,-0.85,0.15));
#1068 = VECTOR('',#1069,1.);
#1069 = DIRECTION('',(-0.,-1.,-0.));
#1070 = PLANE('',#1071);
#1071 = AXIS2_PLACEMENT_3D('',#1072,#1073,#1074);
#1072 = CARTESIAN_POINT('',(0.85,-0.85,0.));
#1073 = DIRECTION('',(1.,-0.,-0.));
#1074 = DIRECTION('',(0.,0.,-1.));
#1075 = ADVANCED_FACE('',(#1076),#1092,.F.);
#1076 = FACE_BOUND('',#1077,.T.);
#1077 = EDGE_LOOP('',(#1078,#1084,#1085,#1091));
#1078 = ORIENTED_EDGE('',*,*,#1079,.F.);
#1079 = EDGE_CURVE('',#1000,#1040,#1080,.T.);
#1080 = LINE('',#1081,#1082);
#1081 = CARTESIAN_POINT('',(0.65,-0.85,0.));
#1082 = VECTOR('',#1083,1.);
#1083 = DIRECTION('',(1.,-0.,-0.));
#1084 = ORIENTED_EDGE('',*,*,#999,.T.);
#1085 = ORIENTED_EDGE('',*,*,#1086,.T.);
#1086 = EDGE_CURVE('',#1002,#1042,#1087,.T.);
#1087 = LINE('',#1088,#1089);
#1088 = CARTESIAN_POINT('',(0.65,-0.85,0.15));
#1089 = VECTOR('',#1090,1.);
#1090 = DIRECTION('',(1.,-0.,-0.));
#1091 = ORIENTED_EDGE('',*,*,#1039,.F.);
#1092 = PLANE('',#1093);
#1093 = AXIS2_PLACEMENT_3D('',#1094,#1095,#1096);
#1094 = CARTESIAN_POINT('',(0.65,-0.85,0.));
#1095 = DIRECTION('',(-0.,-1.,-0.));
#1096 = DIRECTION('',(0.,0.,-1.));
#1097 = ADVANCED_FACE('',(#1098),#1114,.T.);
#1098 = FACE_BOUND('',#1099,.F.);
#1099 = EDGE_LOOP('',(#1100,#1106,#1107,#1113));
#1100 = ORIENTED_EDGE('',*,*,#1101,.F.);
#1101 = EDGE_CURVE('',#1010,#1050,#1102,.T.);
#1102 = LINE('',#1103,#1104);
#1103 = CARTESIAN_POINT('',(0.65,-1.45,0.));
#1104 = VECTOR('',#1105,1.);
#1105 = DIRECTION('',(1.,-0.,-0.));
#1106 = ORIENTED_EDGE('',*,*,#1017,.T.);
#1107 = ORIENTED_EDGE('',*,*,#1108,.T.);
#1108 = EDGE_CURVE('',#1018,#1058,#1109,.T.);
#1109 = LINE('',#1110,#1111);
#1110 = CARTESIAN_POINT('',(0.65,-1.45,0.15));
#1111 = VECTOR('',#1112,1.);
#1112 = DIRECTION('',(1.,-0.,-0.));
#1113 = ORIENTED_EDGE('',*,*,#1057,.F.);
#1114 = PLANE('',#1115);
#1115 = AXIS2_PLACEMENT_3D('',#1116,#1117,#1118);
#1116 = CARTESIAN_POINT('',(0.65,-1.45,0.));
#1117 = DIRECTION('',(-0.,-1.,-0.));
#1118 = DIRECTION('',(0.,0.,-1.));
#1119 = ADVANCED_FACE('',(#1120),#1126,.F.);
#1120 = FACE_BOUND('',#1121,.T.);
#1121 = EDGE_LOOP('',(#1122,#1123,#1124,#1125));
#1122 = ORIENTED_EDGE('',*,*,#1009,.F.);
#1123 = ORIENTED_EDGE('',*,*,#1079,.T.);
#1124 = ORIENTED_EDGE('',*,*,#1049,.T.);
#1125 = ORIENTED_EDGE('',*,*,#1101,.F.);
#1126 = PLANE('',#1127);
#1127 = AXIS2_PLACEMENT_3D('',#1128,#1129,#1130);
#1128 = CARTESIAN_POINT('',(0.65,-0.85,0.));
#1129 = DIRECTION('',(-0.,-0.,1.));
#1130 = DIRECTION('',(-1.,0.,0.));
#1131 = ADVANCED_FACE('',(#1132),#1138,.T.);
#1132 = FACE_BOUND('',#1133,.F.);
#1133 = EDGE_LOOP('',(#1134,#1135,#1136,#1137));
#1134 = ORIENTED_EDGE('',*,*,#1025,.F.);
#1135 = ORIENTED_EDGE('',*,*,#1086,.T.);
#1136 = ORIENTED_EDGE('',*,*,#1065,.T.);
#1137 = ORIENTED_EDGE('',*,*,#1108,.F.);
#1138 = PLANE('',#1139);
#1139 = AXIS2_PLACEMENT_3D('',#1140,#1141,#1142);
#1140 = CARTESIAN_POINT('',(0.65,-0.85,0.15));
#1141 = DIRECTION('',(-0.,-0.,1.));
#1142 = DIRECTION('',(-1.,0.,0.));
#1143 = MANIFOLD_SOLID_BREP('',#1144);
#1144 = CLOSED_SHELL('',(#1145,#1185,#1225,#1247,#1269,#1281));
#1145 = ADVANCED_FACE('',(#1146),#1180,.F.);
#1146 = FACE_BOUND('',#1147,.T.);
#1147 = EDGE_LOOP('',(#1148,#1158,#1166,#1174));
#1148 = ORIENTED_EDGE('',*,*,#1149,.F.);
#1149 = EDGE_CURVE('',#1150,#1152,#1154,.T.);
#1150 = VERTEX_POINT('',#1151);
#1151 = CARTESIAN_POINT('',(0.15,-0.15,0.));
#1152 = VERTEX_POINT('',#1153);
#1153 = CARTESIAN_POINT('',(0.15,-0.15,0.15));
#1154 = LINE('',#1155,#1156);
#1155 = CARTESIAN_POINT('',(0.15,-0.15,0.));
#1156 = VECTOR('',#1157,1.);
#1157 = DIRECTION('',(-0.,-0.,1.));
#1158 = ORIENTED_EDGE('',*,*,#1159,.T.);
#1159 = EDGE_CURVE('',#1150,#1160,#1162,.T.);
#1160 = VERTEX_POINT('',#1161);
#1161 = CARTESIAN_POINT('',(0.15,-0.55,0.));
#1162 = LINE('',#1163,#1164);
#1163 = CARTESIAN_POINT('',(0.15,-0.15,0.));
#1164 = VECTOR('',#1165,1.);
#1165 = DIRECTION('',(-0.,-1.,-0.));
#1166 = ORIENTED_EDGE('',*,*,#1167,.T.);
#1167 = EDGE_CURVE('',#1160,#1168,#1170,.T.);
#1168 = VERTEX_POINT('',#1169);
#1169 = CARTESIAN_POINT('',(0.15,-0.55,0.15));
#1170 = LINE('',#1171,#1172);
#1171 = CARTESIAN_POINT('',(0.15,-0.55,0.));
#1172 = VECTOR('',#1173,1.);
#1173 = DIRECTION('',(-0.,-0.,1.));
#1174 = ORIENTED_EDGE('',*,*,#1175,.F.);
#1175 = EDGE_CURVE('',#1152,#1168,#1176,.T.);
#1176 = LINE('',#1177,#1178);
#1177 = CARTESIAN_POINT('',(0.15,-0.15,0.15));
#1178 = VECTOR('',#1179,1.);
#1179 = DIRECTION('',(-0.,-1.,-0.));
#1180 = PLANE('',#1181);
#1181 = AXIS2_PLACEMENT_3D('',#1182,#1183,#1184);
#1182 = CARTESIAN_POINT('',(0.15,-0.15,0.));
#1183 = DIRECTION('',(1.,-0.,-0.));
#1184 = DIRECTION('',(0.,0.,-1.));
#1185 = ADVANCED_FACE('',(#1186),#1220,.T.);
#1186 = FACE_BOUND('',#1187,.F.);
#1187 = EDGE_LOOP('',(#1188,#1198,#1206,#1214));
#1188 = ORIENTED_EDGE('',*,*,#1189,.F.);
#1189 = EDGE_CURVE('',#1190,#1192,#1194,.T.);
#1190 = VERTEX_POINT('',#1191);
#1191 = CARTESIAN_POINT('',(1.2,-0.15,0.));
#1192 = VERTEX_POINT('',#1193);
#1193 = CARTESIAN_POINT('',(1.2,-0.15,0.15));
#1194 = LINE('',#1195,#1196);
#1195 = CARTESIAN_POINT('',(1.2,-0.15,0.));
#1196 = VECTOR('',#1197,1.);
#1197 = DIRECTION('',(-0.,-0.,1.));
#1198 = ORIENTED_EDGE('',*,*,#1199,.T.);
#1199 = EDGE_CURVE('',#1190,#1200,#1202,.T.);
#1200 = VERTEX_POINT('',#1201);
#1201 = CARTESIAN_POINT('',(1.2,-0.55,0.));
#1202 = LINE('',#1203,#1204);
#1203 = CARTESIAN_POINT('',(1.2,-0.15,0.));
#1204 = VECTOR('',#1205,1.);
#1205 = DIRECTION('',(-0.,-1.,-0.));
#1206 = ORIENTED_EDGE('',*,*,#1207,.T.);
#1207 = EDGE_CURVE('',#1200,#1208,#1210,.T.);
#1208 = VERTEX_POINT('',#1209);
#1209 = CARTESIAN_POINT('',(1.2,-0.55,0.15));
#1210 = LINE('',#1211,#1212);
#1211 = CARTESIAN_POINT('',(1.2,-0.55,0.));
#1212 = VECTOR('',#1213,1.);
#1213 = DIRECTION('',(-0.,-0.,1.));
#1214 = ORIENTED_EDGE('',*,*,#1215,.F.);
#1215 = EDGE_CURVE('',#1192,#1208,#1216,.T.);
#1216 = LINE('',#1217,#1218);
#1217 = CARTESIAN_POINT('',(1.2,-0.15,0.15));
#1218 = VECTOR('',#1219,1.);
#1219 = DIRECTION('',(-0.,-1.,-0.));
#1220 = PLANE('',#1221);
#1221 = AXIS2_PLACEMENT_3D('',#1222,#1223,#1224);
#1222 = CARTESIAN_POINT('',(1.2,-0.15,0.));
#1223 = DIRECTION('',(1.,-0.,-0.));
#1224 = DIRECTION('',(0.,0.,-1.));
#1225 = ADVANCED_FACE('',(#1226),#1242,.F.);
#1226 = FACE_BOUND('',#1227,.T.);
#1227 = EDGE_LOOP('',(#1228,#1234,#1235,#1241));
#1228 = ORIENTED_EDGE('',*,*,#1229,.F.);
#1229 = EDGE_CURVE('',#1150,#1190,#1230,.T.);
#1230 = LINE('',#1231,#1232);
#1231 = CARTESIAN_POINT('',(0.15,-0.15,0.));
#1232 = VECTOR('',#1233,1.);
#1233 = DIRECTION('',(1.,-0.,-0.));
#1234 = ORIENTED_EDGE('',*,*,#1149,.T.);
#1235 = ORIENTED_EDGE('',*,*,#1236,.T.);
#1236 = EDGE_CURVE('',#1152,#1192,#1237,.T.);
#1237 = LINE('',#1238,#1239);
#1238 = CARTESIAN_POINT('',(0.15,-0.15,0.15));
#1239 = VECTOR('',#1240,1.);
#1240 = DIRECTION('',(1.,-0.,-0.));
#1241 = ORIENTED_EDGE('',*,*,#1189,.F.);
#1242 = PLANE('',#1243);
#1243 = AXIS2_PLACEMENT_3D('',#1244,#1245,#1246);
#1244 = CARTESIAN_POINT('',(0.15,-0.15,0.));
#1245 = DIRECTION('',(-0.,-1.,-0.));
#1246 = DIRECTION('',(0.,0.,-1.));
#1247 = ADVANCED_FACE('',(#1248),#1264,.T.);
#1248 = FACE_BOUND('',#1249,.F.);
#1249 = EDGE_LOOP('',(#1250,#1256,#1257,#1263));
#1250 = ORIENTED_EDGE('',*,*,#1251,.F.);
#1251 = EDGE_CURVE('',#1160,#1200,#1252,.T.);
#1252 = LINE('',#1253,#1254);
#1253 = CARTESIAN_POINT('',(0.15,-0.55,0.));
#1254 = VECTOR('',#1255,1.);
#1255 = DIRECTION('',(1.,-0.,-0.));
#1256 = ORIENTED_EDGE('',*,*,#1167,.T.);
#1257 = ORIENTED_EDGE('',*,*,#1258,.T.);
#1258 = EDGE_CURVE('',#1168,#1208,#1259,.T.);
#1259 = LINE('',#1260,#1261);
#1260 = CARTESIAN_POINT('',(0.15,-0.55,0.15));
#1261 = VECTOR('',#1262,1.);
#1262 = DIRECTION('',(1.,-0.,-0.));
#1263 = ORIENTED_EDGE('',*,*,#1207,.F.);
#1264 = PLANE('',#1265);
#1265 = AXIS2_PLACEMENT_3D('',#1266,#1267,#1268);
#1266 = CARTESIAN_POINT('',(0.15,-0.55,0.));
#1267 = DIRECTION('',(-0.,-1.,-0.));
#1268 = DIRECTION('',(0.,0.,-1.));
#1269 = ADVANCED_FACE('',(#1270),#1276,.F.);
#1270 = FACE_BOUND('',#1271,.T.);
#1271 = EDGE_LOOP('',(#1272,#1273,#1274,#1275));
#1272 = ORIENTED_EDGE('',*,*,#1159,.F.);
#1273 = ORIENTED_EDGE('',*,*,#1229,.T.);
#1274 = ORIENTED_EDGE('',*,*,#1199,.T.);
#1275 = ORIENTED_EDGE('',*,*,#1251,.F.);
#1276 = PLANE('',#1277);
#1277 = AXIS2_PLACEMENT_3D('',#1278,#1279,#1280);
#1278 = CARTESIAN_POINT('',(0.15,-0.15,0.));
#1279 = DIRECTION('',(-0.,-0.,1.));
#1280 = DIRECTION('',(-1.,0.,0.));
#1281 = ADVANCED_FACE('',(#1282),#1288,.T.);
#1282 = FACE_BOUND('',#1283,.F.);
#1283 = EDGE_LOOP('',(#1284,#1285,#1286,#1287));
#1284 = ORIENTED_EDGE('',*,*,#1175,.F.);
#1285 = ORIENTED_EDGE('',*,*,#1236,.T.);
#1286 = ORIENTED_EDGE('',*,*,#1215,.T.);
#1287 = ORIENTED_EDGE('',*,*,#1258,.F.);
#1288 = PLANE('',#1289);
#1289 = AXIS2_PLACEMENT_3D('',#1290,#1291,#1292);
#1290 = CARTESIAN_POINT('',(0.15,-0.15,0.15));
#1291 = DIRECTION('',(-0.,-0.,1.));
#1292 = DIRECTION('',(-1.,0.,0.));
#1293 = MANIFOLD_SOLID_BREP('',#1294);
#1294 = CLOSED_SHELL('',(#1295,#1335,#1375,#1397,#1419,#1431));
#1295 = ADVANCED_FACE('',(#1296),#1330,.F.);
#1296 = FACE_BOUND('',#1297,.T.);
#1297 = EDGE_LOOP('',(#1298,#1308,#1316,#1324));
#1298 = ORIENTED_EDGE('',*,*,#1299,.F.);
#1299 = EDGE_CURVE('',#1300,#1302,#1304,.T.);
#1300 = VERTEX_POINT('',#1301);
#1301 = CARTESIAN_POINT('',(0.15,0.55,0.));
#1302 = VERTEX_POINT('',#1303);
#1303 = CARTESIAN_POINT('',(0.15,0.55,0.15));
#1304 = LINE('',#1305,#1306);
#1305 = CARTESIAN_POINT('',(0.15,0.55,0.));
#1306 = VECTOR('',#1307,1.);
#1307 = DIRECTION('',(-0.,-0.,1.));
#1308 = ORIENTED_EDGE('',*,*,#1309,.T.);
#1309 = EDGE_CURVE('',#1300,#1310,#1312,.T.);
#1310 = VERTEX_POINT('',#1311);
#1311 = CARTESIAN_POINT('',(0.15,0.15,0.));
#1312 = LINE('',#1313,#1314);
#1313 = CARTESIAN_POINT('',(0.15,0.55,0.));
#1314 = VECTOR('',#1315,1.);
#1315 = DIRECTION('',(-0.,-1.,-0.));
#1316 = ORIENTED_EDGE('',*,*,#1317,.T.);
#1317 = EDGE_CURVE('',#1310,#1318,#1320,.T.);
#1318 = VERTEX_POINT('',#1319);
#1319 = CARTESIAN_POINT('',(0.15,0.15,0.15));
#1320 = LINE('',#1321,#1322);
#1321 = CARTESIAN_POINT('',(0.15,0.15,0.));
#1322 = VECTOR('',#1323,1.);
#1323 = DIRECTION('',(-0.,-0.,1.));
#1324 = ORIENTED_EDGE('',*,*,#1325,.F.);
#1325 = EDGE_CURVE('',#1302,#1318,#1326,.T.);
#1326 = LINE('',#1327,#1328);
#1327 = CARTESIAN_POINT('',(0.15,0.55,0.15));
#1328 = VECTOR('',#1329,1.);
#1329 = DIRECTION('',(-0.,-1.,-0.));
#1330 = PLANE('',#1331);
#1331 = AXIS2_PLACEMENT_3D('',#1332,#1333,#1334);
#1332 = CARTESIAN_POINT('',(0.15,0.55,0.));
#1333 = DIRECTION('',(1.,-0.,-0.));
#1334 = DIRECTION('',(0.,0.,-1.));
#1335 = ADVANCED_FACE('',(#1336),#1370,.T.);
#1336 = FACE_BOUND('',#1337,.F.);
#1337 = EDGE_LOOP('',(#1338,#1348,#1356,#1364));
#1338 = ORIENTED_EDGE('',*,*,#1339,.F.);
#1339 = EDGE_CURVE('',#1340,#1342,#1344,.T.);
#1340 = VERTEX_POINT('',#1341);
#1341 = CARTESIAN_POINT('',(1.2,0.55,0.));
#1342 = VERTEX_POINT('',#1343);
#1343 = CARTESIAN_POINT('',(1.2,0.55,0.15));
#1344 = LINE('',#1345,#1346);
#1345 = CARTESIAN_POINT('',(1.2,0.55,0.));
#1346 = VECTOR('',#1347,1.);
#1347 = DIRECTION('',(-0.,-0.,1.));
#1348 = ORIENTED_EDGE('',*,*,#1349,.T.);
#1349 = EDGE_CURVE('',#1340,#1350,#1352,.T.);
#1350 = VERTEX_POINT('',#1351);
#1351 = CARTESIAN_POINT('',(1.2,0.15,0.));
#1352 = LINE('',#1353,#1354);
#1353 = CARTESIAN_POINT('',(1.2,0.55,0.));
#1354 = VECTOR('',#1355,1.);
#1355 = DIRECTION('',(-0.,-1.,-0.));
#1356 = ORIENTED_EDGE('',*,*,#1357,.T.);
#1357 = EDGE_CURVE('',#1350,#1358,#1360,.T.);
#1358 = VERTEX_POINT('',#1359);
#1359 = CARTESIAN_POINT('',(1.2,0.15,0.15));
#1360 = LINE('',#1361,#1362);
#1361 = CARTESIAN_POINT('',(1.2,0.15,0.));
#1362 = VECTOR('',#1363,1.);
#1363 = DIRECTION('',(-0.,-0.,1.));
#1364 = ORIENTED_EDGE('',*,*,#1365,.F.);
#1365 = EDGE_CURVE('',#1342,#1358,#1366,.T.);
#1366 = LINE('',#1367,#1368);
#1367 = CARTESIAN_POINT('',(1.2,0.55,0.15));
#1368 = VECTOR('',#1369,1.);
#1369 = DIRECTION('',(-0.,-1.,-0.));
#1370 = PLANE('',#1371);
#1371 = AXIS2_PLACEMENT_3D('',#1372,#1373,#1374);
#1372 = CARTESIAN_POINT('',(1.2,0.55,0.));
#1373 = DIRECTION('',(1.,-0.,-0.));
#1374 = DIRECTION('',(0.,0.,-1.));
#1375 = ADVANCED_FACE('',(#1376),#1392,.F.);
#1376 = FACE_BOUND('',#1377,.T.);
#1377 = EDGE_LOOP('',(#1378,#1384,#1385,#1391));
#1378 = ORIENTED_EDGE('',*,*,#1379,.F.);
#1379 = EDGE_CURVE('',#1300,#1340,#1380,.T.);
#1380 = LINE('',#1381,#1382);
#1381 = CARTESIAN_POINT('',(0.15,0.55,0.));
#1382 = VECTOR('',#1383,1.);
#1383 = DIRECTION('',(1.,-0.,-0.));
#1384 = ORIENTED_EDGE('',*,*,#1299,.T.);
#1385 = ORIENTED_EDGE('',*,*,#1386,.T.);
#1386 = EDGE_CURVE('',#1302,#1342,#1387,.T.);
#1387 = LINE('',#1388,#1389);
#1388 = CARTESIAN_POINT('',(0.15,0.55,0.15));
#1389 = VECTOR('',#1390,1.);
#1390 = DIRECTION('',(1.,-0.,-0.));
#1391 = ORIENTED_EDGE('',*,*,#1339,.F.);
#1392 = PLANE('',#1393);
#1393 = AXIS2_PLACEMENT_3D('',#1394,#1395,#1396);
#1394 = CARTESIAN_POINT('',(0.15,0.55,0.));
#1395 = DIRECTION('',(-0.,-1.,-0.));
#1396 = DIRECTION('',(0.,0.,-1.));
#1397 = ADVANCED_FACE('',(#1398),#1414,.T.);
#1398 = FACE_BOUND('',#1399,.F.);
#1399 = EDGE_LOOP('',(#1400,#1406,#1407,#1413));
#1400 = ORIENTED_EDGE('',*,*,#1401,.F.);
#1401 = EDGE_CURVE('',#1310,#1350,#1402,.T.);
#1402 = LINE('',#1403,#1404);
#1403 = CARTESIAN_POINT('',(0.15,0.15,0.));
#1404 = VECTOR('',#1405,1.);
#1405 = DIRECTION('',(1.,-0.,-0.));
#1406 = ORIENTED_EDGE('',*,*,#1317,.T.);
#1407 = ORIENTED_EDGE('',*,*,#1408,.T.);
#1408 = EDGE_CURVE('',#1318,#1358,#1409,.T.);
#1409 = LINE('',#1410,#1411);
#1410 = CARTESIAN_POINT('',(0.15,0.15,0.15));
#1411 = VECTOR('',#1412,1.);
#1412 = DIRECTION('',(1.,-0.,-0.));
#1413 = ORIENTED_EDGE('',*,*,#1357,.F.);
#1414 = PLANE('',#1415);
#1415 = AXIS2_PLACEMENT_3D('',#1416,#1417,#1418);
#1416 = CARTESIAN_POINT('',(0.15,0.15,0.));
#1417 = DIRECTION('',(-0.,-1.,-0.));
#1418 = DIRECTION('',(0.,0.,-1.));
#1419 = ADVANCED_FACE('',(#1420),#1426,.F.);
#1420 = FACE_BOUND('',#1421,.T.);
#1421 = EDGE_LOOP('',(#1422,#1423,#1424,#1425));
#1422 = ORIENTED_EDGE('',*,*,#1309,.F.);
#1423 = ORIENTED_EDGE('',*,*,#1379,.T.);
#1424 = ORIENTED_EDGE('',*,*,#1349,.T.);
#1425 = ORIENTED_EDGE('',*,*,#1401,.F.);
#1426 = PLANE('',#1427);
#1427 = AXIS2_PLACEMENT_3D('',#1428,#1429,#1430);
#1428 = CARTESIAN_POINT('',(0.15,0.55,0.));
#1429 = DIRECTION('',(-0.,-0.,1.));
#1430 = DIRECTION('',(-1.,0.,0.));
#1431 = ADVANCED_FACE('',(#1432),#1438,.T.);
#1432 = FACE_BOUND('',#1433,.F.);
#1433 = EDGE_LOOP('',(#1434,#1435,#1436,#1437));
#1434 = ORIENTED_EDGE('',*,*,#1325,.F.);
#1435 = ORIENTED_EDGE('',*,*,#1386,.T.);
#1436 = ORIENTED_EDGE('',*,*,#1365,.T.);
#1437 = ORIENTED_EDGE('',*,*,#1408,.F.);
#1438 = PLANE('',#1439);
#1439 = AXIS2_PLACEMENT_3D('',#1440,#1441,#1442);
#1440 = CARTESIAN_POINT('',(0.15,0.55,0.15));
#1441 = DIRECTION('',(-0.,-0.,1.));
#1442 = DIRECTION('',(-1.,0.,0.));
#1443 = MANIFOLD_SOLID_BREP('',#1444);
#1444 = CLOSED_SHELL('',(#1445,#1485,#1525,#1547,#1569,#1581));
#1445 = ADVANCED_FACE('',(#1446),#1480,.F.);
#1446 = FACE_BOUND('',#1447,.T.);
#1447 = EDGE_LOOP('',(#1448,#1458,#1466,#1474));
#1448 = ORIENTED_EDGE('',*,*,#1449,.F.);
#1449 = EDGE_CURVE('',#1450,#1452,#1454,.T.);
#1450 = VERTEX_POINT('',#1451);
#1451 = CARTESIAN_POINT('',(0.65,1.45,0.));
#1452 = VERTEX_POINT('',#1453);
#1453 = CARTESIAN_POINT('',(0.65,1.45,0.15));
#1454 = LINE('',#1455,#1456);
#1455 = CARTESIAN_POINT('',(0.65,1.45,0.));
#1456 = VECTOR('',#1457,1.);
#1457 = DIRECTION('',(-0.,-0.,1.));
#1458 = ORIENTED_EDGE('',*,*,#1459,.T.);
#1459 = EDGE_CURVE('',#1450,#1460,#1462,.T.);
#1460 = VERTEX_POINT('',#1461);
#1461 = CARTESIAN_POINT('',(0.65,0.85,0.));
#1462 = LINE('',#1463,#1464);
#1463 = CARTESIAN_POINT('',(0.65,1.45,0.));
#1464 = VECTOR('',#1465,1.);
#1465 = DIRECTION('',(-0.,-1.,-0.));
#1466 = ORIENTED_EDGE('',*,*,#1467,.T.);
#1467 = EDGE_CURVE('',#1460,#1468,#1470,.T.);
#1468 = VERTEX_POINT('',#1469);
#1469 = CARTESIAN_POINT('',(0.65,0.85,0.15));
#1470 = LINE('',#1471,#1472);
#1471 = CARTESIAN_POINT('',(0.65,0.85,0.));
#1472 = VECTOR('',#1473,1.);
#1473 = DIRECTION('',(-0.,-0.,1.));
#1474 = ORIENTED_EDGE('',*,*,#1475,.F.);
#1475 = EDGE_CURVE('',#1452,#1468,#1476,.T.);
#1476 = LINE('',#1477,#1478);
#1477 = CARTESIAN_POINT('',(0.65,1.45,0.15));
#1478 = VECTOR('',#1479,1.);
#1479 = DIRECTION('',(-0.,-1.,-0.));
#1480 = PLANE('',#1481);
#1481 = AXIS2_PLACEMENT_3D('',#1482,#1483,#1484);
#1482 = CARTESIAN_POINT('',(0.65,1.45,0.));
#1483 = DIRECTION('',(1.,-0.,-0.));
#1484 = DIRECTION('',(0.,0.,-1.));
#1485 = ADVANCED_FACE('',(#1486),#1520,.T.);
#1486 = FACE_BOUND('',#1487,.F.);
#1487 = EDGE_LOOP('',(#1488,#1498,#1506,#1514));
#1488 = ORIENTED_EDGE('',*,*,#1489,.F.);
#1489 = EDGE_CURVE('',#1490,#1492,#1494,.T.);
#1490 = VERTEX_POINT('',#1491);
#1491 = CARTESIAN_POINT('',(0.85,1.45,0.));
#1492 = VERTEX_POINT('',#1493);
#1493 = CARTESIAN_POINT('',(0.85,1.45,0.15));
#1494 = LINE('',#1495,#1496);
#1495 = CARTESIAN_POINT('',(0.85,1.45,0.));
#1496 = VECTOR('',#1497,1.);
#1497 = DIRECTION('',(-0.,-0.,1.));
#1498 = ORIENTED_EDGE('',*,*,#1499,.T.);
#1499 = EDGE_CURVE('',#1490,#1500,#1502,.T.);
#1500 = VERTEX_POINT('',#1501);
#1501 = CARTESIAN_POINT('',(0.85,0.85,0.));
#1502 = LINE('',#1503,#1504);
#1503 = CARTESIAN_POINT('',(0.85,1.45,0.));
#1504 = VECTOR('',#1505,1.);
#1505 = DIRECTION('',(-0.,-1.,-0.));
#1506 = ORIENTED_EDGE('',*,*,#1507,.T.);
#1507 = EDGE_CURVE('',#1500,#1508,#1510,.T.);
#1508 = VERTEX_POINT('',#1509);
#1509 = CARTESIAN_POINT('',(0.85,0.85,0.15));
#1510 = LINE('',#1511,#1512);
#1511 = CARTESIAN_POINT('',(0.85,0.85,0.));
#1512 = VECTOR('',#1513,1.);
#1513 = DIRECTION('',(-0.,-0.,1.));
#1514 = ORIENTED_EDGE('',*,*,#1515,.F.);
#1515 = EDGE_CURVE('',#1492,#1508,#1516,.T.);
#1516 = LINE('',#1517,#1518);
#1517 = CARTESIAN_POINT('',(0.85,1.45,0.15));
#1518 = VECTOR('',#1519,1.);
#1519 = DIRECTION('',(-0.,-1.,-0.));
#1520 = PLANE('',#1521);
#1521 = AXIS2_PLACEMENT_3D('',#1522,#1523,#1524);
#1522 = CARTESIAN_POINT('',(0.85,1.45,0.));
#1523 = DIRECTION('',(1.,-0.,-0.));
#1524 = DIRECTION('',(0.,0.,-1.));
#1525 = ADVANCED_FACE('',(#1526),#1542,.F.);
#1526 = FACE_BOUND('',#1527,.T.);
#1527 = EDGE_LOOP('',(#1528,#1534,#1535,#1541));
#1528 = ORIENTED_EDGE('',*,*,#1529,.F.);
#1529 = EDGE_CURVE('',#1450,#1490,#1530,.T.);
#1530 = LINE('',#1531,#1532);
#1531 = CARTESIAN_POINT('',(0.65,1.45,0.));
#1532 = VECTOR('',#1533,1.);
#1533 = DIRECTION('',(1.,-0.,-0.));
#1534 = ORIENTED_EDGE('',*,*,#1449,.T.);
#1535 = ORIENTED_EDGE('',*,*,#1536,.T.);
#1536 = EDGE_CURVE('',#1452,#1492,#1537,.T.);
#1537 = LINE('',#1538,#1539);
#1538 = CARTESIAN_POINT('',(0.65,1.45,0.15));
#1539 = VECTOR('',#1540,1.);
#1540 = DIRECTION('',(1.,-0.,-0.));
#1541 = ORIENTED_EDGE('',*,*,#1489,.F.);
#1542 = PLANE('',#1543);
#1543 = AXIS2_PLACEMENT_3D('',#1544,#1545,#1546);
#1544 = CARTESIAN_POINT('',(0.65,1.45,0.));
#1545 = DIRECTION('',(-0.,-1.,-0.));
#1546 = DIRECTION('',(0.,0.,-1.));
#1547 = ADVANCED_FACE('',(#1548),#1564,.T.);
#1548 = FACE_BOUND('',#1549,.F.);
#1549 = EDGE_LOOP('',(#1550,#1556,#1557,#1563));
#1550 = ORIENTED_EDGE('',*,*,#1551,.F.);
#1551 = EDGE_CURVE('',#1460,#1500,#1552,.T.);
#1552 = LINE('',#1553,#1554);
#1553 = CARTESIAN_POINT('',(0.65,0.85,0.));
#1554 = VECTOR('',#1555,1.);
#1555 = DIRECTION('',(1.,-0.,-0.));
#1556 = ORIENTED_EDGE('',*,*,#1467,.T.);
#1557 = ORIENTED_EDGE('',*,*,#1558,.T.);
#1558 = EDGE_CURVE('',#1468,#1508,#1559,.T.);
#1559 = LINE('',#1560,#1561);
#1560 = CARTESIAN_POINT('',(0.65,0.85,0.15));
#1561 = VECTOR('',#1562,1.);
#1562 = DIRECTION('',(1.,-0.,-0.));
#1563 = ORIENTED_EDGE('',*,*,#1507,.F.);
#1564 = PLANE('',#1565);
#1565 = AXIS2_PLACEMENT_3D('',#1566,#1567,#1568);
#1566 = CARTESIAN_POINT('',(0.65,0.85,0.));
#1567 = DIRECTION('',(-0.,-1.,-0.));
#1568 = DIRECTION('',(0.,0.,-1.));
#1569 = ADVANCED_FACE('',(#1570),#1576,.F.);
#1570 = FACE_BOUND('',#1571,.T.);
#1571 = EDGE_LOOP('',(#1572,#1573,#1574,#1575));
#1572 = ORIENTED_EDGE('',*,*,#1459,.F.);
#1573 = ORIENTED_EDGE('',*,*,#1529,.T.);
#1574 = ORIENTED_EDGE('',*,*,#1499,.T.);
#1575 = ORIENTED_EDGE('',*,*,#1551,.F.);
#1576 = PLANE('',#1577);
#1577 = AXIS2_PLACEMENT_3D('',#1578,#1579,#1580);
#1578 = CARTESIAN_POINT('',(0.65,1.45,0.));
#1579 = DIRECTION('',(-0.,-0.,1.));
#1580 = DIRECTION('',(-1.,0.,0.));
#1581 = ADVANCED_FACE('',(#1582),#1588,.T.);
#1582 = FACE_BOUND('',#1583,.F.);
#1583 = EDGE_LOOP('',(#1584,#1585,#1586,#1587));
#1584 = ORIENTED_EDGE('',*,*,#1475,.F.);
#1585 = ORIENTED_EDGE('',*,*,#1536,.T.);
#1586 = ORIENTED_EDGE('',*,*,#1515,.T.);
#1587 = ORIENTED_EDGE('',*,*,#1558,.F.);
#1588 = PLANE('',#1589);
#1589 = AXIS2_PLACEMENT_3D('',#1590,#1591,#1592);
#1590 = CARTESIAN_POINT('',(0.65,1.45,0.15));
#1591 = DIRECTION('',(-0.,-0.,1.));
#1592 = DIRECTION('',(-1.,0.,0.));
#1593 = MANIFOLD_SOLID_BREP('',#1594);
#1594 = CLOSED_SHELL('',(#1595,#1635,#1675,#1697,#1719,#1731));
#1595 = ADVANCED_FACE('',(#1596),#1630,.F.);
#1596 = FACE_BOUND('',#1597,.T.);
#1597 = EDGE_LOOP('',(#1598,#1608,#1616,#1624));
#1598 = ORIENTED_EDGE('',*,*,#1599,.F.);
#1599 = EDGE_CURVE('',#1600,#1602,#1604,.T.);
#1600 = VERTEX_POINT('',#1601);
#1601 = CARTESIAN_POINT('',(0.15,1.45,0.));
#1602 = VERTEX_POINT('',#1603);
#1603 = CARTESIAN_POINT('',(0.15,1.45,0.15));
#1604 = LINE('',#1605,#1606);
#1605 = CARTESIAN_POINT('',(0.15,1.45,0.));
#1606 = VECTOR('',#1607,1.);
#1607 = DIRECTION('',(-0.,-0.,1.));
#1608 = ORIENTED_EDGE('',*,*,#1609,.T.);
#1609 = EDGE_CURVE('',#1600,#1610,#1612,.T.);
#1610 = VERTEX_POINT('',#1611);
#1611 = CARTESIAN_POINT('',(0.15,0.85,0.));
#1612 = LINE('',#1613,#1614);
#1613 = CARTESIAN_POINT('',(0.15,1.45,0.));
#1614 = VECTOR('',#1615,1.);
#1615 = DIRECTION('',(-0.,-1.,-0.));
#1616 = ORIENTED_EDGE('',*,*,#1617,.T.);
#1617 = EDGE_CURVE('',#1610,#1618,#1620,.T.);
#1618 = VERTEX_POINT('',#1619);
#1619 = CARTESIAN_POINT('',(0.15,0.85,0.15));
#1620 = LINE('',#1621,#1622);
#1621 = CARTESIAN_POINT('',(0.15,0.85,0.));
#1622 = VECTOR('',#1623,1.);
#1623 = DIRECTION('',(-0.,-0.,1.));
#1624 = ORIENTED_EDGE('',*,*,#1625,.F.);
#1625 = EDGE_CURVE('',#1602,#1618,#1626,.T.);
#1626 = LINE('',#1627,#1628);
#1627 = CARTESIAN_POINT('',(0.15,1.45,0.15));
#1628 = VECTOR('',#1629,1.);
#1629 = DIRECTION('',(-0.,-1.,-0.));
#1630 = PLANE('',#1631);
#1631 = AXIS2_PLACEMENT_3D('',#1632,#1633,#1634);
#1632 = CARTESIAN_POINT('',(0.15,1.45,0.));
#1633 = DIRECTION('',(1.,-0.,-0.));
#1634 = DIRECTION('',(0.,0.,-1.));
#1635 = ADVANCED_FACE('',(#1636),#1670,.T.);
#1636 = FACE_BOUND('',#1637,.F.);
#1637 = EDGE_LOOP('',(#1638,#1648,#1656,#1664));
#1638 = ORIENTED_EDGE('',*,*,#1639,.F.);
#1639 = EDGE_CURVE('',#1640,#1642,#1644,.T.);
#1640 = VERTEX_POINT('',#1641);
#1641 = CARTESIAN_POINT('',(0.35,1.45,0.));
#1642 = VERTEX_POINT('',#1643);
#1643 = CARTESIAN_POINT('',(0.35,1.45,0.15));
#1644 = LINE('',#1645,#1646);
#1645 = CARTESIAN_POINT('',(0.35,1.45,0.));
#1646 = VECTOR('',#1647,1.);
#1647 = DIRECTION('',(-0.,-0.,1.));
#1648 = ORIENTED_EDGE('',*,*,#1649,.T.);
#1649 = EDGE_CURVE('',#1640,#1650,#1652,.T.);
#1650 = VERTEX_POINT('',#1651);
#1651 = CARTESIAN_POINT('',(0.35,0.85,0.));
#1652 = LINE('',#1653,#1654);
#1653 = CARTESIAN_POINT('',(0.35,1.45,0.));
#1654 = VECTOR('',#1655,1.);
#1655 = DIRECTION('',(-0.,-1.,-0.));
#1656 = ORIENTED_EDGE('',*,*,#1657,.T.);
#1657 = EDGE_CURVE('',#1650,#1658,#1660,.T.);
#1658 = VERTEX_POINT('',#1659);
#1659 = CARTESIAN_POINT('',(0.35,0.85,0.15));
#1660 = LINE('',#1661,#1662);
#1661 = CARTESIAN_POINT('',(0.35,0.85,0.));
#1662 = VECTOR('',#1663,1.);
#1663 = DIRECTION('',(-0.,-0.,1.));
#1664 = ORIENTED_EDGE('',*,*,#1665,.F.);
#1665 = EDGE_CURVE('',#1642,#1658,#1666,.T.);
#1666 = LINE('',#1667,#1668);
#1667 = CARTESIAN_POINT('',(0.35,1.45,0.15));
#1668 = VECTOR('',#1669,1.);
#1669 = DIRECTION('',(-0.,-1.,-0.));
#1670 = PLANE('',#1671);
#1671 = AXIS2_PLACEMENT_3D('',#1672,#1673,#1674);
#1672 = CARTESIAN_POINT('',(0.35,1.45,0.));
#1673 = DIRECTION('',(1.,-0.,-0.));
#1674 = DIRECTION('',(0.,0.,-1.));
#1675 = ADVANCED_FACE('',(#1676),#1692,.F.);
#1676 = FACE_BOUND('',#1677,.T.);
#1677 = EDGE_LOOP('',(#1678,#1684,#1685,#1691));
#1678 = ORIENTED_EDGE('',*,*,#1679,.F.);
#1679 = EDGE_CURVE('',#1600,#1640,#1680,.T.);
#1680 = LINE('',#1681,#1682);
#1681 = CARTESIAN_POINT('',(0.15,1.45,0.));
#1682 = VECTOR('',#1683,1.);
#1683 = DIRECTION('',(1.,-0.,-0.));
#1684 = ORIENTED_EDGE('',*,*,#1599,.T.);
#1685 = ORIENTED_EDGE('',*,*,#1686,.T.);
#1686 = EDGE_CURVE('',#1602,#1642,#1687,.T.);
#1687 = LINE('',#1688,#1689);
#1688 = CARTESIAN_POINT('',(0.15,1.45,0.15));
#1689 = VECTOR('',#1690,1.);
#1690 = DIRECTION('',(1.,-0.,-0.));
#1691 = ORIENTED_EDGE('',*,*,#1639,.F.);
#1692 = PLANE('',#1693);
#1693 = AXIS2_PLACEMENT_3D('',#1694,#1695,#1696);
#1694 = CARTESIAN_POINT('',(0.15,1.45,0.));
#1695 = DIRECTION('',(-0.,-1.,-0.));
#1696 = DIRECTION('',(0.,0.,-1.));
#1697 = ADVANCED_FACE('',(#1698),#1714,.T.);
#1698 = FACE_BOUND('',#1699,.F.);
#1699 = EDGE_LOOP('',(#1700,#1706,#1707,#1713));
#1700 = ORIENTED_EDGE('',*,*,#1701,.F.);
#1701 = EDGE_CURVE('',#1610,#1650,#1702,.T.);
#1702 = LINE('',#1703,#1704);
#1703 = CARTESIAN_POINT('',(0.15,0.85,0.));
#1704 = VECTOR('',#1705,1.);
#1705 = DIRECTION('',(1.,-0.,-0.));
#1706 = ORIENTED_EDGE('',*,*,#1617,.T.);
#1707 = ORIENTED_EDGE('',*,*,#1708,.T.);
#1708 = EDGE_CURVE('',#1618,#1658,#1709,.T.);
#1709 = LINE('',#1710,#1711);
#1710 = CARTESIAN_POINT('',(0.15,0.85,0.15));
#1711 = VECTOR('',#1712,1.);
#1712 = DIRECTION('',(1.,-0.,-0.));
#1713 = ORIENTED_EDGE('',*,*,#1657,.F.);
#1714 = PLANE('',#1715);
#1715 = AXIS2_PLACEMENT_3D('',#1716,#1717,#1718);
#1716 = CARTESIAN_POINT('',(0.15,0.85,0.));
#1717 = DIRECTION('',(-0.,-1.,-0.));
#1718 = DIRECTION('',(0.,0.,-1.));
#1719 = ADVANCED_FACE('',(#1720),#1726,.F.);
#1720 = FACE_BOUND('',#1721,.T.);
#1721 = EDGE_LOOP('',(#1722,#1723,#1724,#1725));
#1722 = ORIENTED_EDGE('',*,*,#1609,.F.);
#1723 = ORIENTED_EDGE('',*,*,#1679,.T.);
#1724 = ORIENTED_EDGE('',*,*,#1649,.T.);
#1725 = ORIENTED_EDGE('',*,*,#1701,.F.);
#1726 = PLANE('',#1727);
#1727 = AXIS2_PLACEMENT_3D('',#1728,#1729,#1730);
#1728 = CARTESIAN_POINT('',(0.15,1.45,0.));
#1729 = DIRECTION('',(-0.,-0.,1.));
#1730 = DIRECTION('',(-1.,0.,0.));
#1731 = ADVANCED_FACE('',(#1732),#1738,.T.);
#1732 = FACE_BOUND('',#1733,.F.);
#1733 = EDGE_LOOP('',(#1734,#1735,#1736,#1737));
#1734 = ORIENTED_EDGE('',*,*,#1625,.F.);
#1735 = ORIENTED_EDGE('',*,*,#1686,.T.);
#1736 = ORIENTED_EDGE('',*,*,#1665,.T.);
#1737 = ORIENTED_EDGE('',*,*,#1708,.F.);
#1738 = PLANE('',#1739);
#1739 = AXIS2_PLACEMENT_3D('',#1740,#1741,#1742);
#1740 = CARTESIAN_POINT('',(0.15,1.45,0.15));
#1741 = DIRECTION('',(-0.,-0.,1.));
#1742 = DIRECTION('',(-1.,0.,0.));
#1743 = MANIFOLD_SOLID_BREP('',#1744);
#1744 = CLOSED_SHELL('',(#1745,#1785,#1825,#1847,#1869,#1881));
#1745 = ADVANCED_FACE('',(#1746),#1780,.F.);
#1746 = FACE_BOUND('',#1747,.T.);
#1747 = EDGE_LOOP('',(#1748,#1758,#1766,#1774));
#1748 = ORIENTED_EDGE('',*,*,#1749,.F.);
#1749 = EDGE_CURVE('',#1750,#1752,#1754,.T.);
#1750 = VERTEX_POINT('',#1751);
#1751 = CARTESIAN_POINT('',(-0.35,1.45,0.));
#1752 = VERTEX_POINT('',#1753);
#1753 = CARTESIAN_POINT('',(-0.35,1.45,0.15));
#1754 = LINE('',#1755,#1756);
#1755 = CARTESIAN_POINT('',(-0.35,1.45,0.));
#1756 = VECTOR('',#1757,1.);
#1757 = DIRECTION('',(-0.,-0.,1.));
#1758 = ORIENTED_EDGE('',*,*,#1759,.T.);
#1759 = EDGE_CURVE('',#1750,#1760,#1762,.T.);
#1760 = VERTEX_POINT('',#1761);
#1761 = CARTESIAN_POINT('',(-0.35,0.85,0.));
#1762 = LINE('',#1763,#1764);
#1763 = CARTESIAN_POINT('',(-0.35,1.45,0.));
#1764 = VECTOR('',#1765,1.);
#1765 = DIRECTION('',(-0.,-1.,-0.));
#1766 = ORIENTED_EDGE('',*,*,#1767,.T.);
#1767 = EDGE_CURVE('',#1760,#1768,#1770,.T.);
#1768 = VERTEX_POINT('',#1769);
#1769 = CARTESIAN_POINT('',(-0.35,0.85,0.15));
#1770 = LINE('',#1771,#1772);
#1771 = CARTESIAN_POINT('',(-0.35,0.85,0.));
#1772 = VECTOR('',#1773,1.);
#1773 = DIRECTION('',(-0.,-0.,1.));
#1774 = ORIENTED_EDGE('',*,*,#1775,.F.);
#1775 = EDGE_CURVE('',#1752,#1768,#1776,.T.);
#1776 = LINE('',#1777,#1778);
#1777 = CARTESIAN_POINT('',(-0.35,1.45,0.15));
#1778 = VECTOR('',#1779,1.);
#1779 = DIRECTION('',(-0.,-1.,-0.));
#1780 = PLANE('',#1781);
#1781 = AXIS2_PLACEMENT_3D('',#1782,#1783,#1784);
#1782 = CARTESIAN_POINT('',(-0.35,1.45,0.));
#1783 = DIRECTION('',(1.,-0.,-0.));
#1784 = DIRECTION('',(0.,0.,-1.));
#1785 = ADVANCED_FACE('',(#1786),#1820,.T.);
#1786 = FACE_BOUND('',#1787,.F.);
#1787 = EDGE_LOOP('',(#1788,#1798,#1806,#1814));
#1788 = ORIENTED_EDGE('',*,*,#1789,.F.);
#1789 = EDGE_CURVE('',#1790,#1792,#1794,.T.);
#1790 = VERTEX_POINT('',#1791);
#1791 = CARTESIAN_POINT('',(-0.15,1.45,0.));
#1792 = VERTEX_POINT('',#1793);
#1793 = CARTESIAN_POINT('',(-0.15,1.45,0.15));
#1794 = LINE('',#1795,#1796);
#1795 = CARTESIAN_POINT('',(-0.15,1.45,0.));
#1796 = VECTOR('',#1797,1.);
#1797 = DIRECTION('',(-0.,-0.,1.));
#1798 = ORIENTED_EDGE('',*,*,#1799,.T.);
#1799 = EDGE_CURVE('',#1790,#1800,#1802,.T.);
#1800 = VERTEX_POINT('',#1801);
#1801 = CARTESIAN_POINT('',(-0.15,0.85,0.));
#1802 = LINE('',#1803,#1804);
#1803 = CARTESIAN_POINT('',(-0.15,1.45,0.));
#1804 = VECTOR('',#1805,1.);
#1805 = DIRECTION('',(-0.,-1.,-0.));
#1806 = ORIENTED_EDGE('',*,*,#1807,.T.);
#1807 = EDGE_CURVE('',#1800,#1808,#1810,.T.);
#1808 = VERTEX_POINT('',#1809);
#1809 = CARTESIAN_POINT('',(-0.15,0.85,0.15));
#1810 = LINE('',#1811,#1812);
#1811 = CARTESIAN_POINT('',(-0.15,0.85,0.));
#1812 = VECTOR('',#1813,1.);
#1813 = DIRECTION('',(-0.,-0.,1.));
#1814 = ORIENTED_EDGE('',*,*,#1815,.F.);
#1815 = EDGE_CURVE('',#1792,#1808,#1816,.T.);
#1816 = LINE('',#1817,#1818);
#1817 = CARTESIAN_POINT('',(-0.15,1.45,0.15));
#1818 = VECTOR('',#1819,1.);
#1819 = DIRECTION('',(-0.,-1.,-0.));
#1820 = PLANE('',#1821);
#1821 = AXIS2_PLACEMENT_3D('',#1822,#1823,#1824);
#1822 = CARTESIAN_POINT('',(-0.15,1.45,0.));
#1823 = DIRECTION('',(1.,-0.,-0.));
#1824 = DIRECTION('',(0.,0.,-1.));
#1825 = ADVANCED_FACE('',(#1826),#1842,.F.);
#1826 = FACE_BOUND('',#1827,.T.);
#1827 = EDGE_LOOP('',(#1828,#1834,#1835,#1841));
#1828 = ORIENTED_EDGE('',*,*,#1829,.F.);
#1829 = EDGE_CURVE('',#1750,#1790,#1830,.T.);
#1830 = LINE('',#1831,#1832);
#1831 = CARTESIAN_POINT('',(-0.35,1.45,0.));
#1832 = VECTOR('',#1833,1.);
#1833 = DIRECTION('',(1.,-0.,-0.));
#1834 = ORIENTED_EDGE('',*,*,#1749,.T.);
#1835 = ORIENTED_EDGE('',*,*,#1836,.T.);
#1836 = EDGE_CURVE('',#1752,#1792,#1837,.T.);
#1837 = LINE('',#1838,#1839);
#1838 = CARTESIAN_POINT('',(-0.35,1.45,0.15));
#1839 = VECTOR('',#1840,1.);
#1840 = DIRECTION('',(1.,-0.,-0.));
#1841 = ORIENTED_EDGE('',*,*,#1789,.F.);
#1842 = PLANE('',#1843);
#1843 = AXIS2_PLACEMENT_3D('',#1844,#1845,#1846);
#1844 = CARTESIAN_POINT('',(-0.35,1.45,0.));
#1845 = DIRECTION('',(-0.,-1.,-0.));
#1846 = DIRECTION('',(0.,0.,-1.));
#1847 = ADVANCED_FACE('',(#1848),#1864,.T.);
#1848 = FACE_BOUND('',#1849,.F.);
#1849 = EDGE_LOOP('',(#1850,#1856,#1857,#1863));
#1850 = ORIENTED_EDGE('',*,*,#1851,.F.);
#1851 = EDGE_CURVE('',#1760,#1800,#1852,.T.);
#1852 = LINE('',#1853,#1854);
#1853 = CARTESIAN_POINT('',(-0.35,0.85,0.));
#1854 = VECTOR('',#1855,1.);
#1855 = DIRECTION('',(1.,-0.,-0.));
#1856 = ORIENTED_EDGE('',*,*,#1767,.T.);
#1857 = ORIENTED_EDGE('',*,*,#1858,.T.);
#1858 = EDGE_CURVE('',#1768,#1808,#1859,.T.);
#1859 = LINE('',#1860,#1861);
#1860 = CARTESIAN_POINT('',(-0.35,0.85,0.15));
#1861 = VECTOR('',#1862,1.);
#1862 = DIRECTION('',(1.,-0.,-0.));
#1863 = ORIENTED_EDGE('',*,*,#1807,.F.);
#1864 = PLANE('',#1865);
#1865 = AXIS2_PLACEMENT_3D('',#1866,#1867,#1868);
#1866 = CARTESIAN_POINT('',(-0.35,0.85,0.));
#1867 = DIRECTION('',(-0.,-1.,-0.));
#1868 = DIRECTION('',(0.,0.,-1.));
#1869 = ADVANCED_FACE('',(#1870),#1876,.F.);
#1870 = FACE_BOUND('',#1871,.T.);
#1871 = EDGE_LOOP('',(#1872,#1873,#1874,#1875));
#1872 = ORIENTED_EDGE('',*,*,#1759,.F.);
#1873 = ORIENTED_EDGE('',*,*,#1829,.T.);
#1874 = ORIENTED_EDGE('',*,*,#1799,.T.);
#1875 = ORIENTED_EDGE('',*,*,#1851,.F.);
#1876 = PLANE('',#1877);
#1877 = AXIS2_PLACEMENT_3D('',#1878,#1879,#1880);
#1878 = CARTESIAN_POINT('',(-0.35,1.45,0.));
#1879 = DIRECTION('',(-0.,-0.,1.));
#1880 = DIRECTION('',(-1.,0.,0.));
#1881 = ADVANCED_FACE('',(#1882),#1888,.T.);
#1882 = FACE_BOUND('',#1883,.F.);
#1883 = EDGE_LOOP('',(#1884,#1885,#1886,#1887));
#1884 = ORIENTED_EDGE('',*,*,#1775,.F.);
#1885 = ORIENTED_EDGE('',*,*,#1836,.T.);
#1886 = ORIENTED_EDGE('',*,*,#1815,.T.);
#1887 = ORIENTED_EDGE('',*,*,#1858,.F.);
#1888 = PLANE('',#1889);
#1889 = AXIS2_PLACEMENT_3D('',#1890,#1891,#1892);
#1890 = CARTESIAN_POINT('',(-0.35,1.45,0.15));
#1891 = DIRECTION('',(-0.,-0.,1.));
#1892 = DIRECTION('',(-1.,0.,0.));
#1893 = MANIFOLD_SOLID_BREP('',#1894);
#1894 = CLOSED_SHELL('',(#1895,#1935,#1975,#1997,#2019,#2031));
#1895 = ADVANCED_FACE('',(#1896),#1930,.F.);
#1896 = FACE_BOUND('',#1897,.T.);
#1897 = EDGE_LOOP('',(#1898,#1908,#1916,#1924));
#1898 = ORIENTED_EDGE('',*,*,#1899,.F.);
#1899 = EDGE_CURVE('',#1900,#1902,#1904,.T.);
#1900 = VERTEX_POINT('',#1901);
#1901 = CARTESIAN_POINT('',(-0.85,1.45,0.));
#1902 = VERTEX_POINT('',#1903);
#1903 = CARTESIAN_POINT('',(-0.85,1.45,0.15));
#1904 = LINE('',#1905,#1906);
#1905 = CARTESIAN_POINT('',(-0.85,1.45,0.));
#1906 = VECTOR('',#1907,1.);
#1907 = DIRECTION('',(-0.,-0.,1.));
#1908 = ORIENTED_EDGE('',*,*,#1909,.T.);
#1909 = EDGE_CURVE('',#1900,#1910,#1912,.T.);
#1910 = VERTEX_POINT('',#1911);
#1911 = CARTESIAN_POINT('',(-0.85,0.85,0.));
#1912 = LINE('',#1913,#1914);
#1913 = CARTESIAN_POINT('',(-0.85,1.45,0.));
#1914 = VECTOR('',#1915,1.);
#1915 = DIRECTION('',(-0.,-1.,-0.));
#1916 = ORIENTED_EDGE('',*,*,#1917,.T.);
#1917 = EDGE_CURVE('',#1910,#1918,#1920,.T.);
#1918 = VERTEX_POINT('',#1919);
#1919 = CARTESIAN_POINT('',(-0.85,0.85,0.15));
#1920 = LINE('',#1921,#1922);
#1921 = CARTESIAN_POINT('',(-0.85,0.85,0.));
#1922 = VECTOR('',#1923,1.);
#1923 = DIRECTION('',(-0.,-0.,1.));
#1924 = ORIENTED_EDGE('',*,*,#1925,.F.);
#1925 = EDGE_CURVE('',#1902,#1918,#1926,.T.);
#1926 = LINE('',#1927,#1928);
#1927 = CARTESIAN_POINT('',(-0.85,1.45,0.15));
#1928 = VECTOR('',#1929,1.);
#1929 = DIRECTION('',(-0.,-1.,-0.));
#1930 = PLANE('',#1931);
#1931 = AXIS2_PLACEMENT_3D('',#1932,#1933,#1934);
#1932 = CARTESIAN_POINT('',(-0.85,1.45,0.));
#1933 = DIRECTION('',(1.,-0.,-0.));
#1934 = DIRECTION('',(0.,0.,-1.));
#1935 = ADVANCED_FACE('',(#1936),#1970,.T.);
#1936 = FACE_BOUND('',#1937,.F.);
#1937 = EDGE_LOOP('',(#1938,#1948,#1956,#1964));
#1938 = ORIENTED_EDGE('',*,*,#1939,.F.);
#1939 = EDGE_CURVE('',#1940,#1942,#1944,.T.);
#1940 = VERTEX_POINT('',#1941);
#1941 = CARTESIAN_POINT('',(-0.65,1.45,0.));
#1942 = VERTEX_POINT('',#1943);
#1943 = CARTESIAN_POINT('',(-0.65,1.45,0.15));
#1944 = LINE('',#1945,#1946);
#1945 = CARTESIAN_POINT('',(-0.65,1.45,0.));
#1946 = VECTOR('',#1947,1.);
#1947 = DIRECTION('',(-0.,-0.,1.));
#1948 = ORIENTED_EDGE('',*,*,#1949,.T.);
#1949 = EDGE_CURVE('',#1940,#1950,#1952,.T.);
#1950 = VERTEX_POINT('',#1951);
#1951 = CARTESIAN_POINT('',(-0.65,0.85,0.));
#1952 = LINE('',#1953,#1954);
#1953 = CARTESIAN_POINT('',(-0.65,1.45,0.));
#1954 = VECTOR('',#1955,1.);
#1955 = DIRECTION('',(-0.,-1.,-0.));
#1956 = ORIENTED_EDGE('',*,*,#1957,.T.);
#1957 = EDGE_CURVE('',#1950,#1958,#1960,.T.);
#1958 = VERTEX_POINT('',#1959);
#1959 = CARTESIAN_POINT('',(-0.65,0.85,0.15));
#1960 = LINE('',#1961,#1962);
#1961 = CARTESIAN_POINT('',(-0.65,0.85,0.));
#1962 = VECTOR('',#1963,1.);
#1963 = DIRECTION('',(-0.,-0.,1.));
#1964 = ORIENTED_EDGE('',*,*,#1965,.F.);
#1965 = EDGE_CURVE('',#1942,#1958,#1966,.T.);
#1966 = LINE('',#1967,#1968);
#1967 = CARTESIAN_POINT('',(-0.65,1.45,0.15));
#1968 = VECTOR('',#1969,1.);
#1969 = DIRECTION('',(-0.,-1.,-0.));
#1970 = PLANE('',#1971);
#1971 = AXIS2_PLACEMENT_3D('',#1972,#1973,#1974);
#1972 = CARTESIAN_POINT('',(-0.65,1.45,0.));
#1973 = DIRECTION('',(1.,-0.,-0.));
#1974 = DIRECTION('',(0.,0.,-1.));
#1975 = ADVANCED_FACE('',(#1976),#1992,.F.);
#1976 = FACE_BOUND('',#1977,.T.);
#1977 = EDGE_LOOP('',(#1978,#1984,#1985,#1991));
#1978 = ORIENTED_EDGE('',*,*,#1979,.F.);
#1979 = EDGE_CURVE('',#1900,#1940,#1980,.T.);
#1980 = LINE('',#1981,#1982);
#1981 = CARTESIAN_POINT('',(-0.85,1.45,0.));
#1982 = VECTOR('',#1983,1.);
#1983 = DIRECTION('',(1.,-0.,-0.));
#1984 = ORIENTED_EDGE('',*,*,#1899,.T.);
#1985 = ORIENTED_EDGE('',*,*,#1986,.T.);
#1986 = EDGE_CURVE('',#1902,#1942,#1987,.T.);
#1987 = LINE('',#1988,#1989);
#1988 = CARTESIAN_POINT('',(-0.85,1.45,0.15));
#1989 = VECTOR('',#1990,1.);
#1990 = DIRECTION('',(1.,-0.,-0.));
#1991 = ORIENTED_EDGE('',*,*,#1939,.F.);
#1992 = PLANE('',#1993);
#1993 = AXIS2_PLACEMENT_3D('',#1994,#1995,#1996);
#1994 = CARTESIAN_POINT('',(-0.85,1.45,0.));
#1995 = DIRECTION('',(-0.,-1.,-0.));
#1996 = DIRECTION('',(0.,0.,-1.));
#1997 = ADVANCED_FACE('',(#1998),#2014,.T.);
#1998 = FACE_BOUND('',#1999,.F.);
#1999 = EDGE_LOOP('',(#2000,#2006,#2007,#2013));
#2000 = ORIENTED_EDGE('',*,*,#2001,.F.);
#2001 = EDGE_CURVE('',#1910,#1950,#2002,.T.);
#2002 = LINE('',#2003,#2004);
#2003 = CARTESIAN_POINT('',(-0.85,0.85,0.));
#2004 = VECTOR('',#2005,1.);
#2005 = DIRECTION('',(1.,-0.,-0.));
#2006 = ORIENTED_EDGE('',*,*,#1917,.T.);
#2007 = ORIENTED_EDGE('',*,*,#2008,.T.);
#2008 = EDGE_CURVE('',#1918,#1958,#2009,.T.);
#2009 = LINE('',#2010,#2011);
#2010 = CARTESIAN_POINT('',(-0.85,0.85,0.15));
#2011 = VECTOR('',#2012,1.);
#2012 = DIRECTION('',(1.,-0.,-0.));
#2013 = ORIENTED_EDGE('',*,*,#1957,.F.);
#2014 = PLANE('',#2015);
#2015 = AXIS2_PLACEMENT_3D('',#2016,#2017,#2018);
#2016 = CARTESIAN_POINT('',(-0.85,0.85,0.));
#2017 = DIRECTION('',(-0.,-1.,-0.));
#2018 = DIRECTION('',(0.,0.,-1.));
#2019 = ADVANCED_FACE('',(#2020),#2026,.F.);
#2020 = FACE_BOUND('',#2021,.T.);
#2021 = EDGE_LOOP('',(#2022,#2023,#2024,#2025));
#2022 = ORIENTED_EDGE('',*,*,#1909,.F.);
#2023 = ORIENTED_EDGE('',*,*,#1979,.T.);
#2024 = ORIENTED_EDGE('',*,*,#1949,.T.);
#2025 = ORIENTED_EDGE('',*,*,#2001,.F.);
#2026 = PLANE('',#2027);
#2027 = AXIS2_PLACEMENT_3D('',#2028,#2029,#2030);
#2028 = CARTESIAN_POINT('',(-0.85,1.45,0.));
#2029 = DIRECTION('',(-0.,-0.,1.));
#2030 = DIRECTION('',(-1.,0.,0.));
#2031 = ADVANCED_FACE('',(#2032),#2038,.T.);
#2032 = FACE_BOUND('',#2033,.F.);
#2033 = EDGE_LOOP('',(#2034,#2035,#2036,#2037));
#2034 = ORIENTED_EDGE('',*,*,#1925,.F.);
#2035 = ORIENTED_EDGE('',*,*,#1986,.T.);
#2036 = ORIENTED_EDGE('',*,*,#1965,.T.);
#2037 = ORIENTED_EDGE('',*,*,#2008,.F.);
#2038 = PLANE('',#2039);
#2039 = AXIS2_PLACEMENT_3D('',#2040,#2041,#2042);
#2040 = CARTESIAN_POINT('',(-0.85,1.45,0.15));
#2041 = DIRECTION('',(-0.,-0.,1.));
#2042 = DIRECTION('',(-1.,0.,0.));
#2043 = ( GEOMETRIC_REPRESENTATION_CONTEXT(3) 
GLOBAL_UNCERTAINTY_ASSIGNED_CONTEXT((#2047)) 
GLOBAL_UNIT_ASSIGNED_CONTEXT((#2044,#2045,#2046)) REPRESENTATION_CONTEXT
('Context #1','3D Context with UNIT and UNCERTAINTY') );
#2044 = ( LENGTH_UNIT() NAMED_UNIT(*) SI_UNIT(.MILLI.,.METRE.) );
#2045 = ( NAMED_UNIT(*) PLANE_ANGLE_UNIT() SI_UNIT($,.RADIAN.) );
#2046 = ( NAMED_UNIT(*) SI_UNIT($,.STERADIAN.) SOLID_ANGLE_UNIT() );
#2047 = UNCERTAINTY_MEASURE_WITH_UNIT(LENGTH_MEASURE(1.E-07),#2044,
  'distance_accuracy_value','confusion accuracy');
#2048 = PRODUCT_RELATED_PRODUCT_CATEGORY('part',$,(#7));
ENDSEC;
END-ISO-10303-21;
